<svg id="aaa7dca2-6054-4dc3-a6df-7a993c169049" data-name="Calque 1" xmlns="http://www.w3.org/2000/svg" width="1920" height="1920" viewBox="0 0 1920 1920">
  <defs>
    <style>
      .b01cccdb-5e16-413e-9b97-0ee142ba6c14 {
        fill: #fff;
      }
    </style>
  </defs>
  <g>
    <path class="b01cccdb-5e16-413e-9b97-0ee142ba6c14" d="M0,0H1920V1920.68H0ZM551,803.17l-2-.09c-.87-1.52-1.81-3-2.58-4.56-1.09-2.23-2.6-3.73-5.28-3.23-3.08.57-3.44,2.92-3.82,5.56-.89,6.21-1.93,12.41-3.23,18.55-1,4.84-2.67,9.56-3.78,14.39a23,23,0,0,0-.66,7.33c.48,4.81,2.56,5.72,7.34,5.08a51.85,51.85,0,0,1,11.94.12c1.14.11,2.59,1.71,3,2.93.26.78-.91,2.42-1.85,3.11-2.53,1.88-5.4,3.3-7.94,5.17-7.41,5.45-8.13,12.82-1.79,19.58a32.75,32.75,0,0,1,8.35,15.23c1.33,5.71,2.42,11.48,4,17.12,2.09,7.59,1,14.25-4.63,20a8.75,8.75,0,0,0-2.26,8.76c1.93,7.39,4,14.75,5.84,22.16,2.15,8.51,4.07,17.09,6.32,25.58.61,2.3,1.48,5.15,3.21,6.43,4.05,3,3.78,6.82,3.41,10.91-.27,2.9-1.18,5.89-.75,8.68a9.14,9.14,0,0,0,3.67,5.91c1.12.65,4.25-.8,5.62-2.17a119.76,119.76,0,0,0,9.17-10.77c2.85-3.59,4.56-3.76,7.29-.1,1.74,2.35,3.08,5,4.67,7.45.78,1.22,1.72,2.33,2.79,3.76a11.7,11.7,0,0,0,1.47-2.07c3.63-9.92,10.4-16.13,20.94-18.09,4.79-.89,7.65-4,10-8.23,9.79-17.19,32.75-17.9,44.83-2.1,7.5,9.8,16.13,18.73,24.29,28a22.2,22.2,0,0,0,3,2.66c2.29,1.79,4.61,3.52,6.61,5-3.6,4.23-7,8.16-10.31,12.14a4.06,4.06,0,0,0-.61,1.89A12.41,12.41,0,0,0,709,1049.68c1.2.08,2.4.26,3.61.39a3.48,3.48,0,0,1-2.65,2,14.12,14.12,0,0,1-13-5.89c-3.13-4.14-6-8.45-9.13-12.6-1.94-2.58-1-4.5.9-6.52,6.38-6.6,6.38-6.68-.6-12.75-1.63-1.42-3.49-2.59-5-3.74-3.52,1.92-4.2,4.71-4.73,7.67a29.13,29.13,0,0,1-1.81,7.17c-.61,1.33-2.45,2.08-3.73,3.09a16.58,16.58,0,0,1-2.43-3.59c-.43-1.22-.17-2.68-.21-4-.27-8.71-2.14-10.4-10.52-9.52a36.66,36.66,0,0,0-4.71.48c-3.36.81-5.17,4.32-2.84,6.62,4.06,4,5,9.46,7.93,13.92,3.93,6,3.93,7.13-1.13,12.07-.8.79-1.65,1.54-2.5,2.28-2.47,2.17-2.9,4.64-.55,7,4.82,4.87,3.56,9.28.12,14.46-5.52,8.29-6.65,17.91-7.34,27.8,1.9.48,3.23,1.23,4.43,1,7.47-1.09,13.6,2.09,19.68,5.69,2.91,1.73,5.9,3.32,8.91,4.85,17.95,9.14,26.82,23.48,25.27,43.86-.12,1.57.15,3.22-.21,4.72-.45,1.88-.86,4.23-2.17,5.37-6.45,5.61-12.81,11.45-19.91,16.13-7.7,5.09-16.48,5.72-25.34,2.6-1.89-.66-3.83-1.19-6.42-2-.5,3-1.25,5.57-1.31,8.17-.23,9.48-.45,19-.19,28.44a23.74,23.74,0,0,0,2.55,9.63c1.87,3.73,3.91,8.06,9.14,7.94,4.76-.11,6.71-4,8.81-7.5,3.53-5.89,4.27-6,9.65-1.89.5.39,1.14.61.84.45,6.38-2.36,11.9-5.24,17.76-6.32,5.66-1,11.67-.23,18.17-.23-5.54-5.77-6.53-12.08-5.26-19.2.58-3.24-.13-6.72-.36-10.09-.19-2.69-.61-5.37-.79-8.07-.19-3,1.37-5,4.21-5.12,7.11-.25,14.22-.08,21.53-.08a10.88,10.88,0,0,1-.28,2.55c-3.11,7.68-2.86,9,4.75,12.42s15.52,6,23.28,9.07c3.52,1.38,6.33.66,9.12-2,5.82-5.59,12.84-8.73,20.76-10.67,6.16-1.52,12.79-3,17.23-8.51a5.68,5.68,0,0,1,3.55-1.67c3.73-.43,7.5-.55,11.52-.82l1.95,7.3c5.29-2.39,10.21-4.54,15.06-6.83,8.15-3.84,16.37-4.78,24.82-1a14.75,14.75,0,0,0,2.8.73c2.34-8.45,4.58-16.58,6.82-24.68-6.28-1.05-7.07-2-8.26-7.32-1.28-5.75,2.68-7.41,7.65-9.3-4.46-8.33-8.65-16.16-13.28-24.79,1.82-.64,3.86-2.11,5.63-1.85,7.82,1.16,15.61,2.69,21.74,8.39,3.9,3.63,7.82,5.61,13.14,2,3-2.07,6.73-2,10,2.54-4.42-.71-8.21-1.19-9.14,4l3,4.13,28.9,6c4.23-5.94,6.08-6.14,12.14-1.25a16,16,0,0,0,1.59,1.26c12.11,7.87,24.89,11.59,39.08,6.13a23.83,23.83,0,0,1,16.54-.08c2.27.75,4.54,1.45,7.07,2.26.69-5.06,1.17-9.53,1.92-14,2.93-17.29,11.52-29.51,29.56-33.82,3.47-.83,7-3.26,9.57-5.83,15-14.74,32.89-23.49,53.56-26.82,7.13-1.14,7.11-1.16,8.6-8,3.56-16.3,7.09-32.61,10.72-48.89,1.89-8.46,3.15-17.07,1.21-25.51-3-13.34-3.17-26.84-3.65-40.35a18.89,18.89,0,0,1,.67-3.94l1.53-.21c4.37,10.85,9.18,21.55,13,32.59,3.72,10.84,3.79,22.15,1.83,33.46-1.23,7.16-1.93,14.38.23,21.46a9.57,9.57,0,0,1-1.38,8.34c-4.45,7.12-6.07,15-6.22,23.23-.18,9.41-.14,9.51,8.65,12.4a12.32,12.32,0,0,0,2.54.14,82.37,82.37,0,0,0,3.4-23.16,26.71,26.71,0,0,1,3.28-13.64c6.56-11.68,10.4-23.89,8.22-37.56-.82-5.1,1.09-7.32,5.54-9.69,5.94-3.18,11.69-6.73,17.62-10,3.74-2,7.5-4.25,11.53-5.48,4.22-1.27,5.85-3.65,6-7.78.18-6.76.54-13.52.81-20.29a56.85,56.85,0,0,1,5.08-21.6q8.49-18.44,17.23-36.76c5.88-12.32,15.71-18.64,29.36-19.57,3.9-.26,7.71-2,11.56-3.08,3.21-.89,6.41-2.37,9.65-2.48,3-.1,6.14,1.16,9.16,2,5.45,1.51,8,.62,10.63-4.26,1.39-2.57,2.38-5.36,3.66-8,3.62-7.46,7.55-9.17,15.27-6.71a34,34,0,0,1,3.81,1.4,4.08,4.08,0,0,0,5.4-1.26c4.43-5.39,8.79-10.83,13.31-16.15,1.07-1.26,2.68-3,4-2.94,4.67.06,9.32.85,14,1.22,2.82.22,5.93,1,8.43.09,4.13-1.44,7.74-1.73,11.58.54,1.32.78,3.06.78,4.52,1.36,10,4,20.16,7.77,30,12.23,4.9,2.23,8.74,6.12,9.6,12.16-6.23,4.08-9-1.7-12.64-4.24a26.38,26.38,0,0,0-3.87,1.88c-4.76,3.35-9.14,2.76-13.58-.77-3-2.37-6.38-4.25-9.47-6.53-5.85-4.31-13-4.86-19.63-6.91a3.85,3.85,0,0,0-2.63.24,21.51,21.51,0,0,1-12.35,2.41c-3.91-.32-5.58,2.56-4.38,6.36,1.77,5.63,5.9,8.79,11.25,10.84,9.89,3.78,19.67,7.89,29.58,11.64a17.44,17.44,0,0,1,10.68,10.44c3.71,9.09,10.13,12.55,19.93,11.42a51.27,51.27,0,0,0,9.19-2.14c7.75-2.42,15.53-4.78,23.15-7.58,25.91-9.5,51.35-7.45,76.56,2.66,2.21.88,4.48,1.64,7.39,2.7.43-2.92.83-5.09,1-7.27,1.29-12.78,2.37-25.59,3.85-38.35,1.64-14.17,2.74-28.27-.16-42.44-2.33-11.36.09-22,6.23-31.74,2.89-4.58,5.81-9.14,8.87-13.61,1.54-2.24,2.06-4.42,1.06-7-.65-1.68-1.16-3.41-1.77-5.11-58.64-165.56-166.25-287.9-323.72-365.78-77.08-38.11-159.07-58-244.84-61.95a621,621,0,0,0-152.79,11.61c-125.8,25.66-234.49,83.64-324.43,175.08-109.15,111-169.07,244.91-181,400.2-3.27,42.68-1.43,85.27,4.11,127.67a620.14,620.14,0,0,0,36.44,142.57c28,72.85,68.44,138.07,120.72,196a47.93,47.93,0,0,0,3.91,3.41c-1.6-10.38-3.62-19.8-4.32-29.33a30.49,30.49,0,0,0-7.09-17.77,591.89,591.89,0,0,1-69.81-109.32C366,1127.21,345.56,1043,342.33,954.53c-.34-9.19,2.67-15,10.65-19.11,3.55-1.82,6.69-4.58,9.71-7.26A15.37,15.37,0,0,1,375.07,924c12.8,1.24,25.6,2.41,38.42,3.38,4,.3,8.39.85,12.07-.35,13.46-4.4,24.52-12.33,31.79-24.77,1.55-2.66,3.15-4.74,6-6,7.93-3.51,14.71-8.76,21-14.65,5.76-5.41,11.21-11.17,17.25-16.24,13.52-11.36,19.51-26.21,20.77-43.3,1.49-20.25,2.88-40.52,4-60.79.56-10.24,4.47-18.51,11.7-25.78,6.18-6.2,11.52-13.23,17.23-19.89,1.17-1.37,2.14-3.08,3.6-4a5.4,5.4,0,0,1,4.28-.29c.85.35,1.6,2.22,1.5,3.33a38.67,38.67,0,0,1-1.61,7.23c-1.65,5.52-2.28,11-.39,16.62a7.25,7.25,0,0,1,.17,4.59c-4.21,10.37-4.24,21.12-3.54,32,.12,1.89-.11,4.66-1.3,5.64-5.71,4.64-6,10.69-5.66,17.2C552.46,799.68,551.5,801.44,551,803.17Zm975.49,259.28c-.23,6.72-.49,12-.56,17.37-.06,4.68-.52,9.49.31,14a135.17,135.17,0,0,0,5.17,18.9c3.94,11.68,9.83,22.34,18.71,31,8.62,8.42,20.26,9.37,31.22,10.77,6.46.83,11.4-5.82,11.85-12.67a12.66,12.66,0,0,1,1.46-5.78c2.95-4.75,2-9.37-.81-13.33a50.42,50.42,0,0,0-9.75-10.15,24.54,24.54,0,0,1-9.11-15.2c-1.48-9.52-1.11-19.33-1.33-29-.08-3.13.62-6.28.65-9.42.07-9.43-.62-18.91.11-28.29,1.31-16.83,3.24-33.63,5.3-50.39,1.32-10.74,3.2-21.41,5.06-32.06,1.34-7.72,3.44-15.31,4.52-23.05,1.46-10.46,2.25-21,3.39-31.52,1.69-15.63,3.51-31.24,5.11-46.87.92-9,1.6-18,2.21-27,.63-9.22,1.4-18.44,1.47-27.67.08-11.1-5.26-19.85-13.39-27a10,10,0,0,0-3.48-1.91c-3.1-1-6.26-1.72-9.6-2.61-1.16,1-2.35,2.92-3.88,3.27-6.21,1.39-7.9,6.91-10.73,11.27a19.46,19.46,0,0,0-2.76,15,118.73,118.73,0,0,1,1.09,42.4c-.66,4.46-1.25,8.95-1.5,13.44-1.34,24.08-3.7,48-9.07,71.59-2.45,10.75-2.14,10.56-13.47,8.46-8.46-1.58-17-2.18-25.18,1.85-5.24,2.61-10.55,5.1-15.68,7.9-4.91,2.69-10.2,5.08-14.31,8.74a174.81,174.81,0,0,0-19.7,20.2,80.18,80.18,0,0,0-17.56,44c-1,10.53-1.09,21.14-1.3,31.72-.07,3.21-1,5.06-4.12,6-5.18,1.53-10.25,3.48-15.47,4.86-5.49,1.45-7.59-.13-8.07-5.73-.57-6.52-1.08-13-1.38-19.58-.6-13.18-6.6-24.08-15.71-32.78-9.63-9.19-21.32-9.31-33.08-3.5-1.82.9-3.51,2-5.31,3-5,2.6-10,5.16-15,7.74-2.8,1.45-5.81,2.6-8.31,4.45-3.3,2.44-6.35,5-10.06,3.3-2.53,2.83-4.71,5.06-6.64,7.48a81.3,81.3,0,0,0-7.13,9.77c-1,1.8-1.85,4.72-1.1,6.4,3,6.61,1.08,13.38,1.25,20,.31,11.93.25,23.86-2.72,35.6-2,7.92-6.23,13.21-15.17,15-.62-2.52-1.55-4.82-1.71-7.18-.51-7.65-.64-15.33-1.12-23a48.58,48.58,0,0,0-1.48-10c-3.06-11-10.71-16.2-22.15-15.66-5.63.26-11.28.13-16.91.34-4.73.18-9.6-.06-14.13,1-23,5.58-41,18.49-52.85,39.09-5.73,9.94-10.39,20.5-15.62,30.74a32.84,32.84,0,0,1-3.4,4.4c-4-6.55-7.44-12.36-11.09-18-9.16-14.23-23.67-20.28-40.27-17-18,3.5-32.89,12.2-44.31,26.53-3.08,3.87-6.3,5.73-11.42,5.56-8.39-.28-13,3.54-15,11.71a56.2,56.2,0,0,0-1.46,10c-.31,5,0,10-.48,14.88-.47,4.43-1,9.11-2.85,13.06-2.93,6.3-7.06,12-10.51,18.1-5.53,9.73-12.14,18.9-14.38,30.29-.87,4.43-3.21,8.57-5.37,14.11-2.2-3.19-3.55-5.18-4.93-7.14-14.75-21-31.47-40-54.11-53a37.44,37.44,0,0,1-10-7.92c-4-4.74-9.36-5.67-14.66-7.59-6.67-2.42-10.49,1.67-15,4.78-.37.26-.74.52-1.1.79-9,6.79-10.92,11.53-7.12,22.21a68.52,68.52,0,0,1,3.82,21.79c.28,11.14-.75,22-4.2,32.63-1.17,3.61-1.8,7.41-2.62,11.14-1.84,8.33-3.07,16.86-5.63,25-2.25,7.1-6.85,12.86-14.9,15.57-.79-2.75-1-5.32-2.21-7.33-2.53-4.3-2.07-8.47-1-13a129.7,129.7,0,0,0,2-14.63c.36-3.13.47-6.29.7-9.44.65-9,1.64-18,1.86-26.95s-4.65-15.17-12.57-19.23c-3.26-1.66-6.33-2.4-9.61-.53-5.46,3.1-11,6.15-16.27,9.49-2.21,1.39-4.09,2.84-6.74,1.28-6.29-3.7-13.26-2.81-19.7-1.67-11.66,2.08-22.58,6.17-29.85,16.63-1.77,2.55-4.59,4.34-6.66,6.71-3,3.38-6.1,6.71-8.41,10.53A229.37,229.37,0,0,0,746.72,1286c-4.69,13.69-4.77,27.43.62,41,5.28,13.34,15.28,22.12,28.62,25.67,18.65,5,36.3,1,51.83-10.65,5.76-4.31,11-9.33,16.39-14.11,4.83-4.29,6.94-4.47,12.76-1.74,3.41,1.6,7.06,3.33,10.72,3.64a38,38,0,0,0,27.26-8c12.93-10,23-22.07,28.69-37.69a254.71,254.71,0,0,0,11.91-47.83c1-6.23,1.59-12.53,2.68-18.75.78-4.42,3.9-5.35,7.3-2.45a15.64,15.64,0,0,1,1.81,2c7.5,9,15,18,22.44,27.13a37.2,37.2,0,0,1,4.73,7.38c3.07,6.51.8,10.74-7.37,13.11-.62-2.29-1.23-4.59-1.85-6.88-.87-3.25-1.43-6.64-2.71-9.73-1.5-3.65-4.76-5.74-8-4.7-5.51,1.76-11.66,3.4-14.28,9.27a134.6,134.6,0,0,0-7.59,20.87c-2.5,9.62,1.32,17.71,9.49,23.4,11.39,7.92,23.87,6.23,35.82,3,10-2.67,19-8.34,27.06-15,7.83-6.46,11.67-14.9,10.79-25.06-.39-4.44-1.73-8.81-2.73-13.19-.52-2.31-1.22-4.58-2-7.45,4,.34,7.13,1.19,10.06.69s5.58-2.35,9.61-4.18c-.52,4.51-1,8-1.3,11.42-2.37,26.5-5,53-9.33,79.25-3,18.22-4.93,36.64-7.19,55-2.5,20.37-5.08,40.74-7.19,61.15-3.78,36.57-7.25,73.17-10.82,109.76a16.83,16.83,0,0,0,2.66,11.63c2.68,3.87,6.05,4.86,10.52,3.44a54.54,54.54,0,0,1,7.82-2c8.22-1.29,12.19-5.41,13-13.83.34-3.59.49-7.21.89-10.79,2.12-19,4.35-38.08,6.41-57.13.95-8.73,1.39-17.52,2.46-26.24.95-7.82,2.6-15.55,3.67-23.36,4-29.27,7.74-58.57,11.87-87.82,2.77-19.65,6.37-39.18,8.94-58.85,1.79-13.63,2.43-27.4,3.65-41.11.48-5.31.7-5.5,6.09-6,11.27-1,22.38-2.75,33-7,27.48-11.17,45.35-31.71,56.88-58.42.77-1.78.61-4.15,3.67-4.46.6.74,1.35,1.54,2,2.43,5.57,8.19,13.52,12.35,23.14,13.63,2.23.3,4.53.15,6.73.55,16.5,3,30.92-1.65,43-12.69,9.47-8.62,19.08-17.29,25.25-28.86,1.12-2.09,2.79-3.1,5-2.14,5.08,2.21,11,2.86,14.42,7.38,3.14-.78,6-1.27,8.69-2.2,6.89-2.4,13.75-4.12,20.05-8.78,10.53-7.8,18.08-17.61,24.14-28.75,7.44-13.69,10.89-28.57,11.14-44.16.1-6,.11-12,.3-18a6.1,6.1,0,0,1,1.21-3.1c2.71-3.87,5.31-7.85,8.38-11.42s7.45-5.65,13-6.57a61.17,61.17,0,0,1,1.67,6.32c1.32,8.24,2.41,16.52,3.78,24.75,3,17.78,16.38,29.4,34.25,29a54.72,54.72,0,0,0,17-3.49,124.37,124.37,0,0,0,18.82-9.17c4.39-2.52,8.07-2.77,12.6-.26a41.81,41.81,0,0,0,27.5,4.66c12.27-2,23.18-7.14,33.28-14.22C1523.16,1064.48,1524.61,1063.65,1526.51,1062.45Zm-826.11,308,2.05.22c1.34,3.48,2.9,6.89,4,10.45,3.09,10.3,5.69,20.76,9,31,4.17,12.81,8.92,25.43,13.33,38.16,2.44,7.06,4.4,14.22,4.13,21.82a9.58,9.58,0,0,0,.84,4.61c2.93,5.43,2.32,11.33,2.84,17.14,2.14,24.32-5.36,45.84-18.93,65.54-2.12,3.09-4.85,6.31-8.08,8C693,1576,676,1582,657.15,1574.29c-3.42-1.4-6.47-2.88-9-5.6a86.13,86.13,0,0,1-16.47-26c-6.11-14.44-4.27-30.75,7.72-41.51,5.53-5,11.7-9.18,17.26-14.1a76.94,76.94,0,0,0,11-11.7c1.33-1.8,1.55-5.32.79-7.55-1.49-4.33-3.26-8.53-7.19-11.81-5.83-4.88-13.81-6.57-20.46-2.89-14,7.74-25,19.1-36.47,29.9a21.89,21.89,0,0,0-3.84,5.55c-5.42,10-9.85,20.36-11.61,31.6a50.27,50.27,0,0,0-.08,15.39c3.37,21,15.25,38.11,28.08,54,9.21,11.42,21.74,19.62,36.89,22.41,3.1.57,6.07,1.83,9.17,2.32a33.46,33.46,0,0,0,9.35.5c10.26-1.33,20.48-3,30.7-4.59,12-1.89,22.13-7.63,30.8-15.88,17.37-16.56,28-37.33,36.22-59.47.23-.63.28-1.33.47-2,4.64-15.8,5.31-32.12,4.77-48.3-.39-11.81-3.28-23.54-5.08-35.3a10.3,10.3,0,0,0-.64-1.92c-5.85-15.87-11.12-32-17.67-47.54-10.68-25.38-16-52.07-20.87-78.92-1.47-8.19-2-16.57-2.68-24.88a42.78,42.78,0,0,1,.45-7.38c.32-3.76.7-7.51,1-11.27.31-3.53.66-7.05.88-10.58.12-1.75.54-3.78-.13-5.24-2.87-6.23-4.75-13.38-12.72-15.51a7.84,7.84,0,0,1-2.85-1.79c-4.93-4.27-10-3.15-15-.36-2,1.09-3.58,3.15-5.63,3.64-8.31,2-7.72,9.74-9.5,15.35-1.33,4.2.09,9.29.32,14,.39,8.3,1.4,16.61,1.11,24.88-.79,22.27-10,40.86-26.08,56.1-9.52,9-20.06,16.71-31,23.91A102.75,102.75,0,0,1,596.41,1396c-15.39,3.66-31.32-1.85-38.77-14.16-5.21-8.61-10-17.84-12.88-27.42a135.78,135.78,0,0,1-3.44-63.6c1.72-9.53,5-18.77,6.68-28.29a116.57,116.57,0,0,1,12.76-35.91c4.72-8.59,9.67-17.31,16-24.67,7.43-8.6,14.38-17.71,23.18-25.19,5.46-4.63,10.19-10.17,16.68-13.46s13-7.32,20.67-7.8c9.59-.6,19.05.07,27.77,4.33,5.6,2.74,9.91,1.78,13.86-2.64a8.64,8.64,0,0,1,2.43-2.33c5.93-2.64,5.25-7.58,3.54-12a20.9,20.9,0,0,0-6.52-9.1c-5.43-4-11.56-7-17.47-10.21a8.57,8.57,0,0,0-3.9-.82c-5.6-.06-11.22-.33-16.79.1-25.81,2-48.62,10.91-67.06,29.64-3.64,3.7-7,7.73-10.86,11.15a118.69,118.69,0,0,0-26.88,35.28c-4.81,9.39-10.65,18.32-13.83,28.48-3.88,12.45-8.09,24.83-11.13,37.48-2.18,9.1-2.15,18.72-4.09,27.9a82.93,82.93,0,0,0-1.44,26.77c1,8.93,2.37,17.83,3.76,26.72,2.8,17.88,6.39,35.52,16.68,51a42.44,42.44,0,0,0,3.86,5.45c4.13,4.44,8.4,8.74,12.68,13a27.61,27.61,0,0,0,4.56,3.89c4,2.55,8.08,4.94,12.19,7.29a18.73,18.73,0,0,0,4.88,2.2c4.13,1,8.34,1.54,12.48,2.43a64.83,64.83,0,0,0,20.81.73c11.71-1.28,22-6.32,32.64-10.66,18.09-7.39,34.93-16.76,49.18-30.38,1.79-1.71,4-2.91,5.87-4.57,3.64-3.32,7.18-6.75,10.66-10.25C697.05,1374.52,698.67,1372.43,700.4,1370.44ZM1522,1146.19c-38.79,102.92-99.45,189.3-183.32,259s-180,113.25-287.38,132c-.65,6.35-1.24,11.94-1.77,17.54-.13,1.28,0,2.59,0,4.81,5.84-.85,11.12-1.49,16.36-2.41,59-10.46,115.38-29.08,168.61-56.62,123.64-64,218-157.26,280.62-282,8-15.9,14.43-32.56,21.42-48.94.79-1.85,1.4-4.93.45-6.16C1532.57,1157.72,1527.59,1152.51,1522,1146.19ZM1239.41,954.6c3.34,2.13,6-.65,8.88-1.36,4.83-1.2,9.31,1.63,7.91,5.89-2.62,8-2.67,17.8-13.24,21.14-4,1.27-4.51,3.69-2.66,7.51,1,2,2.17,3.88,3.57,6.35-6,4.62-6.89,10.77-5,17.61a9.82,9.82,0,0,1,.11,1.34c.47,3.53-1.07,5.42-4.53,6.29-2.16.53-5,0-6.61,2.72,7.53,0,14.67.4,21.75-.09,11.3-.79,22.5-1.21,33.53,2,.33.09.8-.27,1-.34,2.4-5.25,4.14-10.73,7.19-15.33A135.89,135.89,0,0,1,1306,989.85c2.8-2.94,7.07-4.58,10.87-6.43,3.41-1.66,7.2-2.55,10.62-4.21,7.51-3.63,14.92-7.46,22.3-11.34,8.33-4.39,17.43-6,26.54-7.47a18.09,18.09,0,0,1,8.7.45c12.09,4.48,24,9.43,31.6,20.81.9,1.35,2.27,2.39,4.1,4.28,3-7.72,6.54-14.12,8.13-21.66-2-.44-3.23-.82-4.52-1-15.86-2.31-22.36-9-24.36-25a36.44,36.44,0,0,0-2.11-9.16,19,19,0,0,0-25.45-10.62c.94,8.1,11.71,9.57,12.86,18.9-4.47,0-8.27-.32-12,.07a25.24,25.24,0,0,1-16.76-3.85,30.11,30.11,0,0,0-15.4-4.44,68.83,68.83,0,0,1-29.9-7.47c-8-4.14-16.41-4.38-24.93-1.36s-17,5.95-25.5,8.77C1249.74,932.8,1240.57,943.6,1239.41,954.6ZM793.83,1525c-1.94,7.38-3.73,14.19-5.49,20.86,30.85,13.59,162,27.78,183.54,20.11l-2-20.64A644.72,644.72,0,0,1,793.83,1525ZM584.46,1059.2c-5.28,3.11-5.83,3.28-5,6.12,2,6.31,0,11.82-2,17.67-3.48,10.3.26,22.51,8.16,28.62a9.07,9.07,0,0,0,7.6-6.72,28.65,28.65,0,0,1,8.5-13.53c1.85-1.6,2.75-3.8.87-5.95-3-3.38-2.9-7.32-2.8-11.44.21-8.16-.78-8.85-8.38-6.69a33.38,33.38,0,0,1-3.38.57C586.89,1064.94,585.78,1062.3,584.46,1059.2Zm125,459.21a37.58,37.58,0,0,0,2.69-18.16c-.16-1.53-1.16-3.68-2.4-4.29-7.62-3.73-15.41-7.09-23.3-10.65-2.65,3.13-4.88,5.92-7.26,8.57s-5.08,5.36-7.69,8.1C681.41,1508.67,701.31,1517.3,709.44,1518.41Zm678.14-608.25c3.92.2,6.64.56,7.8-2.37,1.23-3.12.09-5.7-2.53-7.68a28.53,28.53,0,0,0-3.24-2.4c-7.07-3.92-14.09-8-21.33-11.54-2.27-1.12-5.2-1.26-7.81-1.19a4.76,4.76,0,0,0-3.39,2.6c-2.49,6.25.58,10.94,7.12,11.84,2.06.29,4.8,1,5.82,2.52C1374.72,908.81,1381.79,909.56,1387.58,910.16Zm-758.77,98c-7.11,4.41-7.55,7.73-2.17,12.72a29.22,29.22,0,0,0,3.15,2.52c3.58,2.5,6.48,5.2,7,10.09.33,3.42,2.55,4.23,5.92,3.21,5.65-1.7,8.14-7.3,5.68-12.75-.83-1.83-1.72-3.65-2.47-5.52-2.78-6.94-4.94-7.88-12.4-5.35a11.42,11.42,0,0,1-2.07.26Zm717.87-86.48c-.37-4.81-11.53-11.56-16-9.7-3.6,1.48-5,6-2,8.07a54.07,54.07,0,0,0,13.23,6.14C1344.12,927,1346.85,923.88,1346.68,921.69Zm-748.4,531.15-7.94,1C593.36,1457.5,595.45,1457.18,598.28,1452.84Z"/>
    <path d="M551,803.17c.48-1.73,1.44-3.49,1.35-5.19-.32-6.51,0-12.56,5.66-17.2,1.19-1,1.42-3.75,1.3-5.64-.7-10.89-.67-21.64,3.54-32a7.25,7.25,0,0,0-.17-4.59c-1.89-5.62-1.26-11.1.39-16.62a38.67,38.67,0,0,0,1.61-7.23c.1-1.11-.65-3-1.5-3.33a5.4,5.4,0,0,0-4.28.29c-1.46.89-2.43,2.6-3.6,4-5.71,6.66-11.05,13.69-17.23,19.89-7.23,7.27-11.14,15.54-11.7,25.78-1.12,20.27-2.51,40.54-4,60.79-1.26,17.09-7.25,31.94-20.77,43.3-6,5.07-11.49,10.83-17.25,16.24-6.29,5.89-13.07,11.14-21,14.65-2.87,1.28-4.47,3.36-6,6-7.27,12.44-18.33,20.37-31.79,24.77-3.68,1.2-8.06.65-12.07.35-12.82-1-25.62-2.14-38.42-3.38a15.37,15.37,0,0,0-12.38,4.13c-3,2.68-6.16,5.44-9.71,7.26-8,4.09-11,9.92-10.65,19.11,3.23,88.51,23.62,172.68,62.92,252.15A591.89,591.89,0,0,0,475.06,1316a30.49,30.49,0,0,1,7.09,17.77c.7,9.53,2.72,19,4.32,29.33a47.93,47.93,0,0,1-3.91-3.41c-52.28-57.91-92.71-123.13-120.72-196a620.14,620.14,0,0,1-36.44-142.57c-5.54-42.4-7.38-85-4.11-127.67,11.89-155.29,71.81-289.24,181-400.2,89.94-91.44,198.63-149.42,324.43-175.08a621,621,0,0,1,152.79-11.61c85.77,3.91,167.76,23.84,244.84,61.95,157.47,77.88,265.08,200.22,323.72,365.78.61,1.7,1.12,3.43,1.77,5.11,1,2.56.48,4.74-1.06,7-3.06,4.47-6,9-8.87,13.61-6.14,9.77-8.56,20.38-6.23,31.74,2.9,14.17,1.8,28.27.16,42.44-1.48,12.76-2.56,25.57-3.85,38.35-.22,2.18-.62,4.35-1,7.27-2.91-1.06-5.18-1.82-7.39-2.7C1496.3,867,1470.86,865,1445,874.45c-7.62,2.8-15.4,5.16-23.15,7.58a51.27,51.27,0,0,1-9.19,2.14c-9.8,1.13-16.22-2.33-19.93-11.42A17.44,17.44,0,0,0,1382,862.31c-9.91-3.75-19.69-7.86-29.58-11.64-5.35-2-9.48-5.21-11.25-10.84-1.2-3.8.47-6.68,4.38-6.36a21.51,21.51,0,0,0,12.35-2.41,3.85,3.85,0,0,1,2.63-.24c6.63,2,13.78,2.6,19.63,6.91,3.09,2.28,6.47,4.16,9.47,6.53,4.44,3.53,8.82,4.12,13.58.77a26.38,26.38,0,0,1,3.87-1.88c3.67,2.54,6.41,8.32,12.64,4.24-.86-6-4.7-9.93-9.6-12.16-9.81-4.46-19.95-8.23-30-12.23-1.46-.58-3.2-.58-4.52-1.36-3.84-2.27-7.45-2-11.58-.54-2.5.87-5.61.13-8.43-.09-4.67-.37-9.32-1.16-14-1.22-1.34,0-3,1.68-4,2.94-4.52,5.32-8.88,10.76-13.31,16.15a4.08,4.08,0,0,1-5.4,1.26,34,34,0,0,0-3.81-1.4c-7.72-2.46-11.65-.75-15.27,6.71-1.28,2.63-2.27,5.42-3.66,8-2.63,4.88-5.18,5.77-10.63,4.26-3-.84-6.13-2.1-9.16-2-3.24.11-6.44,1.59-9.65,2.48-3.85,1.06-7.66,2.82-11.56,3.08-13.65.93-23.48,7.25-29.36,19.57s-11.57,24.47-17.23,36.76a56.85,56.85,0,0,0-5.08,21.6c-.27,6.77-.63,13.53-.81,20.29-.11,4.13-1.74,6.51-6,7.78-4,1.23-7.79,3.45-11.53,5.48-5.93,3.22-11.68,6.77-17.62,10-4.45,2.37-6.36,4.59-5.54,9.69,2.18,13.67-1.66,25.88-8.22,37.56a26.71,26.71,0,0,0-3.28,13.64,82.37,82.37,0,0,1-3.4,23.16,12.32,12.32,0,0,1-2.54-.14c-8.79-2.89-8.83-3-8.65-12.4.15-8.26,1.77-16.11,6.22-23.23a9.57,9.57,0,0,0,1.38-8.34c-2.16-7.08-1.46-14.3-.23-21.46,2-11.31,1.89-22.62-1.83-33.46-3.79-11-8.6-21.74-13-32.59l-1.53.21a18.89,18.89,0,0,0-.67,3.94c.48,13.51.6,27,3.65,40.35,1.94,8.44.68,17-1.21,25.51-3.63,16.28-7.16,32.59-10.72,48.89-1.49,6.79-1.47,6.81-8.6,8-20.67,3.33-38.56,12.08-53.56,26.82-2.62,2.57-6.1,5-9.57,5.83-18,4.31-26.63,16.53-29.56,33.82-.75,4.43-1.23,8.9-1.92,14-2.53-.81-4.8-1.51-7.07-2.26a23.83,23.83,0,0,0-16.54.08c-14.19,5.46-27,1.74-39.08-6.13a16,16,0,0,1-1.59-1.26c-6.06-4.89-7.91-4.69-12.14,1.25l-28.9-6-3-4.13c.93-5.14,4.72-4.66,9.14-4-3.29-4.58-7-4.61-10-2.54-5.32,3.65-9.24,1.67-13.14-2-6.13-5.7-13.92-7.23-21.74-8.39-1.77-.26-3.81,1.21-5.63,1.85,4.63,8.63,8.82,16.46,13.28,24.79-5,1.89-8.93,3.55-7.65,9.3,1.19,5.33,2,6.27,8.26,7.32-2.24,8.1-4.48,16.23-6.82,24.68a14.75,14.75,0,0,1-2.8-.73c-8.45-3.82-16.67-2.88-24.82,1-4.85,2.29-9.77,4.44-15.06,6.83l-1.95-7.3c-4,.27-7.79.39-11.52.82a5.68,5.68,0,0,0-3.55,1.67c-4.44,5.53-11.07,7-17.23,8.51-7.92,1.94-14.94,5.08-20.76,10.67-2.79,2.68-5.6,3.4-9.12,2-7.76-3-15.68-5.69-23.28-9.07s-7.86-4.74-4.75-12.42a10.88,10.88,0,0,0,.28-2.55c-7.31,0-14.42-.17-21.53.08-2.84.1-4.4,2.17-4.21,5.12.18,2.7.6,5.38.79,8.07.23,3.37.94,6.85.36,10.09-1.27,7.12-.28,13.43,5.26,19.2-6.5,0-12.51-.82-18.17.23-5.86,1.08-11.38,4-17.76,6.32.3.16-.34-.06-.84-.45-5.38-4.14-6.12-4-9.65,1.89-2.1,3.51-4,7.39-8.81,7.5-5.23.12-7.27-4.21-9.14-7.94a23.74,23.74,0,0,1-2.55-9.63c-.26-9.47,0-19,.19-28.44.06-2.6.81-5.18,1.31-8.17,2.59.8,4.53,1.33,6.42,2,8.86,3.12,17.64,2.49,25.34-2.6,7.1-4.68,13.46-10.52,19.91-16.13,1.31-1.14,1.72-3.49,2.17-5.37.36-1.5.09-3.15.21-4.72,1.55-20.38-7.32-34.72-25.27-43.86-3-1.53-6-3.12-8.91-4.85-6.08-3.6-12.21-6.78-19.68-5.69-1.2.18-2.53-.57-4.43-1,.69-9.89,1.82-19.51,7.34-27.8,3.44-5.18,4.7-9.59-.12-14.46-2.35-2.38-1.92-4.85.55-7,.85-.74,1.7-1.49,2.5-2.28,5.06-4.94,5.06-6,1.13-12.07-2.91-4.46-3.87-9.92-7.93-13.92-2.33-2.3-.52-5.81,2.84-6.62a36.66,36.66,0,0,1,4.71-.48c8.38-.88,10.25.81,10.52,9.52,0,1.35-.22,2.81.21,4a16.58,16.58,0,0,0,2.43,3.59c1.28-1,3.12-1.76,3.73-3.09a29.13,29.13,0,0,0,1.81-7.17c.53-3,1.21-5.75,4.73-7.67,1.55,1.15,3.41,2.32,5,3.74,7,6.07,7,6.15.6,12.75-1.94,2-2.84,3.94-.9,6.52,3.11,4.15,6,8.46,9.13,12.6a14.12,14.12,0,0,0,13,5.89,3.48,3.48,0,0,0,2.65-2c-1.21-.13-2.41-.31-3.61-.39a12.41,12.41,0,0,1-11.63-14.35,4.06,4.06,0,0,1,.61-1.89c3.32-4,6.71-7.91,10.31-12.14-2-1.53-4.32-3.26-6.61-5a22.2,22.2,0,0,1-3-2.66c-8.16-9.29-16.79-18.22-24.29-28-12.08-15.8-35-15.09-44.83,2.1-2.4,4.2-5.26,7.34-10,8.23-10.54,2-17.31,8.17-20.94,18.09a11.7,11.7,0,0,1-1.47,2.07c-1.07-1.43-2-2.54-2.79-3.76-1.59-2.46-2.93-5.1-4.67-7.45-2.73-3.66-4.44-3.49-7.29.1a119.76,119.76,0,0,1-9.17,10.77c-1.37,1.37-4.5,2.82-5.62,2.17a9.14,9.14,0,0,1-3.67-5.91c-.43-2.79.48-5.78.75-8.68.37-4.09.64-7.91-3.41-10.91-1.73-1.28-2.6-4.13-3.21-6.43-2.25-8.49-4.17-17.07-6.32-25.58-1.87-7.41-3.91-14.77-5.84-22.16a8.75,8.75,0,0,1,2.26-8.76c5.64-5.75,6.72-12.41,4.63-20-1.56-5.64-2.65-11.41-4-17.12a32.75,32.75,0,0,0-8.35-15.23c-6.34-6.76-5.62-14.13,1.79-19.58,2.54-1.87,5.41-3.29,7.94-5.17.94-.69,2.11-2.33,1.85-3.11-.4-1.22-1.85-2.82-3-2.93A51.85,51.85,0,0,0,537,846.2c-4.78.64-6.86-.27-7.34-5.08a23,23,0,0,1,.66-7.33c1.11-4.83,2.75-9.55,3.78-14.39,1.3-6.14,2.34-12.34,3.23-18.55.38-2.64.74-5,3.82-5.56,2.68-.5,4.19,1,5.28,3.23.77,1.57,1.71,3,2.58,4.56Zm229.6-20.82c5.89-3.75,11.57-7.88,17.7-11.15,7.78-4.14,12.51-10.31,16.32-18.17a290.76,290.76,0,0,1,17.72-31.13,436.52,436.52,0,0,0,43.33-86.26,154.42,154.42,0,0,1,11.24-23.76c9.14-15.83,18.81-31.34,28.39-46.9,4.25-6.91,8.54-13.84,13.33-20.38,4.28-5.84,5.25-12.13,5.19-19.11-.1-11,.2-22.07.8-33.07a18.77,18.77,0,0,1,5.72-12.69c6.17-6,13.08-6.4,18.77.14,4,4.58,8.56,8.6,13,13a46.5,46.5,0,0,1,4.49-1.29c10.26-1.89,17.59,5.41,15.72,15.6-.31,1.71-.6,3.44-1,5.6,4.05.49,6.81,2,8.65,5.72,4.93,9.86,10,19.67,15.7,29.14,8,13.48,14.29,27.58,17.54,43,1.26,5.94,3.13,11.76,4.79,17.61.87,3.1,2.11,6,4.45,7,22.31-5.85,42.56-1.5,63,7.32,3.51-8.37,7.19-16.53,10.37-24.88,2.33-6.13,5.33-11.39,11.64-14.18,3.73-1.64,5.78-4.71,7.11-8.56,2.33-6.69,7-8,13.2-4.43a65.16,65.16,0,0,0,10.43,4.6c4.64,1.68,9.52,2.74,14.1,4.56,5.41,2.15,10.09,1.63,14.38-2.34,4.7-4.35,10.42-6.15,16.67-6.57,4.27-.29,8.55-.49,12.83-.73a18.54,18.54,0,0,1,11.62,2.78c6.56,4.28,13.15,3.79,19.75-.17a77.2,77.2,0,0,1,9.57-5c8.35-3.56,13.27-2.19,19,4.84,1.77,2.19,3.69,4.26,7,8,1.24-2.31,2-3.69,2.73-5.09,2-3.86,5.3-5.67,9.41-7,3.74-1.23,7.13-3.71,10.47-6,3-2,5.62-4.52,8.51-6.68a10,10,0,0,1,9.63-1.63c5.27,1.9,10,5,11.34,10.73,2.64,11.64,12.07,16.73,20.11,23.16,8.76-6.66,17.16-12.65,23-21.53,3-4.66,7.86-7.35,12.89-9.53,10.17-4.4,12.83-2.83,13.91,8.08.45,4.48.67,9,1.5,13.44.93,5,4.35,8.07,8.51,8.18,4.89.12,9.78,0,15.19,0a31.18,31.18,0,0,1-1.14-5c-.26-4-1.34-8.38-.11-11.91,1.68-4.8.61-7.82-2.32-11.51-105.11-132.31-264.34-219.24-442-228.91a611.11,611.11,0,0,0-122.17,5.37c-67.53,9.89-131.93,29.91-192.15,62.09Q446.71,516.42,369.06,758.31a561.43,561.43,0,0,0-23.45,115.83c-1.73,17.5-2.19,35.12-3.15,52.69a83.46,83.46,0,0,0,.47,8.39c5.58-3.7,10.52-5.89,14-9.5,6.54-6.87,14.14-7.86,22.88-6.86,12.32,1.41,24.7,2.37,37.06,3.37a18.62,18.62,0,0,0,7.34-.62c12.06-4.18,22.13-11.12,28.44-22.53,1.84-3.32,3.91-6,7.43-7.45,7.61-3.17,14-8.09,20-13.7,7.06-6.66,14.07-13.38,21.14-20s12.29-14.67,13.54-24.38c1.77-13.62,2.87-27.34,4-41,1-12.36,1.67-24.76,2.68-37.12a31.22,31.22,0,0,1,9.1-19.93c8-8,15.8-16.05,22.08-25.56,2.94-4.46,7.43-6.45,13-4.62,1.49.49,3.14.48,4.63,1,2.88.92,5.19.6,7.13-2s4.63-2.87,6.95-.52c3.48,3.52,7,2.39,10.48.38a37.49,37.49,0,0,0,6.33-5c2.15-2,4-4.31,6.13-6.31,4.39-4.09,7.16-4.23,12-.8.92.65,1.72,1.47,2.65,2.1,4.82,3.28,6.85,2.44,9.1-3.92-4.52-3.13-4.23-7.08-2-11.74a209,209,0,0,1,23.54-37.86,33.12,33.12,0,0,1,5.87-5.59c8-6.38,13.21-5.76,19.47,2.1,1.79,2.25,3.25,5,6.24,5.08,6.81-3,12.06-7.06,16-13.26,3.09-4.92,8.4-5.38,13.93-3.65a36.79,36.79,0,0,0,9.84,1.95c9.79.28,12.05,1.47,15.38,10.87,3.38,9.56,6.39,19.25,9.34,29,1.27,4.17,2.56,8.32,6.17,11,4.77,3.53,6.5,8.49,7.31,14,1.51,10.26,2.77,20.57,4.45,30.8,2.82,17.13,5.89,34.22,8.86,51.32C775.83,777.21,776.42,780.34,780.62,782.35ZM978.15,497.91c-6.9,2.14-11.22-.66-15-5.56a77.8,77.8,0,0,0-8.94-9.22c-3.34-3.12-5.62-3.28-8.8-.23a16.53,16.53,0,0,0-4.31,6.65,39.24,39.24,0,0,0-1.59,10.63c-.24,9.92-.16,19.85-.17,29.78A29.59,29.59,0,0,1,933.82,547c-6,8.75-11.62,17.71-17.18,26.73-7.8,12.67-15.19,25.6-23.14,38.18A139.74,139.74,0,0,0,880,639.84,378.57,378.57,0,0,1,841.52,718a472.41,472.41,0,0,0-27.17,47.52c-.77,1.56-1.41,3.19-2.1,4.76a19.59,19.59,0,0,0,2,2.33c4.11,3.42,4.91,7.17,1.95,11.88a9.19,9.19,0,0,0-1.21,5.8c1,6.63-1.59,11.21-6.8,15.06s-5,4.53-1.11,9.82c8,10.72,18.55,18.2,29.93,24.92,6.88,4.07,12.34,4.93,18.42-1.43,4.14-4.32,7.46-3.75,11.86,0,4.62,4,5.24,7.08,2.48,12.32-.39.76-.71,1.56-1,2.27,7.21,5.78,26.08,11.46,33.93,9.87-5.91-2.31-11.08-4.4-16.31-6.34-6.61-2.47-6.73-2.84-6.55-9.68.12-4.52,2.83-6.82,6.15-9,9-5.94,15.54-13.68,17.26-24.73.48-3.12,2.09-4.84,5.32-5,6.07-.37,9.8-3.91,12.45-9.09,2.25-4.41,4.75-8.69,7.17-13.06L935,785c-.54-8.64-1.06-17.11-1.63-25.58-.09-1.34-.51-2.66-.58-4-.13-2.24.69-4,3.08-4.57s3.9,1,4.5,3.08c.79,2.81,1.34,5.7,1.91,8.57.67,3.43,1.25,6.87,1.81,10,3.8.63,5.48-.67,5.8-3.28a20.49,20.49,0,0,0-.14-6.68c-1.65-7.71-3.39-15.41-5.41-23a32.7,32.7,0,0,1,3.62-26c1.49-2.53,3.31-4.41,6.53-3.44,3,.91,3.24,3.42,3.1,6-.07,1.35-.25,2.7-.34,4-.73,11.54,3.56,22.15,6.37,33,.32,1.23,2.57,2,3.92,2.92.88-1.35,2.3-2.6,2.54-4.06,1.24-7.54,2.27-15.12,3.18-22.71.45-3.79,1.08-7.7.61-11.43-.74-6,.13-11.59,1.63-17.34,2.2-8.5,4.09-17.1,5.62-25.74.57-3.18.76-7.16-.67-9.8a20,20,0,0,1-2.37-12.33C980,635.59,980,619,974.38,602.41c-2.87-8.55-.29-16.9,5.9-23.89A22.1,22.1,0,0,0,985,571.2c1.31-4.07,3.11-8.51-.38-12.86-2.51,1-4.71,2.25-7.08,2.76-2,.44-5.16.89-6.14-.19a8.06,8.06,0,0,1-1.55-6.7,10.67,10.67,0,0,1,4.92-5.87c6.23-3.12,9.35-8.7,13.16-13.6-2.42-3.46-5-2.5-7.75-2-4.34.77-5.85-.86-5-5.18.3-1.54.87-3,1.32-4.54C978.84,515.12,979.16,507.09,978.15,497.91Zm-21.44,386c-4.86-3.61-9.31-3.86-13.79-3.59a21.5,21.5,0,0,1-14.52-4.54c-3.45-2.55-6.82-5.21-10.27-7.75-2.24-1.65-4.56-2.56-7.56-1.7-5.56,1.58-11.12,1-16.69-.53-9.11-2.5-18.24-4.72-26.82-9-4.64-2.32-11.22-1.48-15.1-4.45a110.78,110.78,0,0,0-13.48-8.69c-4.72-2.64-9.5-5.22-14-8.2a77.28,77.28,0,0,1-20.42-19.57c-3.85-5.42-3.45-8,1.48-12.15,1.21-1,2.55-1.87,3.69-3,2.41-2.31,3.84-5.17,3.08-8.53a11.55,11.55,0,0,1,2-10.21c1.49-1.93,1.08-3.86-.55-5.48s-3.56-3.24-5.28-4.8c-1.58.81-2.62,1.25-3.55,1.85-7,4.47-14.07,9-21.11,13.47-3.57,2.27-7.54,4.06-10.66,6.83a27.55,27.55,0,0,1-13,6.66c-16,3.39-31.85,2.63-47.69-.67-6.6-1.37-12.93-1.29-19.16,1.59a35.12,35.12,0,0,1-23.16,2.12c-14.71-3.42-29.34-7.22-44.1-10.36a118.68,118.68,0,0,0-20.1-2.22c-5.5-.2-7,1.77-7.43,7.37a18.18,18.18,0,0,0,0,3.38c1.57,14.12,3.12,28.24,4.85,42.33a9.12,9.12,0,0,0,2.2,4.79c3.31,3.6,6.92,6.93,10.41,10.37,9.51-.77,10.25-.26,16.83,7.12a16,16,0,0,0,7.21,4.43c10.4,3,20.82,4.2,30.59-2.28a5.61,5.61,0,0,1,1.27-.45c6.34-2.14,9.7-1.16,13,4.68,1.89,3.3,4,5.28,8,4.9,2.48-.24,4.5.72,5.32,3.23,2.72,8.36,5.46,16.59,3.94,25.77-1.24,7.53-1.34,15.25-1.76,22.9-.11,2.06.47,4.16.9,7.54,3.94-4.18,4.49-7.85,4.13-11.73-.56-6,.93-11.5,3.62-16.93a22.27,22.27,0,0,0,1.81-9.68c0-5.11-.38-5.28,4.44-6.23a7.67,7.67,0,0,0,6.29-5.22c2.2-5.45,5.12-5.52,8.5-.59,4.89,7.15,9.74,7.92,16.12,2.56,7.21-6,10.26-6.33,17.76-.48,4.5,3.51,9,4.6,14.48,3,4.46-1.33,8.8-.49,13.09,1.61a48.39,48.39,0,0,0,10.75,3.47c5.64,1.25,8.12,3.79,8.71,9.53.19,1.83-.83,4.15,2.53,5.57,1-3,2.16-5.84,2.93-8.77.88-3.41,2.15-6.53,5.52-8.08,7.57-3.48,15.13-7,22.87-10.12a19.81,19.81,0,0,1,13.28-.79c5.77,1.74,7.23,4.34,5.07,10.08-.87,2.32-2.2,4.48-2.93,6.83-.29.91.5,2.15,1,4,2.65-2.78,4.6-4.92,6.66-7,6.43-6.35,6.44-6.33,2-14-.19-.33,0-.86,0-1.65,5.7-5.56,12.46-7.55,20.2-4.44A42,42,0,0,0,910,880.71a53.58,53.58,0,0,1,24.57,3.12A29.65,29.65,0,0,0,956.71,883.94ZM796.61,1055.2c4.54-5.52,2.52-9.66,1.85-13.74-.9-5.52-2.15-11-2.43-16.6-.5-9.73-2.65-18.82-8.79-26.51C779,988,779.67,977.18,784.85,966c.94-2,1.9-4.76,4.62-4.06a8.51,8.51,0,0,1,5,3.88,19.1,19.1,0,0,1,1.47,7.79c.12,4.16.67,8.13,3.29,11.49,1.8,2.29,3.73,4.59,8,3.66.74-5.15,1.64-10.44,2.23-15.77a30.34,30.34,0,0,0-5.25-21.14,40.3,40.3,0,0,1-6.36-14.73c-2.09-11.27-3.17-22.74-4.49-34.16-.64-5.56-2-7.63-7.45-8.68a14.17,14.17,0,0,0-6.67.08c-6.71,2.07-12.27.42-17.66-3.8-5.85-4.58-7.31-4.35-12.93.29-.69.57-1.31,1.24-2,1.79-6.18,4.71-13.74,3.44-18.18-3-.82-1.18-1.9-2.19-3.6-4.12-.55,7.85-6,9.21-10.55,10.52-.56,4.21-.09,8.25-1.68,11.16-3.73,6.83-4.86,13.8-4.81,21.45a16,16,0,0,1-8.38,14.66c-.38-1.35-.68-2.16-.84-3-2.14-11-1.46-22.07.56-33,1.57-8.42-.37-16.14-3.25-23.78a5.37,5.37,0,0,0-3.73-3c-4.85-.31-7.78-2.65-10-6.85-2.3-4.37-4.08-4.82-8.9-3.19-2.34.8-4.59,1.87-6.85,2.89-5.71,2.58-11.5,3.65-17.74,1.85-3.15-.9-6.5-1.09-9.85-1.62-2.18,8.48-2.8,16.09-.32,24,1.16,3.74,1.81,8.17,1,11.89-2.27,10.06.07,18.25,7.61,25.13,1.49,1.37,2.74,3,4.24,4.37,4.82,4.36,7.34,9.54,6.58,16.22-.49,4.22,1.33,7.85,5.14,9.48,5.76,2.46,9,6.4,9.11,12.62,12.64-1.28,14.12.14,13.54,12.48,0,.45-.25.94-.13,1.33.33,1.13.8,2.21,1.37,3.73,3.42-2.94,4.37-6.43,5.24-9.89,1-3.93,1.52-8,2.74-11.85.42-1.35,2.21-3.07,3.49-3.16,1.7-.13,3.72.87,5.2,1.95.94.69.93,2.54,1.72,3.59s2.35,3,3.24,2.8a5.83,5.83,0,0,0,3.78-3.08c.93-2.47,1-5.25,1.44-7.9,1.71-10.67,3.36-21.34,5.17-32a23.88,23.88,0,0,1,1.84-4.74c8.88,2,11.91,5.25,11.59,13.52-.34,8.9.26,17.57,3.23,26,1.72,4.89,3.67,9.72,5.1,14.7,2.31,8,4.75,16,6.24,24.14,1.34,7.38,5.43,11.4,11.87,13.75.67-.73,1.08-1,1.25-1.4a4.74,4.74,0,0,0,.54-1.92c-.16-13.48-1.7-26.63-10.08-37.9a53.24,53.24,0,0,1-9.17-20.89c-2.2-10.24-2.19-20.61-1.87-31A8.15,8.15,0,0,1,740,927c.86-2.2,2.15-4.22,4.85-3.87s3.81,2.16,3.79,4.78c0,1.35,0,2.71,0,4.06,0,6.55,0,13.09,0,19.64.07,7.1.91,7.83,7.34,10.28a21.8,21.8,0,0,1,7.7,5.07,27.89,27.89,0,0,1,7.9,16.17,142.7,142.7,0,0,1,.57,20.16c-.14,4.91.63,9.06,5.34,11.43,6.57,3.3,10,8.91,11.8,15.71,1.51,5.66,2.83,11.38,4.38,17C794.29,1049.63,795.29,1051.75,796.61,1055.2Zm424.32-444.37a14.34,14.34,0,0,0-2.64,1.65c-.77.8-1.18,2-2,2.7-2,1.83-4.81,1.65-5.55-.82-2.26-7.65-6-15.29-1.66-23.5.8-1.52,1.62-3.47,1.36-5-1.29-7.62-7.48-10.84-14.5-7.64-3.93,1.79-7.79,3.8-7.68,9.17,0,1-.77,2.08-1.14,3.14-2.25,6.59-4.56,13.15-6.7,19.77-2.07,6.42-3.66,13-6,19.32-1.65,4.43-2.43,8.51-.62,13.06,2.12,5.34,1.15,10.66-1.1,15.75-1.28,2.88-2.93,5.59-4.23,8.46a62.82,62.82,0,0,0-2,6.06c7.91.1,11,4.53,12.06,11.76,3.44-3.41,5.84-6.4,8.82-8.64,6.92-5.2,12.61-2.66,13.67,5.78a23.27,23.27,0,0,0,1,5.28c.36,1,1.55,1.65,2.39,2.48.68-.75,1.18-1.05,1.22-1.39,1-9.85,5.76-18.34,9.56-27.25a208.19,208.19,0,0,0,9.57-28A26,26,0,0,0,1220.93,610.83Zm14.15,90.46c-6.14-5.43-19.47-6.92-25.27-3.23.16,3.4.69,6.8.39,10.12-.83,9.05-7.46,13.34-16.07,10.77-4.32-1.29-8.71-2.34-13-3.79a70.33,70.33,0,0,1-11.21-4.59c-6.68-3.66-7.66-8.08-3.68-14.48a53,53,0,0,0,3.6-5.71c.56-1.25.89-3.53.21-4.18-1.06-1-3.36-1.8-4.62-1.33a34.27,34.27,0,0,0-8.74,4.84c-1.15.89-1.81,3.15-1.75,4.75.19,5.38.65,10.77,1.36,16.11.21,1.53,1.39,3.88,2.56,4.19,6,1.59,7.72,6.43,9.42,11.41,2.66,7.76,6.09,14.63,15.64,15.66,3,.33,3.94,2.59,3.08,5.55-1.16,4-2.21,8.13-3.43,12.63-5.9.29-7.65,5-8.57,10-1.12,6.18-1.89,12.43-2.61,18.67-.16,1.39.51,2.87.79,4.3,4.34.36,5.44-2.24,6.34-5.2s1.87-5.64,6.37-5.75c2.13,7.68,5.19,15.33,6.19,23.24.91,7.26-.09,14.82-.83,22.19-.4,3.89-3.43,5.09-7.06,3.44a49.61,49.61,0,0,1-5.22-3.12c-8.09-5-8.9-4.84-15,2.48a22.31,22.31,0,0,0-1.67,2.13c-1.21,1.93-.64,3.85,1.22,4.5a8.22,8.22,0,0,0,5.6-.07c2.61-1.19,4.84-3.19,7.14-4.78,8.12.8,12.71,7.27,19.37,12.19.43-6.34.73-11.65,1.19-16.94.21-2.43.74-4.83,1.08-7.25.43-3,1-6.08,1.16-9.13.09-2.23-.59-4.48-.66-6.72-.14-5.1.65-6.35,5.54-7.83,3.55-1.07,7.25-1.65,11.85-2.66-1.62-2.32-2.91-4-4-5.84-2.32-3.66-1-6.44,3.26-6,2.7.24,5.25,2,7.88,3.11,1,.42,2,.81,4,1.62-2-4.72-5-6.54-8.42-7.92-5.64-2.29-11.44-4.23-16.89-6.89a38.09,38.09,0,0,1-9.1-6.69c-.8-.76-.68-3.56.1-4.66a3.49,3.49,0,0,1,5.36-.6c1.53,1.26,3,2.57,4.71,4,2.3-1.49,5.21-1.37,5.53-5.22.77-9.35,2.11-10.17,11.22-8.12a33.22,33.22,0,0,0,3.86,1.15,14,14,0,0,0,3.59-.56c-1-4.17-4.33-3.49-6.66-4.3-3.38-1.18-7.14-1.53-10.26-3.15a138.57,138.57,0,0,1-14.25-9c-1.67-1.14-2.9-2.92-4.9-5,6.75-2,12.4-3.46,17.86-5.43,6.05-2.18,9-7.72,12.52-13.29l9,8.3c.57-1,1-1.43.95-1.72a16.27,16.27,0,0,0-1.16-3.07c-2.31-4.7-2.3-4.67,1.41-8.63C1232.67,704.37,1233.85,702.79,1235.08,701.29ZM1126.32,595l-2.45-.38c-1.25,3-2.48,6-3.76,9-1.69,3.91-2.84,8.23-5.27,11.62-3.85,5.38-3.69,10.06-.43,15.6,4.09,6.94,8.18,13.86,11.11,21.52,3.59,9.39,10.85,16.52,17.62,23.8,1.8,1.94,4.24,2.2,6.11.71,1.36-1.09,2.76-3.37,2.58-4.93-.55-4.63-1.23-9.24-5.15-12.83-4.92-4.49-4.81-6.71-.87-12.15,2.51-3.47,5-7,7.48-10.46,9.81-14,14.56-29.88,17.49-46.47.58-3.25-.54-5.38-3.37-6.5s-5.62-1.61-8.37-2.59c-4.64-1.66-9.22-3.47-13.82-5.24-1.18-.46-2.34-1-3.8-1.6-1.4,3-2.29,5.85-3.88,8.2s-3.88,4.22-5.6,6c2.11,4.95,4.13,9.46,6,14a7.8,7.8,0,0,1-2.2,9.23c-3.31,3-7.21,2-8.27-2.33-.57-2.35-.29-4.92-.46-7.38C1126.8,599.62,1126.54,597.31,1126.32,595ZM943.05,986.16A50.16,50.16,0,0,0,937.3,991a61.64,61.64,0,0,0-15.4,30.36c-1.34,6.93-2.06,13.85,0,20.75.3,1,1.2,1.86,2.29,3.46l.91-3.5c.23-.88.44-1.76.71-2.62,1.38-4.48,2.82-5.56,6.55-5,4.13.67,5.52,2.49,6,6.73.79,7.15,1.68,14.29,2.85,21.39.84,5.11,2.46,10.09,3.21,15.2.5,3.44.09,7,.09,10.84-8.27,1.35-17.71-1.71-22.47,7.74,8.48,9.71,8.48,9.71,14.85,12.07,2.27-3.58,5.26-7.08,6.81-11.13a11,11,0,0,1,6.1-6.61c2.55-1.19,4.9-2.8,7.35-4.24-2-3.22-4.28-5.49-4.89-8.14a147,147,0,0,1-2.81-18.7c-.23-2.34.78-4.81,1.23-7.22,1.1-5.81,3.18-11.64,3-17.42A28.81,28.81,0,0,1,959,1017.3a49.16,49.16,0,0,0,4.27-6.88c3.13-6.71-.55-17-6.55-19.11C952.54,989.83,948.39,988.18,943.05,986.16Zm491.7-321.56c7.35-6.74,15-12.35,20.77-19.43s10.1-15.91,15.07-24c-11-17.54-21.77-34.56-34.91-50.6-3.23,7.09-.94,14.8,4.85,17.36,2.79,1.24,4.6,2.47,4.67,5.74a6.24,6.24,0,0,0,1.44,3.62c3.52,4.12,3.17,8.7,2,13.45-1.33,5.24-2.91,10.43-4,15.72-2.23,11.15-7.58,20.35-17.05,26.64-6.93,4.6-14.34,8.45-21.58,12.57-1.7,1-4,1.18-3.78,4.75a45.34,45.34,0,0,0,6.25,2.65c10,2.68,20.16,1.38,30.24.06,2.35-.31,4.17-1.55,4.11-4.69Zm-722,28.89A30.41,30.41,0,0,0,716.7,691c7.45-7,9.56-15.73,7.07-25.34-2.31-8.88-4.37-17.54.47-26.21a3.74,3.74,0,0,0,.26-1.32c.52-3.76-.24-4.78-3.94-5.54-2.63-.55-5.28-1.06-7.85-1.82-4.94-1.47-6.62-1-9.8,3.2-2.43,3.23-4.65,6.63-7.2,9.76-3.38,4.16-3.72,6.94-1,11.6,1.72,2.9,3.74,5.68,5,8.76,3,7,5.55,14.26,8.49,21.32A83.32,83.32,0,0,0,712.78,693.49Zm569.05-107.92c.28,5,.33,10,.86,14.88,1,8.72,2.2,17.41,3.34,26.11a51.59,51.59,0,0,0,1.24,8c.36,1.2,2,2.05,3,3.06,1-1.1,2.64-2.11,2.77-3.3a87.86,87.86,0,0,0,.19-10.77c-.12-8.3.64-9.73,8.18-12.71,9.56-3.79,15.74-10.58,17.52-20.63,1.73-9.71,2.61-19.56,3.81-29.35,0-.32-.46-.72-1.22-1.82-2,.9-4.28,1.58-6.15,2.88-2.94,2.06-5.48,4.69-8.39,6.8s-3.59,4.5-3.49,8.06c.18,6.48-.48,13-.84,19.49-.11,2.08-.43,4.16-2.91,4.76-2.67.65-4.46-.92-5.45-3-1.33-2.81-2.16-5.86-3.24-8.8-.79-2.16-1.64-4.3-2.61-6.85ZM743.42,1138c8.74-2.21,10.26-4.88,9.72-12.48a150.22,150.22,0,0,1,.1-22.25c.19-2.53,2.15-5.54,4.21-7.19,3.3-2.63,7.29-4.45,11.11-6.37,4.1-2.07,8.56-3.18,13.09-2,3.25.82,5.8,1,8.68-1.39s4.65-1.4,6.16,2.1a37,37,0,0,1,1.49,5.17c1,3.88,2.07,7.76,3.23,12.16l7.59-1c-3.16-10.86-7.2-20-15.8-26.87-6.22-5-12.4-6.63-20-4a26.61,26.61,0,0,1-11.2,1.41,15.37,15.37,0,0,0-11.88,3.44c0,4.85.11,9.58,0,14.3-.22,7.37.68,14.91-3.19,21.8a5.29,5.29,0,0,0-.4,3.93c2.15,5.86.52,11-2.34,16.12C743.54,1135.47,743.65,1136.42,743.42,1138Zm218.76-316.3c-1.71,10.57-3.28,20.21-4.94,30.47,6.77.08,12.81-.16,18.5-2.36,11.18-4.34,15.73-14.78,11.43-26.08a11.53,11.53,0,0,1,1.18-10.9c1.18-1.91,2.39-3.81,3.46-5.79a3.51,3.51,0,0,0-1.53-5.17,6.76,6.76,0,0,0-4.83,0c-1.36.52-2.45,2-3.47,3.13C976.11,811.89,970.18,818.68,962.18,821.69ZM601.83,758.18c.73-.78,1.54-1.24,1.58-1.75.63-8,4.79-14.4,9.12-20.77a20.29,20.29,0,0,0,3.67-12.75c-.38-7-.33-14,4.62-19.74-1.34-1.93-2.26-3.47-3.39-4.84-2.73-3.32-4.15-3.49-7.15-.64s-5.74,6.46-9.13,9-7.7,4.36-11.58,6.48C589,724.45,595.33,748.22,601.83,758.18Zm70.74-117.73c-4-5-5.51-5.3-10.55-1.32a28.61,28.61,0,0,0-6.18,6.2C649.37,655.1,643.1,665,636.93,675c-1.49,2.4-2.28,5.22-3.57,8.26l7.79,1.78-6.62,13c2.42-.57,3.83-.47,4.31-1.09a17.84,17.84,0,0,0,3-5.23c1.63-4.88,4.09-8.89,8.83-11.45a7.93,7.93,0,0,0,3.75-4.55c1.4-6.71,5.64-10.47,11.61-13,4-1.7,5.33-5,5.3-9.28C671.26,649.41,672,645.43,672.57,640.45Zm693.87-24.9,2.22.52a24.1,24.1,0,0,0,2.42-4.41c.59-1.91.5-4,1-6,1.29-5.27,4.6-7,9.59-5a45.43,45.43,0,0,1,5.21,3.09c1.29.74,2.64,1.38,5,2.58.37-2.9.92-5,.83-7.07a37.19,37.19,0,0,0-1.22-7.32c-2-7.85-.53-14.6,5.51-20.37,3.83-3.65,3.71-5.32.52-10.66-6.81,1.56-12.13,5.4-16.43,10.88-2.78,3.54-5.28,7.46-8.67,10.31-3.81,3.19-5.35,7-5.84,11.58A132.87,132.87,0,0,0,1366.44,615.55ZM630.05,868.47c-5.38-7.71-6.71-8.07-16.37-4.9-3.54,12.38.35,27.35,8.78,33.07,2.49-4.47,3.08-9.35,3.11-14.26C625.6,877.31,626.3,872.55,630.05,868.47ZM1100.59,630.2l.59-1.65c-11.76-9.52-26.32-9.13-40.34-10.55-3.56-.36-7.41-1.06-11,2.55,1.08.67,1.61,1.09,2.2,1.36,5.94,2.65,11.92,5.23,17.84,8,3.44,1.58,6.74,2,10.36.37a21.39,21.39,0,0,1,14.51-.76A42.27,42.27,0,0,0,1100.59,630.2Zm-31.9,239.06c0-3.23.54-6.5-3.52-7.91-3.16-1.1-6,0-8.46,3.81a64.49,64.49,0,0,0-4.3,8.4c-5,11-4.81,11.4,6.85,14.11,4.55,1.06,5.7.68,6.84-3.83C1067.32,879.07,1067.85,874.13,1068.69,869.26ZM994.74,638c-7.38,6.14-6.88,14.48-9,22a12.65,12.65,0,0,0,12.28-1.52c2.83-1.91,4.49-4.65,3.65-8.1A23.22,23.22,0,0,0,994.74,638ZM620,949.44c.44-5.22,1-10.22,1.17-15.23,0-1.54-.75-3.86-1.91-4.53-4.16-2.4-8.45-4.79-13.09-5.11,2.12,7.23,4.08,14.22,6.24,21.14C613.66,949.79,615.39,950.43,620,949.44ZM1193.6,854c-2.6,1.14-4.64,1.44-5.52,2.61a5.76,5.76,0,0,0-.52,4.76c.41,1.13,2.8,2.68,3.42,2.35a7,7,0,0,0,2.81-3.86C1194.21,858.49,1193.74,856.85,1193.6,854Z"/>
    <path d="M1526.51,1062.45c-1.9,1.2-3.35,2-4.71,3-10.1,7.08-21,12.26-33.28,14.22A41.81,41.81,0,0,1,1461,1075c-4.53-2.51-8.21-2.26-12.6.26a124.37,124.37,0,0,1-18.82,9.17,54.72,54.72,0,0,1-17,3.49c-17.87.43-31.29-11.19-34.25-29-1.37-8.23-2.46-16.51-3.78-24.75a61.17,61.17,0,0,0-1.67-6.32c-5.58.92-9.87,2.9-13,6.57s-5.67,7.55-8.38,11.42a6.1,6.1,0,0,0-1.21,3.1c-.19,6-.2,12-.3,18-.25,15.59-3.7,30.47-11.14,44.16-6.06,11.14-13.61,21-24.14,28.75-6.3,4.66-13.16,6.38-20.05,8.78-2.7.93-5.55,1.42-8.69,2.2-3.45-4.52-9.34-5.17-14.42-7.38-2.22-1-3.89,0-5,2.14-6.17,11.57-15.78,20.24-25.25,28.86-12.13,11-26.55,15.68-43,12.69-2.2-.4-4.5-.25-6.73-.55-9.62-1.28-17.57-5.44-23.14-13.63-.61-.89-1.36-1.69-2-2.43-3.06.31-2.9,2.68-3.67,4.46-11.53,26.71-29.4,47.25-56.88,58.42-10.57,4.29-21.68,6-33,7-5.39.49-5.61.68-6.09,6-1.22,13.71-1.86,27.48-3.65,41.11-2.57,19.67-6.17,39.2-8.94,58.85-4.13,29.25-7.87,58.55-11.87,87.82-1.07,7.81-2.72,15.54-3.67,23.36-1.07,8.72-1.51,17.51-2.46,26.24-2.06,19-4.29,38.09-6.41,57.13-.4,3.58-.55,7.2-.89,10.79-.78,8.42-4.75,12.54-13,13.83a54.54,54.54,0,0,0-7.82,2c-4.47,1.42-7.84.43-10.52-3.44a16.83,16.83,0,0,1-2.66-11.63c3.57-36.59,7-73.19,10.82-109.76,2.11-20.41,4.69-40.78,7.19-61.15,2.26-18.34,4.18-36.76,7.19-55,4.35-26.29,7-52.75,9.33-79.25.31-3.46.78-6.91,1.3-11.42-4,1.83-6.7,3.68-9.61,4.18s-6.1-.35-10.06-.69c.78,2.87,1.48,5.14,2,7.45,1,4.38,2.34,8.75,2.73,13.19.88,10.16-3,18.6-10.79,25.06-8.08,6.66-17.08,12.33-27.06,15-12,3.21-24.43,4.9-35.82-3-8.17-5.69-12-13.78-9.49-23.4a134.6,134.6,0,0,1,7.59-20.87c2.62-5.87,8.77-7.51,14.28-9.27,3.29-1,6.55,1,8,4.7,1.28,3.09,1.84,6.48,2.71,9.73.62,2.29,1.23,4.59,1.85,6.88,8.17-2.37,10.44-6.6,7.37-13.11a37.2,37.2,0,0,0-4.73-7.38c-7.4-9.11-14.94-18.1-22.44-27.13a15.64,15.64,0,0,0-1.81-2c-3.4-2.9-6.52-2-7.3,2.45-1.09,6.22-1.69,12.52-2.68,18.75a254.71,254.71,0,0,1-11.91,47.83c-5.7,15.62-15.76,27.67-28.69,37.69a38,38,0,0,1-27.26,8c-3.66-.31-7.31-2-10.72-3.64-5.82-2.73-7.93-2.55-12.76,1.74-5.4,4.78-10.63,9.8-16.39,14.11-15.53,11.66-33.18,15.62-51.83,10.65-13.34-3.55-23.34-12.33-28.62-25.67-5.39-13.62-5.31-27.36-.62-41a229.37,229.37,0,0,1,20.83-44.69c2.31-3.82,5.45-7.15,8.41-10.53,2.07-2.37,4.89-4.16,6.66-6.71,7.27-10.46,18.19-14.55,29.85-16.63,6.44-1.14,13.41-2,19.7,1.67,2.65,1.56,4.53.11,6.74-1.28,5.31-3.34,10.81-6.39,16.27-9.49,3.28-1.87,6.35-1.13,9.61.53,7.92,4.06,12.79,10.18,12.57,19.23s-1.21,18-1.86,26.95c-.23,3.15-.34,6.31-.7,9.44a129.7,129.7,0,0,1-2,14.63c-1.06,4.57-1.52,8.74,1,13,1.18,2,1.42,4.58,2.21,7.33,8-2.71,12.65-8.47,14.9-15.57,2.56-8.1,3.79-16.63,5.63-25,.82-3.73,1.45-7.53,2.62-11.14,3.45-10.63,4.48-21.49,4.2-32.63a68.52,68.52,0,0,0-3.82-21.79c-3.8-10.68-1.91-15.42,7.12-22.21.36-.27.73-.53,1.1-.79,4.49-3.11,8.31-7.2,15-4.78,5.3,1.92,10.67,2.85,14.66,7.59a37.44,37.44,0,0,0,10,7.92c22.64,13,39.36,31.94,54.11,53,1.38,2,2.73,4,4.93,7.14,2.16-5.54,4.5-9.68,5.37-14.11,2.24-11.39,8.85-20.56,14.38-30.29,3.45-6.07,7.58-11.8,10.51-18.1,1.84-4,2.38-8.63,2.85-13.06.53-4.92.17-9.93.48-14.88a56.2,56.2,0,0,1,1.46-10c2-8.17,6.6-12,15-11.71,5.12.17,8.34-1.69,11.42-5.56,11.42-14.33,26.33-23,44.31-26.53,16.6-3.24,31.11,2.81,40.27,17,3.65,5.67,7.08,11.48,11.09,18a32.84,32.84,0,0,0,3.4-4.4c5.23-10.24,9.89-20.8,15.62-30.74,11.87-20.6,29.81-33.51,52.85-39.09,4.53-1.09,9.4-.85,14.13-1,5.63-.21,11.28-.08,16.91-.34,11.44-.54,19.09,4.67,22.15,15.66a48.58,48.58,0,0,1,1.48,10c.48,7.66.61,15.34,1.12,23,.16,2.36,1.09,4.66,1.71,7.18,8.94-1.76,13.17-7,15.17-15,3-11.74,3-23.67,2.72-35.6-.17-6.65,1.72-13.42-1.25-20-.75-1.68.06-4.6,1.1-6.4a81.3,81.3,0,0,1,7.13-9.77c1.93-2.42,4.11-4.65,6.64-7.48,3.71,1.67,6.76-.86,10.06-3.3,2.5-1.85,5.51-3,8.31-4.45,5-2.58,10-5.14,15-7.74,1.8-.94,3.49-2.07,5.31-3,11.76-5.81,23.45-5.69,33.08,3.5,9.11,8.7,15.11,19.6,15.71,32.78.3,6.54.81,13.06,1.38,19.58.48,5.6,2.58,7.18,8.07,5.73,5.22-1.38,10.29-3.33,15.47-4.86,3.12-.92,4.05-2.77,4.12-6,.21-10.58.34-21.19,1.3-31.72a80.18,80.18,0,0,1,17.56-44,174.81,174.81,0,0,1,19.7-20.2c4.11-3.66,9.4-6.05,14.31-8.74,5.13-2.8,10.44-5.29,15.68-7.9,8.14-4,16.72-3.43,25.18-1.85,11.33,2.1,11,2.29,13.47-8.46,5.37-23.58,7.73-47.51,9.07-71.59.25-4.49.84-9,1.5-13.44a118.73,118.73,0,0,0-1.09-42.4,19.46,19.46,0,0,1,2.76-15c2.83-4.36,4.52-9.88,10.73-11.27,1.53-.35,2.72-2.24,3.88-3.27,3.34.89,6.5,1.65,9.6,2.61a10,10,0,0,1,3.48,1.91c8.13,7.18,13.47,15.93,13.39,27-.07,9.23-.84,18.45-1.47,27.67-.61,9-1.29,18-2.21,27-1.6,15.63-3.42,31.24-5.11,46.87-1.14,10.51-1.93,21.06-3.39,31.52-1.08,7.74-3.18,15.33-4.52,23.05-1.86,10.65-3.74,21.32-5.06,32.06-2.06,16.76-4,33.56-5.3,50.39-.73,9.38,0,18.86-.11,28.29,0,3.14-.73,6.29-.65,9.42.22,9.69-.15,19.5,1.33,29a24.54,24.54,0,0,0,9.11,15.2,50.42,50.42,0,0,1,9.75,10.15c2.8,4,3.76,8.58.81,13.33a12.66,12.66,0,0,0-1.46,5.78c-.45,6.85-5.39,13.5-11.85,12.67-11-1.4-22.6-2.35-31.22-10.77-8.88-8.68-14.77-19.34-18.71-31a135.17,135.17,0,0,1-5.17-18.9c-.83-4.54-.37-9.35-.31-14C1526,1074.49,1526.28,1069.17,1526.51,1062.45Zm-395.68,89.48c0-8.39-3.61-18.59-8.24-24.4-3.3-4.15-7.47-5.09-12.52-3-5.65,2.35-10,5.78-14.25,10.54-6.24,6.93-10.12,14.75-14.16,22.76-2.54,5-5.5,9.82-8,14.83a24.86,24.86,0,0,0-2.57,7.51c-.8,5.8-1.11,11.66-1.67,17.5-.64,6.73.11,7.47,6.83,6.86,23.4-2.13,46.85-21.37,54-47.73A27.49,27.49,0,0,0,1130.83,1151.93ZM793.1,1318.43a14.24,14.24,0,0,0,4.52-1.18c8.67-4.85,17.25-9.87,22.78-18.62,4.3-6.8,8.32-13.42,10.74-21.5a151,151,0,0,0,5-24.31,7.37,7.37,0,0,0-4.44-8.24c-2-1-4.52-1.44-6-2.91-3.62-3.5-7.56-3-11.23-1.07a33,33,0,0,0-9.1,6.74c-12.64,13.77-20.26,30.24-24.79,48.2a24,24,0,0,0-.73,10C781.31,1313.32,784.63,1319.21,793.1,1318.43Zm685.48-291.25c0,2.71-.1,5.41,0,8.11.34,7.48,3,9.28,9.91,6.75a24.53,24.53,0,0,0,2.49-1,59.41,59.41,0,0,0,27-27.2c6.53-13.28,11.17-27.48,16.6-41.3a17.77,17.77,0,0,0,.81-3.27c.58-3.19-.68-5.27-3.88-6-5.15-1.18-10.25-1.45-15.12,1.15A76,76,0,0,0,1485.71,994C1480,1004.05,1478,1015.48,1478.58,1027.18Zm-235.78,55.91c-8.28,0-13.36,2.82-17.67,7-15.16,14.77-23.82,33.15-28.82,53.37-1.59,6.39,1.79,10,8.36,9.84a16.41,16.41,0,0,0,5.87-1.38c7.62-3.31,14-8.26,18.22-15.53q4.93-8.46,9.49-17.15c4.77-9.09,7.22-18.92,8.7-29C1247.71,1085.05,1245.94,1083.12,1242.8,1083.09Z"/>
    <path d="M700.4,1370.44c-1.73,2-3.35,4.08-5.21,5.94-3.48,3.5-7,6.93-10.66,10.25-1.83,1.66-4.08,2.86-5.87,4.57-14.25,13.62-31.09,23-49.18,30.38-10.62,4.34-20.93,9.38-32.64,10.66a64.83,64.83,0,0,1-20.81-.73c-4.14-.89-8.35-1.47-12.48-2.43a18.73,18.73,0,0,1-4.88-2.2c-4.11-2.35-8.2-4.74-12.19-7.29a27.61,27.61,0,0,1-4.56-3.89c-4.28-4.3-8.55-8.6-12.68-13a42.44,42.44,0,0,1-3.86-5.45c-10.29-15.43-13.88-33.07-16.68-51-1.39-8.89-2.73-17.79-3.76-26.72a82.93,82.93,0,0,1,1.44-26.77c1.94-9.18,1.91-18.8,4.09-27.9,3-12.65,7.25-25,11.13-37.48,3.18-10.16,9-19.09,13.83-28.48a118.69,118.69,0,0,1,26.88-35.28c3.88-3.42,7.22-7.45,10.86-11.15,18.44-18.73,41.25-27.66,67.06-29.64,5.57-.43,11.19-.16,16.79-.1a8.57,8.57,0,0,1,3.9.82c5.91,3.26,12,6.26,17.47,10.21a20.9,20.9,0,0,1,6.52,9.1c1.71,4.43,2.39,9.37-3.54,12a8.64,8.64,0,0,0-2.43,2.33c-4,4.42-8.26,5.38-13.86,2.64-8.72-4.26-18.18-4.93-27.77-4.33-7.7.48-14.08,4.47-20.67,7.8s-11.22,8.83-16.68,13.46c-8.8,7.48-15.75,16.59-23.18,25.19-6.35,7.36-11.3,16.08-16,24.67A116.57,116.57,0,0,0,548,1262.55c-1.71,9.52-5,18.76-6.68,28.29a135.78,135.78,0,0,0,3.44,63.6c2.87,9.58,7.67,18.81,12.88,27.42,7.45,12.31,23.38,17.82,38.77,14.16a102.75,102.75,0,0,0,32.67-14.26c11-7.2,21.52-14.88,31-23.91,16.06-15.24,25.29-33.83,26.08-56.1.29-8.27-.72-16.58-1.11-24.88-.23-4.69-1.65-9.78-.32-14,1.78-5.61,1.19-13.35,9.5-15.35,2.05-.49,3.67-2.55,5.63-3.64,5-2.79,10.11-3.91,15,.36a7.84,7.84,0,0,0,2.85,1.79c8,2.13,9.85,9.28,12.72,15.51.67,1.46.25,3.49.13,5.24-.22,3.53-.57,7-.88,10.58-.34,3.76-.72,7.51-1,11.27a42.78,42.78,0,0,0-.45,7.38c.73,8.31,1.21,16.69,2.68,24.88,4.83,26.85,10.19,53.54,20.87,78.92,6.55,15.57,11.82,31.67,17.67,47.54a10.3,10.3,0,0,1,.64,1.92c1.8,11.76,4.69,23.49,5.08,35.3.54,16.18-.13,32.5-4.77,48.3-.19.64-.24,1.34-.47,2-8.27,22.14-18.85,42.91-36.22,59.47-8.67,8.25-18.79,14-30.8,15.88-10.22,1.6-20.44,3.26-30.7,4.59a33.46,33.46,0,0,1-9.35-.5c-3.1-.49-6.07-1.75-9.17-2.32-15.15-2.79-27.68-11-36.89-22.41-12.83-15.92-24.71-33-28.08-54a50.27,50.27,0,0,1,.08-15.39c1.76-11.24,6.19-21.65,11.61-31.6a21.89,21.89,0,0,1,3.84-5.55c11.47-10.8,22.5-22.16,36.47-29.9,6.65-3.68,14.63-2,20.46,2.89,3.93,3.28,5.7,7.48,7.19,11.81.76,2.23.54,5.75-.79,7.55a76.94,76.94,0,0,1-11,11.7c-5.56,4.92-11.73,9.15-17.26,14.1-12,10.76-13.83,27.07-7.72,41.51a86.13,86.13,0,0,0,16.47,26c2.56,2.72,5.61,4.2,9,5.6C676,1582,693,1576,709.56,1567.35c3.23-1.68,6-4.9,8.08-8,13.57-19.7,21.07-41.22,18.93-65.54-.52-5.81.09-11.71-2.84-17.14a9.58,9.58,0,0,1-.84-4.61c.27-7.6-1.69-14.76-4.13-21.82-4.41-12.73-9.16-25.35-13.33-38.16-3.33-10.22-5.93-20.68-9-31-1.06-3.56-2.62-7-4-10.45Z"/>
    <path d="M1522,1146.19c5.6,6.32,10.58,11.53,15,17.19,1,1.23.34,4.31-.45,6.16-7,16.38-13.44,33-21.42,48.94-62.6,124.73-157,218-280.62,282-53.23,27.54-109.59,46.16-168.61,56.62-5.24.92-10.52,1.56-16.36,2.41,0-2.22-.11-3.53,0-4.81.53-5.6,1.12-11.19,1.77-17.54,107.38-18.74,203.48-62.3,287.38-132S1483.2,1249.11,1522,1146.19Z"/>
    <path d="M1239.41,954.6c1.16-11,10.33-21.8,21.37-25.47,8.53-2.82,17-5.77,25.5-8.77s17-2.78,24.93,1.36a68.83,68.83,0,0,0,29.9,7.47,30.11,30.11,0,0,1,15.4,4.44,25.24,25.24,0,0,0,16.76,3.85c3.72-.39,7.52-.07,12-.07-1.15-9.33-11.92-10.8-12.85-18.9a19,19,0,0,1,25.44,10.62,36.44,36.44,0,0,1,2.11,9.16c2,15.94,8.5,22.67,24.36,25,1.29.19,2.56.57,4.52,1-1.59,7.54-5.11,13.94-8.13,21.66-1.83-1.89-3.2-2.93-4.1-4.28-7.62-11.38-19.51-16.33-31.6-20.81a18.09,18.09,0,0,0-8.7-.45c-9.11,1.45-18.21,3.08-26.54,7.47-7.38,3.88-14.79,7.71-22.3,11.34-3.42,1.66-7.21,2.55-10.62,4.21-3.8,1.85-8.07,3.49-10.87,6.43a135.89,135.89,0,0,0-14.72,18.49c-3,4.6-4.79,10.08-7.19,15.33-.18.07-.65.43-1,.34-11-3.22-22.23-2.8-33.53-2-7.08.49-14.22.09-21.75.09,1.64-2.75,4.45-2.19,6.61-2.72,3.46-.87,5-2.76,4.53-6.29a9.82,9.82,0,0,0-.11-1.34c-1.86-6.84-1-13,5-17.61-1.4-2.47-2.61-4.35-3.57-6.35-1.85-3.82-1.34-6.24,2.66-7.51,10.57-3.34,10.62-13.17,13.24-21.14,1.4-4.26-3.08-7.09-7.91-5.89C1245.39,954,1242.75,956.73,1239.41,954.6Z"/>
    <path d="M793.83,1525a644.72,644.72,0,0,0,176,20.33l2,20.64c-21.56,7.67-152.69-6.52-183.54-20.11C790.1,1539.21,791.89,1532.4,793.83,1525Z"/>
    <path d="M584.46,1059.2c1.32,3.1,2.43,5.74,3.66,8.65a33.38,33.38,0,0,0,3.38-.57c7.6-2.16,8.59-1.47,8.38,6.69-.1,4.12-.17,8.06,2.8,11.44,1.88,2.15,1,4.35-.87,5.95a28.65,28.65,0,0,0-8.5,13.53,9.07,9.07,0,0,1-7.6,6.72c-7.9-6.11-11.64-18.32-8.16-28.62,2-5.85,3.9-11.36,2-17.67C578.63,1062.48,579.18,1062.31,584.46,1059.2Z"/>
    <path d="M709.44,1518.41c-8.13-1.11-28-9.74-38-16.43,2.61-2.74,5.22-5.36,7.69-8.1s4.61-5.44,7.26-8.57c7.89,3.56,15.68,6.92,23.3,10.65,1.24.61,2.24,2.76,2.4,4.29A37.58,37.58,0,0,1,709.44,1518.41Z"/>
    <path d="M1387.58,910.16c-5.79-.6-12.86-1.35-17.56-8.22-1-1.49-3.76-2.23-5.82-2.52-6.54-.9-9.61-5.59-7.12-11.84a4.76,4.76,0,0,1,3.39-2.6c2.61-.07,5.54.07,7.81,1.19,7.24,3.57,14.26,7.62,21.33,11.54a28.53,28.53,0,0,1,3.24,2.4c2.62,2,3.76,4.56,2.53,7.68C1394.22,910.72,1391.5,910.36,1387.58,910.16Z"/>
    <path d="M628.81,1008.17l2.61,5.18a11.42,11.42,0,0,0,2.07-.26c7.46-2.53,9.62-1.59,12.4,5.35.75,1.87,1.64,3.69,2.47,5.52,2.46,5.45,0,11-5.68,12.75-3.37,1-5.59.21-5.92-3.21-.49-4.89-3.39-7.59-7-10.09a29.22,29.22,0,0,1-3.15-2.52C621.26,1015.9,621.7,1012.58,628.81,1008.17Z"/>
    <path d="M1346.68,921.69c.17,2.19-2.56,5.27-4.8,4.51a54.07,54.07,0,0,1-13.23-6.14c-3.05-2.1-1.61-6.59,2-8.07C1335.15,910.13,1346.31,916.88,1346.68,921.69Z"/>
    <path d="M598.28,1452.84c-2.83,4.34-4.92,4.66-7.94,1Z"/>
    <path class="b01cccdb-5e16-413e-9b97-0ee142ba6c14" d="M780.62,782.35c-4.2-2-4.79-5.14-5.34-8.28-3-17.1-6-34.19-8.86-51.32-1.68-10.23-2.94-20.54-4.45-30.8-.81-5.49-2.54-10.45-7.31-14-3.61-2.67-4.9-6.82-6.17-11-3-9.7-6-19.39-9.34-29-3.33-9.4-5.59-10.59-15.38-10.87a36.79,36.79,0,0,1-9.84-1.95c-5.53-1.73-10.84-1.27-13.93,3.65-3.9,6.2-9.15,10.21-16,13.26-3-.1-4.45-2.83-6.24-5.08-6.26-7.86-11.51-8.48-19.47-2.1a33.12,33.12,0,0,0-5.87,5.59,209,209,0,0,0-23.54,37.86c-2.2,4.66-2.49,8.61,2,11.74-2.25,6.36-4.28,7.2-9.1,3.92-.93-.63-1.73-1.45-2.65-2.1-4.81-3.43-7.58-3.29-12,.8-2.15,2-4,4.33-6.13,6.31a37.49,37.49,0,0,1-6.33,5c-3.44,2-7,3.14-10.48-.38-2.32-2.35-5-2.17-6.95.52s-4.25,2.95-7.13,2c-1.49-.48-3.14-.47-4.63-1-5.56-1.83-10.05.16-13,4.62-6.28,9.51-14.13,17.54-22.08,25.56a31.22,31.22,0,0,0-9.1,19.93c-1,12.36-1.64,24.76-2.68,37.12-1.16,13.69-2.26,27.41-4,41-1.25,9.71-6.4,17.69-13.54,24.38s-14.08,13.35-21.14,20c-5.94,5.61-12.37,10.53-20,13.7-3.52,1.46-5.59,4.13-7.43,7.45-6.31,11.41-16.38,18.35-28.44,22.53a18.62,18.62,0,0,1-7.34.62c-12.36-1-24.74-2-37.06-3.37-8.74-1-16.34,0-22.88,6.86-3.44,3.61-8.38,5.8-14,9.5a83.46,83.46,0,0,1-.47-8.39c1-17.57,1.42-35.19,3.15-52.69a561.43,561.43,0,0,1,23.45-115.83q77.26-241.93,301.38-361.46c60.22-32.18,124.62-52.2,192.15-62.09a611.11,611.11,0,0,1,122.17-5.37c177.69,9.67,336.92,96.6,442,228.91,2.93,3.69,4,6.71,2.32,11.51-1.23,3.53-.15,7.92.11,11.91a31.18,31.18,0,0,0,1.14,5c-5.41,0-10.3.09-15.19,0-4.16-.11-7.58-3.21-8.51-8.18-.83-4.42-1.05-9-1.5-13.44-1.08-10.91-3.74-12.48-13.91-8.08-5,2.18-9.85,4.87-12.89,9.53-5.81,8.88-14.21,14.87-23,21.53-8-6.43-17.47-11.52-20.11-23.16-1.31-5.73-6.07-8.83-11.34-10.73a10,10,0,0,0-9.63,1.63c-2.89,2.16-5.53,4.67-8.51,6.68-3.34,2.24-6.73,4.72-10.47,6-4.11,1.36-7.39,3.17-9.41,7-.73,1.4-1.49,2.78-2.73,5.09-3.3-3.78-5.22-5.85-7-8-5.7-7-10.62-8.4-19-4.84a77.2,77.2,0,0,0-9.57,5c-6.6,4-13.19,4.45-19.75.17a18.54,18.54,0,0,0-11.62-2.78c-4.28.24-8.56.44-12.83.73-6.25.42-12,2.22-16.67,6.57-4.29,4-9,4.49-14.38,2.34-4.58-1.82-9.46-2.88-14.1-4.56a65.16,65.16,0,0,1-10.43-4.6c-6.21-3.58-10.87-2.26-13.2,4.43-1.33,3.85-3.38,6.92-7.11,8.56-6.31,2.79-9.31,8-11.64,14.18-3.18,8.35-6.86,16.51-10.37,24.88-20.48-8.82-40.73-13.17-63-7.32-2.34-1-3.58-3.87-4.45-7-1.66-5.85-3.53-11.67-4.79-17.61-3.25-15.43-9.49-29.53-17.54-43-5.66-9.47-10.77-19.28-15.7-29.14-1.84-3.71-4.6-5.23-8.65-5.72.37-2.16.66-3.89,1-5.6,1.87-10.19-5.46-17.49-15.72-15.6a46.5,46.5,0,0,0-4.49,1.29c-4.46-4.42-9-8.44-13-13-5.69-6.54-12.6-6.13-18.77-.14a18.77,18.77,0,0,0-5.72,12.69c-.6,11-.9,22.05-.8,33.07.06,7-.91,13.27-5.19,19.11-4.79,6.54-9.08,13.47-13.33,20.38-9.58,15.56-19.25,31.07-28.39,46.9a154.42,154.42,0,0,0-11.24,23.76,436.52,436.52,0,0,1-43.33,86.26A290.76,290.76,0,0,0,814.64,753c-3.81,7.86-8.54,14-16.32,18.17C792.19,774.47,786.51,778.6,780.62,782.35Z"/>
    <path class="b01cccdb-5e16-413e-9b97-0ee142ba6c14" d="M978.15,497.91c1,9.18.69,17.21-1.69,25.1-.45,1.51-1,3-1.32,4.54-.84,4.32.67,6,5,5.18,2.71-.49,5.33-1.45,7.75,2-3.81,4.9-6.93,10.48-13.16,13.6a10.67,10.67,0,0,0-4.92,5.87,8.06,8.06,0,0,0,1.55,6.7c1,1.08,4.11.63,6.14.19,2.37-.51,4.57-1.75,7.08-2.76,3.49,4.35,1.69,8.79.38,12.86a22.1,22.1,0,0,1-4.69,7.32c-6.19,7-8.77,15.34-5.9,23.89C980,619,980,635.59,978.07,652.54a20,20,0,0,0,2.37,12.33c1.43,2.64,1.24,6.62.67,9.8-1.53,8.64-3.42,17.24-5.62,25.74-1.5,5.75-2.37,11.35-1.63,17.34.47,3.73-.16,7.64-.61,11.43-.91,7.59-1.94,15.17-3.18,22.71-.24,1.46-1.66,2.71-2.54,4.06-1.35-1-3.6-1.69-3.92-2.92-2.81-10.86-7.1-21.47-6.37-33,.09-1.35.27-2.7.34-4,.14-2.6-.11-5.11-3.1-6-3.22-1-5,.91-6.53,3.44a32.7,32.7,0,0,0-3.62,26c2,7.62,3.76,15.32,5.41,23a20.49,20.49,0,0,1,.14,6.68c-.32,2.61-2,3.91-5.8,3.28-.56-3.1-1.14-6.54-1.81-10-.57-2.87-1.12-5.76-1.91-8.57-.6-2.13-2-3.61-4.5-3.08s-3.21,2.33-3.08,4.57c.07,1.34.49,2.66.58,4,.57,8.47,1.09,16.94,1.63,25.58l-6.88,1.25c-2.42,4.37-4.92,8.65-7.17,13.06-2.65,5.18-6.38,8.72-12.45,9.09-3.23.2-4.84,1.92-5.32,5-1.72,11.05-8.23,18.79-17.26,24.73-3.32,2.18-6,4.48-6.15,9-.18,6.84-.06,7.21,6.55,9.68,5.23,1.94,10.4,4,16.31,6.34-7.85,1.59-26.72-4.09-33.93-9.87.32-.71.64-1.51,1-2.27,2.76-5.24,2.14-8.33-2.48-12.32-4.4-3.79-7.72-4.36-11.86,0-6.08,6.36-11.54,5.5-18.42,1.43-11.38-6.72-22-14.2-29.93-24.92-3.92-5.29-4-6,1.11-9.82s7.81-8.43,6.8-15.06a9.19,9.19,0,0,1,1.21-5.8c3-4.71,2.16-8.46-1.95-11.88a19.59,19.59,0,0,1-2-2.33c.69-1.57,1.33-3.2,2.1-4.76A472.41,472.41,0,0,1,841.52,718,378.57,378.57,0,0,0,880,639.84a139.74,139.74,0,0,1,13.55-27.91c8-12.58,15.34-25.51,23.14-38.18,5.56-9,11.22-18,17.18-26.73A29.59,29.59,0,0,0,939.35,530c0-9.93-.07-19.86.17-29.78a39.24,39.24,0,0,1,1.59-10.63,16.53,16.53,0,0,1,4.31-6.65c3.18-3,5.46-2.89,8.8.23a77.8,77.8,0,0,1,8.94,9.22C966.93,497.25,971.25,500.05,978.15,497.91ZM941.58,596c-4,.78-5.79,3.43-7.34,6.14-1.66,2.92-3.14,6-4.5,9-2.52,5.72-5.88,10.59-12.11,12.77-2.73,1-4,2.84-3.26,5.73.83,3.24,3.41,3.07,6,2.77C936,630.61,947.51,611.15,941.58,596Zm-13.74-6.1c-4-.13-7.28-.51-10.51-.22a6.91,6.91,0,0,0-4.55,2.41c-1.06,1.46-1.92,4-1.36,5.44.5,1.32,3,2.48,4.69,2.66C921.78,600.82,925.3,597.82,927.84,589.93Z"/>
    <path class="b01cccdb-5e16-413e-9b97-0ee142ba6c14" d="M956.71,883.94a29.65,29.65,0,0,1-22.16-.11A53.58,53.58,0,0,0,910,880.71a42,42,0,0,1-19.91-2.64c-7.74-3.11-14.5-1.12-20.2,4.44,0,.79-.16,1.32,0,1.65,4.41,7.64,4.4,7.62-2,14-2.06,2-4,4.18-6.66,7-.51-1.85-1.3-3.09-1-4,.73-2.35,2.06-4.51,2.93-6.83,2.16-5.74.7-8.34-5.07-10.08a19.81,19.81,0,0,0-13.28.79c-7.74,3.08-15.3,6.64-22.87,10.12-3.37,1.55-4.64,4.67-5.52,8.08-.77,2.93-1.91,5.77-2.93,8.77-3.36-1.42-2.34-3.74-2.53-5.57-.59-5.74-3.07-8.28-8.71-9.53a48.39,48.39,0,0,1-10.75-3.47c-4.29-2.1-8.63-2.94-13.09-1.61-5.49,1.64-10,.55-14.48-3-7.5-5.85-10.55-5.57-17.76.48-6.38,5.36-11.23,4.59-16.12-2.56-3.38-4.93-6.3-4.86-8.5.59a7.67,7.67,0,0,1-6.29,5.22c-4.82,1-4.47,1.12-4.44,6.23a22.27,22.27,0,0,1-1.81,9.68c-2.69,5.43-4.18,10.88-3.62,16.93.36,3.88-.19,7.55-4.13,11.73-.43-3.38-1-5.48-.9-7.54.42-7.65.52-15.37,1.76-22.9,1.52-9.18-1.22-17.41-3.94-25.77-.82-2.51-2.84-3.47-5.32-3.23-4,.38-6.08-1.6-8-4.9-3.33-5.84-6.69-6.82-13-4.68a5.61,5.61,0,0,0-1.27.45c-9.77,6.48-20.19,5.23-30.59,2.28a16,16,0,0,1-7.21-4.43c-6.58-7.38-7.32-7.89-16.82-7.12-3.5-3.44-7.11-6.77-10.42-10.37a9.12,9.12,0,0,1-2.2-4.79c-1.73-14.09-3.28-28.21-4.85-42.33a18.18,18.18,0,0,1,0-3.38c.39-5.6,1.93-7.57,7.43-7.37a118.68,118.68,0,0,1,20.1,2.22c14.76,3.14,29.39,6.94,44.1,10.36a35.12,35.12,0,0,0,23.16-2.12c6.23-2.88,12.56-3,19.16-1.59,15.84,3.3,31.73,4.06,47.69.67a27.55,27.55,0,0,0,13-6.66c3.12-2.77,7.09-4.56,10.66-6.83,7-4.48,14.06-9,21.11-13.47.93-.6,2-1,3.55-1.85,1.72,1.56,3.57,3.11,5.28,4.8s2,3.55.55,5.48a11.55,11.55,0,0,0-2,10.21c.76,3.36-.67,6.22-3.08,8.53-1.14,1.09-2.48,1.94-3.69,3-4.93,4.16-5.33,6.73-1.48,12.15a77.28,77.28,0,0,0,20.42,19.57c4.5,3,9.28,5.56,14,8.2A110.78,110.78,0,0,1,852,852.34c3.88,3,10.46,2.13,15.1,4.45,8.58,4.32,17.71,6.54,26.82,9,5.57,1.52,11.13,2.11,16.69.53,3-.86,5.32,0,7.56,1.7,3.45,2.54,6.82,5.2,10.27,7.75a21.5,21.5,0,0,0,14.52,4.54C947.4,880.08,951.85,880.33,956.71,883.94Z"/>
    <path class="b01cccdb-5e16-413e-9b97-0ee142ba6c14" d="M796.61,1055.2c-1.32-3.45-2.32-5.57-2.93-7.79-1.55-5.65-2.87-11.37-4.38-17-1.82-6.8-5.23-12.41-11.8-15.71-4.71-2.37-5.48-6.52-5.34-11.43a142.7,142.7,0,0,0-.57-20.16,27.89,27.89,0,0,0-7.9-16.17,21.8,21.8,0,0,0-7.7-5.07c-6.43-2.45-7.27-3.18-7.34-10.28-.08-6.55,0-13.09,0-19.64,0-1.35,0-2.71,0-4.06,0-2.62-1.21-4.46-3.79-4.78s-4,1.67-4.85,3.87a8.15,8.15,0,0,0-.47,2.64c-.32,10.39-.33,20.76,1.87,31a53.24,53.24,0,0,0,9.17,20.89c8.38,11.27,9.92,24.42,10.08,37.9a4.74,4.74,0,0,1-.54,1.92c-.17.39-.58.67-1.25,1.4-6.44-2.35-10.53-6.37-11.87-13.75-1.49-8.16-3.93-16.16-6.24-24.14-1.43-5-3.38-9.81-5.1-14.7-3-8.43-3.57-17.1-3.23-26,.32-8.27-2.71-11.51-11.59-13.52a23.88,23.88,0,0,0-1.84,4.74c-1.81,10.65-3.46,21.32-5.17,32-.43,2.65-.51,5.43-1.44,7.9a5.83,5.83,0,0,1-3.78,3.08c-.89.17-2.37-1.63-3.24-2.8s-.78-2.9-1.72-3.59c-1.48-1.08-3.5-2.08-5.2-1.95-1.28.09-3.07,1.81-3.49,3.16-1.22,3.86-1.76,7.92-2.74,11.85-.87,3.46-1.82,6.95-5.24,9.89-.57-1.52-1-2.6-1.37-3.73-.12-.39.11-.88.13-1.33.58-12.34-.9-13.76-13.54-12.48-.13-6.22-3.35-10.16-9.11-12.62-3.81-1.63-5.63-5.26-5.14-9.48.76-6.68-1.76-11.86-6.58-16.22-1.5-1.37-2.75-3-4.24-4.37-7.54-6.88-9.88-15.07-7.61-25.13.85-3.72.2-8.15-1-11.89-2.48-7.88-1.86-15.49.32-24,3.35.53,6.7.72,9.85,1.62,6.24,1.8,12,.73,17.74-1.85,2.26-1,4.51-2.09,6.85-2.89,4.82-1.63,6.6-1.18,8.9,3.19,2.22,4.2,5.15,6.54,10,6.85a5.37,5.37,0,0,1,3.73,3c2.88,7.64,4.82,15.36,3.25,23.78-2,10.9-2.7,21.94-.56,33,.16.83.46,1.64.84,3a16,16,0,0,0,8.38-14.66c0-7.65,1.08-14.62,4.81-21.45,1.59-2.91,1.12-7,1.68-11.16,4.54-1.31,10-2.67,10.55-10.52,1.7,1.93,2.78,2.94,3.6,4.12,4.44,6.41,12,7.68,18.18,3,.72-.55,1.34-1.22,2-1.79,5.62-4.64,7.08-4.87,12.93-.29,5.39,4.22,10.95,5.87,17.66,3.8a14.17,14.17,0,0,1,6.67-.08c5.41,1,6.81,3.12,7.45,8.68,1.32,11.42,2.4,22.89,4.49,34.16a40.3,40.3,0,0,0,6.36,14.73A30.34,30.34,0,0,1,809.47,973c-.59,5.33-1.49,10.62-2.23,15.77-4.27.93-6.2-1.37-8-3.66-2.62-3.36-3.17-7.33-3.29-11.49a19.1,19.1,0,0,0-1.47-7.79,8.51,8.51,0,0,0-5-3.88c-2.72-.7-3.68,2-4.62,4.06-5.18,11.22-5.88,22,2.39,32.39,6.14,7.69,8.29,16.78,8.79,26.51.28,5.56,1.53,11.08,2.43,16.6C799.13,1045.54,801.15,1049.68,796.61,1055.2Z"/>
    <path class="b01cccdb-5e16-413e-9b97-0ee142ba6c14" d="M1220.93,610.83a26,26,0,0,1,3.87,22.06,208.19,208.19,0,0,1-9.57,28c-3.8,8.91-8.51,17.4-9.56,27.25,0,.34-.54.64-1.22,1.39-.84-.83-2-1.5-2.39-2.48a23.27,23.27,0,0,1-1-5.28c-1.06-8.44-6.75-11-13.67-5.78-3,2.24-5.38,5.23-8.82,8.64-1.06-7.23-4.15-11.66-12.06-11.76a62.82,62.82,0,0,1,2-6.06c1.3-2.87,3-5.58,4.23-8.46,2.25-5.09,3.22-10.41,1.1-15.75-1.81-4.55-1-8.63.62-13.06,2.37-6.31,4-12.9,6-19.32,2.14-6.62,4.45-13.18,6.7-19.77.37-1.06,1.16-2.1,1.14-3.14-.11-5.37,3.75-7.38,7.68-9.17,7-3.2,13.21,0,14.5,7.64.26,1.57-.56,3.52-1.36,5-4.32,8.21-.6,15.85,1.66,23.5.74,2.47,3.57,2.65,5.55.82.81-.74,1.22-1.9,2-2.7A14.34,14.34,0,0,1,1220.93,610.83Z"/>
    <path class="b01cccdb-5e16-413e-9b97-0ee142ba6c14" d="M1235.08,701.29c-1.23,1.5-2.41,3.08-3.75,4.5-3.71,4-3.72,3.93-1.41,8.63a16.27,16.27,0,0,1,1.16,3.07c.08.29-.38.73-.95,1.72l-9-8.3c-3.49,5.57-6.47,11.11-12.52,13.29-5.46,2-11.11,3.41-17.86,5.43,2,2.07,3.23,3.85,4.9,5a138.57,138.57,0,0,0,14.25,9c3.12,1.62,6.88,2,10.26,3.15,2.33.81,5.65.13,6.66,4.3a14,14,0,0,1-3.59.56,33.22,33.22,0,0,1-3.86-1.15c-9.11-2.05-10.45-1.23-11.22,8.12-.32,3.85-3.23,3.73-5.53,5.22-1.69-1.45-3.18-2.76-4.71-4a3.49,3.49,0,0,0-5.36.6c-.78,1.1-.9,3.9-.1,4.66a38.09,38.09,0,0,0,9.1,6.69c5.45,2.66,11.25,4.6,16.89,6.89,3.37,1.38,6.38,3.2,8.42,7.92-2-.81-3-1.2-4-1.62-2.63-1.08-5.18-2.87-7.88-3.11-4.28-.39-5.58,2.39-3.26,6,1.14,1.81,2.43,3.52,4,5.84-4.6,1-8.3,1.59-11.85,2.66-4.89,1.48-5.68,2.73-5.54,7.83.07,2.24.75,4.49.66,6.72-.14,3.05-.73,6.09-1.16,9.13-.34,2.42-.87,4.82-1.08,7.25-.46,5.29-.76,10.6-1.19,16.94-6.66-4.92-11.25-11.39-19.37-12.19-2.3,1.59-4.53,3.59-7.14,4.78a8.22,8.22,0,0,1-5.6.07c-1.86-.65-2.43-2.57-1.22-4.5a22.31,22.31,0,0,1,1.67-2.13c6.11-7.32,6.92-7.45,15-2.48a49.61,49.61,0,0,0,5.22,3.12c3.63,1.65,6.66.45,7.06-3.44.74-7.37,1.74-14.93.83-22.19-1-7.91-4.06-15.56-6.19-23.24-4.5.11-5.51,2.91-6.37,5.75s-2,5.56-6.34,5.2c-.28-1.43-1-2.91-.79-4.3.72-6.24,1.49-12.49,2.61-18.67.92-5,2.67-9.72,8.57-10,1.22-4.5,2.27-8.58,3.43-12.63.86-3,0-5.22-3.08-5.55-9.55-1-13-7.9-15.64-15.66-1.7-5-3.39-9.82-9.42-11.41-1.17-.31-2.35-2.66-2.56-4.19-.71-5.34-1.17-10.73-1.36-16.11-.06-1.6.6-3.86,1.75-4.75a34.27,34.27,0,0,1,8.74-4.84c1.26-.47,3.56.31,4.62,1.33.68.65.35,2.93-.21,4.18a53,53,0,0,1-3.6,5.71c-4,6.4-3,10.82,3.68,14.48a70.33,70.33,0,0,0,11.21,4.59c4.27,1.45,8.66,2.5,13,3.79,8.61,2.57,15.24-1.72,16.07-10.77.3-3.32-.23-6.72-.39-10.12C1215.61,694.37,1228.94,695.86,1235.08,701.29Z"/>
    <path class="b01cccdb-5e16-413e-9b97-0ee142ba6c14" d="M1126.32,595c.22,2.31.48,4.62.65,6.93.17,2.46-.11,5,.46,7.38,1.06,4.33,5,5.34,8.27,2.33a7.8,7.8,0,0,0,2.2-9.23c-1.83-4.59-3.85-9.1-6-14,1.72-1.82,4-3.7,5.6-6s2.48-5.16,3.88-8.2c1.46.62,2.62,1.14,3.8,1.6,4.6,1.77,9.18,3.58,13.82,5.24,2.75,1,5.66,1.52,8.37,2.59s3.95,3.25,3.37,6.5c-2.93,16.59-7.68,32.48-17.49,46.47-2.46,3.51-5,7-7.48,10.46-3.94,5.44-4,7.66.87,12.15,3.92,3.59,4.6,8.2,5.15,12.83.18,1.56-1.22,3.84-2.58,4.93-1.87,1.49-4.31,1.23-6.11-.71-6.77-7.28-14-14.41-17.62-23.8-2.93-7.66-7-14.58-11.11-21.52-3.26-5.54-3.42-10.22.43-15.6,2.43-3.39,3.58-7.71,5.27-11.62,1.28-3,2.51-6,3.76-9Zm32.49,11c-1.08-2.25-1.55-4.31-2.84-5.45-.7-.63-3.68-.19-4.1.59-2.86,5.27-5.37,10.74-7.8,16.22a3.83,3.83,0,0,0,.45,3.23c1,1.36,2.36,3.11,3.75,3.28a5.13,5.13,0,0,0,4.12-2.43C1154.78,616.43,1156.7,611.2,1158.81,606Z"/>
    <path class="b01cccdb-5e16-413e-9b97-0ee142ba6c14" d="M943.05,986.16c5.34,2,9.49,3.67,13.7,5.15,6,2.11,9.68,12.4,6.55,19.11a49.16,49.16,0,0,1-4.27,6.88,28.81,28.81,0,0,0-5.32,17.69c.14,5.78-1.94,11.61-3,17.42-.45,2.41-1.46,4.88-1.23,7.22a147,147,0,0,0,2.81,18.7c.61,2.65,2.89,4.92,4.89,8.14-2.45,1.44-4.8,3-7.35,4.24a11,11,0,0,0-6.1,6.61c-1.55,4-4.54,7.55-6.81,11.13-6.37-2.36-6.37-2.36-14.85-12.07,4.76-9.45,14.2-6.39,22.47-7.74,0-3.83.41-7.4-.09-10.84-.75-5.11-2.37-10.09-3.21-15.2-1.17-7.1-2.06-14.24-2.85-21.39-.47-4.24-1.86-6.06-6-6.73-3.73-.61-5.17.47-6.55,5-.27.86-.48,1.74-.71,2.62l-.91,3.5c-1.09-1.6-2-2.44-2.29-3.46-2.06-6.9-1.34-13.82,0-20.75A61.64,61.64,0,0,1,937.3,991,50.16,50.16,0,0,1,943.05,986.16Z"/>
    <path class="b01cccdb-5e16-413e-9b97-0ee142ba6c14" d="M1434.75,664.6l8.08,3.83c.06,3.14-1.76,4.38-4.11,4.69-10.08,1.32-20.19,2.62-30.24-.06a45.34,45.34,0,0,1-6.25-2.65c-.27-3.57,2.08-3.78,3.78-4.75,7.24-4.12,14.65-8,21.58-12.57,9.47-6.29,14.82-15.49,17.05-26.64,1.06-5.29,2.64-10.48,4-15.72,1.2-4.75,1.55-9.33-2-13.45a6.24,6.24,0,0,1-1.44-3.62c-.07-3.27-1.88-4.5-4.67-5.74-5.79-2.56-8.08-10.27-4.85-17.36,13.14,16,23.92,33.06,34.91,50.6-5,8.1-9.13,16.78-15.07,24S1442.1,657.86,1434.75,664.6Z"/>
    <path class="b01cccdb-5e16-413e-9b97-0ee142ba6c14" d="M712.78,693.49a83.32,83.32,0,0,1-4.49-8c-2.94-7.06-5.49-14.29-8.49-21.32-1.31-3.08-3.33-5.86-5-8.76-2.76-4.66-2.42-7.44,1-11.6,2.55-3.13,4.77-6.53,7.2-9.76,3.18-4.22,4.86-4.67,9.8-3.2,2.57.76,5.22,1.27,7.85,1.82,3.7.76,4.46,1.78,3.94,5.54a3.74,3.74,0,0,1-.26,1.32c-4.84,8.67-2.78,17.33-.47,26.21,2.49,9.61.38,18.33-7.07,25.34A30.41,30.41,0,0,1,712.78,693.49Z"/>
    <path class="b01cccdb-5e16-413e-9b97-0ee142ba6c14" d="M1281.83,585.57l6.59-3.21c1,2.55,1.82,4.69,2.61,6.85,1.08,2.94,1.91,6,3.24,8.8,1,2.08,2.78,3.65,5.45,3,2.48-.6,2.8-2.68,2.91-4.76.36-6.49,1-13,.84-19.49-.1-3.56.62-6,3.49-8.06s5.45-4.74,8.39-6.8c1.87-1.3,4.18-2,6.15-2.88.76,1.1,1.26,1.5,1.22,1.82-1.2,9.79-2.08,19.64-3.81,29.35-1.78,10-8,16.84-17.52,20.63-7.54,3-8.3,4.41-8.18,12.71a87.86,87.86,0,0,1-.19,10.77c-.13,1.19-1.8,2.2-2.77,3.3-1-1-2.62-1.86-3-3.06a51.59,51.59,0,0,1-1.24-8c-1.14-8.7-2.38-17.39-3.34-26.11C1282.16,595.56,1282.11,590.62,1281.83,585.57Z"/>
    <path class="b01cccdb-5e16-413e-9b97-0ee142ba6c14" d="M743.42,1138c.23-1.57.12-2.52.5-3.2,2.86-5.09,4.49-10.26,2.34-16.12a5.29,5.29,0,0,1,.4-3.93c3.87-6.89,3-14.43,3.19-21.8.14-4.72,0-9.45,0-14.3a15.37,15.37,0,0,1,11.88-3.44,26.61,26.61,0,0,0,11.2-1.41c7.64-2.62,13.82-.94,20,4,8.6,6.84,12.64,16,15.8,26.87l-7.59,1c-1.16-4.4-2.18-8.28-3.23-12.16a37,37,0,0,0-1.49-5.17c-1.51-3.5-3.42-4.41-6.16-2.1s-5.43,2.21-8.68,1.39c-4.53-1.15-9,0-13.09,2-3.82,1.92-7.81,3.74-11.11,6.37-2.06,1.65-4,4.66-4.21,7.19a150.22,150.22,0,0,0-.1,22.25C753.68,1133.11,752.16,1135.78,743.42,1138Z"/>
    <path class="b01cccdb-5e16-413e-9b97-0ee142ba6c14" d="M962.18,821.69c8-3,13.93-9.8,19.8-16.67,1-1.18,2.11-2.61,3.47-3.13a6.76,6.76,0,0,1,4.83,0,3.51,3.51,0,0,1,1.53,5.17c-1.07,2-2.28,3.88-3.46,5.79a11.53,11.53,0,0,0-1.18,10.9c4.3,11.3-.25,21.74-11.43,26.08-5.69,2.2-11.73,2.44-18.5,2.36C958.9,841.9,960.47,832.26,962.18,821.69Z"/>
    <path class="b01cccdb-5e16-413e-9b97-0ee142ba6c14" d="M601.83,758.18c-6.5-10-12.85-33.73-12.26-45,3.88-2.12,8.06-3.86,11.58-6.48s6-6,9.13-9,4.42-2.68,7.15.64c1.13,1.37,2.05,2.91,3.39,4.84-5,5.73-5,12.69-4.62,19.74a20.29,20.29,0,0,1-3.67,12.75c-4.33,6.37-8.49,12.78-9.12,20.77C603.37,756.94,602.56,757.4,601.83,758.18Z"/>
    <path class="b01cccdb-5e16-413e-9b97-0ee142ba6c14" d="M672.57,640.45c-.53,5-1.31,9-1.28,12.94,0,4.32-1.26,7.58-5.3,9.28-6,2.5-10.21,6.26-11.61,13a7.93,7.93,0,0,1-3.75,4.55c-4.74,2.56-7.2,6.57-8.83,11.45a17.84,17.84,0,0,1-3,5.23c-.48.62-1.89.52-4.31,1.09l6.62-13-7.79-1.78c1.29-3,2.08-5.86,3.57-8.26,6.17-10,12.44-19.87,18.91-29.64a28.61,28.61,0,0,1,6.18-6.2C667.06,635.15,668.6,635.49,672.57,640.45Z"/>
    <path class="b01cccdb-5e16-413e-9b97-0ee142ba6c14" d="M1366.44,615.55a132.87,132.87,0,0,1,.1-21.85c.49-4.59,2-8.39,5.84-11.58,3.39-2.85,5.89-6.77,8.67-10.31,4.3-5.48,9.62-9.32,16.43-10.88,3.19,5.34,3.31,7-.52,10.66-6,5.77-7.48,12.52-5.51,20.37a37.19,37.19,0,0,1,1.22,7.32c.09,2.07-.46,4.17-.83,7.07-2.34-1.2-3.69-1.84-5-2.58a45.43,45.43,0,0,0-5.21-3.09c-5-2-8.3-.26-9.59,5-.48,1.95-.39,4.06-1,6a24.1,24.1,0,0,1-2.42,4.41Z"/>
    <path class="b01cccdb-5e16-413e-9b97-0ee142ba6c14" d="M630.05,868.47c-3.75,4.08-4.45,8.84-4.48,13.91,0,4.91-.62,9.79-3.11,14.26-8.43-5.72-12.32-20.69-8.78-33.07C623.34,860.4,624.67,860.76,630.05,868.47Z"/>
    <path class="b01cccdb-5e16-413e-9b97-0ee142ba6c14" d="M1100.59,630.2a42.27,42.27,0,0,1-5.86-.73,21.39,21.39,0,0,0-14.51.76c-3.62,1.59-6.92,1.21-10.36-.37-5.92-2.72-11.9-5.3-17.84-8-.59-.27-1.12-.69-2.2-1.36,3.61-3.61,7.46-2.91,11-2.55,14,1.42,28.58,1,40.34,10.55Z"/>
    <path class="b01cccdb-5e16-413e-9b97-0ee142ba6c14" d="M1068.69,869.26c-.84,4.87-1.37,9.81-2.59,14.58-1.14,4.51-2.29,4.89-6.84,3.83-11.66-2.71-11.87-3.1-6.85-14.11a64.49,64.49,0,0,1,4.3-8.4c2.45-3.83,5.3-4.91,8.46-3.81C1069.23,862.76,1068.68,866,1068.69,869.26Z"/>
    <path class="b01cccdb-5e16-413e-9b97-0ee142ba6c14" d="M994.74,638a23.22,23.22,0,0,1,7,12.43c.84,3.45-.82,6.19-3.65,8.1A12.65,12.65,0,0,1,985.78,660C987.86,652.45,987.36,644.11,994.74,638Z"/>
    <path class="b01cccdb-5e16-413e-9b97-0ee142ba6c14" d="M620,949.44c-4.59,1-6.32.35-7.59-3.73-2.16-6.92-4.12-13.91-6.24-21.14,4.64.32,8.93,2.71,13.09,5.11,1.16.67,2,3,1.91,4.53C621,939.22,620.42,944.22,620,949.44Z"/>
    <path class="b01cccdb-5e16-413e-9b97-0ee142ba6c14" d="M1193.6,854c.14,2.87.61,4.51.19,5.86a7,7,0,0,1-2.81,3.86c-.62.33-3-1.22-3.42-2.35a5.76,5.76,0,0,1,.52-4.76C1189,855.42,1191,855.12,1193.6,854Z"/>
    <path class="b01cccdb-5e16-413e-9b97-0ee142ba6c14" d="M1130.83,1151.93a27.49,27.49,0,0,1-.6,4.88c-7.16,26.36-30.61,45.6-54,47.73-6.72.61-7.47-.13-6.83-6.86.56-5.84.87-11.7,1.67-17.5a24.86,24.86,0,0,1,2.57-7.51c2.53-5,5.49-9.81,8-14.83,4-8,7.92-15.83,14.16-22.76,4.29-4.76,8.6-8.19,14.25-10.54,5-2.1,9.22-1.16,12.52,3C1127.22,1133.34,1130.84,1143.54,1130.83,1151.93Z"/>
    <path class="b01cccdb-5e16-413e-9b97-0ee142ba6c14" d="M793.1,1318.43c-8.47.78-11.79-5.11-13.27-12.84a24,24,0,0,1,.73-10c4.53-18,12.15-34.43,24.79-48.2a33,33,0,0,1,9.1-6.74c3.67-1.89,7.61-2.43,11.23,1.07,1.52,1.47,4,1.92,6,2.91a7.37,7.37,0,0,1,4.44,8.24,151,151,0,0,1-5,24.31c-2.42,8.08-6.44,14.7-10.74,21.5-5.53,8.75-14.11,13.77-22.78,18.62A14.24,14.24,0,0,1,793.1,1318.43Z"/>
    <path class="b01cccdb-5e16-413e-9b97-0ee142ba6c14" d="M1478.58,1027.18c-.62-11.7,1.37-23.13,7.13-33.2a76,76,0,0,1,30.65-29.58c4.87-2.6,10-2.33,15.12-1.15,3.2.73,4.46,2.81,3.88,6a17.77,17.77,0,0,1-.81,3.27c-5.43,13.82-10.07,28-16.6,41.3a59.41,59.41,0,0,1-27,27.2,24.53,24.53,0,0,1-2.49,1c-6.88,2.53-9.57.73-9.91-6.75C1478.48,1032.59,1478.58,1029.89,1478.58,1027.18Z"/>
    <path class="b01cccdb-5e16-413e-9b97-0ee142ba6c14" d="M1242.8,1083.09c3.14,0,4.91,2,4.15,7.17-1.48,10.08-3.93,19.91-8.7,29q-4.55,8.68-9.49,17.15c-4.25,7.27-10.6,12.22-18.22,15.53a16.41,16.41,0,0,1-5.87,1.38c-6.57.17-10-3.45-8.36-9.84,5-20.22,13.66-38.6,28.82-53.37C1229.44,1085.91,1234.52,1083.1,1242.8,1083.09Z"/>
    <path d="M941.58,596c5.93,15.12-5.57,34.58-21.26,36.44-2.54.3-5.12.47-6-2.77-.75-2.89.53-4.77,3.26-5.73,6.23-2.18,9.59-7.05,12.11-12.77,1.36-3.07,2.84-6.11,4.5-9C935.79,599.46,937.55,596.81,941.58,596Zm-2.18,4.83c-4.59,3.73-5.85,8.37-7.76,12.52-2.5,5.46-5.61,10.15-11.45,12.55-1,.42-1.73,1.61-2.85,2.71C929.7,631.24,941.75,616.21,939.4,600.86Z"/>
    <path d="M927.84,589.93c-2.54,7.89-6.06,10.89-11.73,10.29-1.72-.18-4.19-1.34-4.69-2.66-.56-1.48.3-4,1.36-5.44a6.91,6.91,0,0,1,4.55-2.41C920.56,589.42,923.86,589.8,927.84,589.93Zm-5.21,4.29c-5.93-2.78-6-2.75-8.31,2.84C917.81,597.81,920.73,597.94,922.63,594.22Z"/>
    <path d="M1158.81,606c-2.11,5.21-4,10.44-6.42,15.44a5.13,5.13,0,0,1-4.12,2.43c-1.39-.17-2.77-1.92-3.75-3.28a3.83,3.83,0,0,1-.45-3.23c2.43-5.48,4.94-11,7.8-16.22.42-.78,3.4-1.22,4.1-.59C1157.26,601.68,1157.73,603.74,1158.81,606Z"/>
    <path class="b01cccdb-5e16-413e-9b97-0ee142ba6c14" d="M939.4,600.86c2.35,15.35-9.7,30.38-22.06,27.78,1.12-1.1,1.83-2.29,2.85-2.71,5.84-2.4,8.95-7.09,11.45-12.55C933.55,609.23,934.81,604.59,939.4,600.86Z"/>
    <path class="b01cccdb-5e16-413e-9b97-0ee142ba6c14" d="M922.63,594.22c-1.9,3.72-4.82,3.59-8.31,2.84C916.63,591.47,916.7,591.44,922.63,594.22Z"/>
  </g>
</svg>
