<svg id="bf14c691-f655-493b-9024-f5606d60554f" data-name="Calque 1" xmlns="http://www.w3.org/2000/svg" width="1920" height="1920" viewBox="0 0 1920 1920">
  <defs>
    <style>
      .e73c12ab-ee50-4850-8213-093beab73a6a {
        fill: #fff;
      }
    </style>
  </defs>
  <g>
    <path d="M1920,1920.68H0V0H1920ZM652.65,1178c-.59,2-1.27,3.22-1.29,4.48-.2,11.73-.48,23.47-.32,35.2.07,5.18,3.13,9.37,6.64,13a6.74,6.74,0,0,0,9.73.39,20.45,20.45,0,0,0,3.86-4.67c4.57-7.18,4.52-7.21,11-2.49,6.17-2.26,11.89-5.23,17.94-6.34,5.85-1.07,12.05-.23,18.89-.23-6-5.69-7.26-11.89-6-19.1.62-3.46-.1-7.17-.32-10.76-.18-2.7-.65-5.38-.77-8.07s1.42-4.46,4-4.61c7-.41,14.09-.88,21.27.28-3.71,9.92-3.33,11.25,6.07,15.43,6.78,3,13.87,5.34,20.79,8,4.17,1.62,7.55,1.11,10.94-2.25,5.4-5.33,12.13-8.18,19.58-10.06,6.38-1.61,13.22-3,17.86-8.69a5.82,5.82,0,0,1,3.55-1.66c3.54-.41,7.12-.51,10.9-.75l2.4,7.31c5.55-2.51,10.68-4.8,15.79-7.14,7.74-3.55,15.55-4.35,23.56-.86a22.33,22.33,0,0,0,3.59.95l7-25.19c-6.37-1.12-7-1.9-8.28-6.73-1.67-6.13,3-7.56,7.6-9.78-4.46-8.33-8.65-16.17-12.9-24.13,1.11-2.23,3-2.58,5.55-2.15,8.11,1.35,15.85,3.34,22.09,9.26,3.34,3.17,6.94,4.52,11.48,1.38,2.69-1.86,6.21-2.73,9.8,1.17-4.48-.6-7.7.19-8.54,4,1.85,5.13,5,6.85,10.06,6.58,3.49-.19,7.09,1,10.59,1.88,3.91.93,7.77,2.14,11.5,3.18,4.29-6.43,6.06-6.68,11.79-2,.53.43,1,.92,1.57,1.29,12.28,8.1,25.28,11.79,39.7,6.25a23.27,23.27,0,0,1,16.52.06c2.26.79,4.53,1.56,7.1,2.45.73-5.33,1.24-10,2-14.68,2.93-17,11.35-29.13,29.18-33.28a20.17,20.17,0,0,0,9.12-5.33c15.23-15.25,33.51-24.16,54.66-27.52,6.69-1.06,6.71-1.09,8.14-7.57,3.69-16.73,7.32-33.48,11-50.21,1.78-8,3-16.2,1.13-24.18-3-12.89-3.19-25.93-3.71-39-.07-1.66,0-3.31,0-5l1.44-.25c3.46,7.73,7.17,15.37,10.33,23.22,5.33,13.23,7.26,26.93,4.72,41.13-1.23,6.9-2.46,13.91-.23,20.79,1.33,4.07.46,7.4-1.64,10.87-5.26,8.67-6,18.28-5.43,28.12.12,2.3,1,3.85,3.15,4.65,2.47.9,4.93,1.84,7.72,2.89.74-1.8,1.5-3,1.67-4.22.91-6.69,1.49-13.43,2.54-20.1.7-4.38,1.2-9.1,3.2-12.93,6.3-12.09,10.51-24.37,8.18-38.28-.69-4.14,1.25-7.16,5.31-9.17,6-3,11.73-6.68,17.65-9.91,3.74-2,7.48-4.35,11.52-5.5,4.58-1.32,6.13-4,6.26-8.31.19-6.77.5-13.53.8-20.3a58.24,58.24,0,0,1,5.44-22.2c5.43-11.65,11-23.26,16.35-34.93,6-12.93,16-19.63,30.26-20.28,2.86-.13,6.15-.4,8.44-1.86,6.93-4.41,13.75-4.67,21.27-1.78,5.38,2.07,8.25.54,11-4.66.64-1.19,1.15-2.45,1.7-3.68,5.58-12.43,7.05-13.17,20-9.26,2.4.72,4.37.92,6.12-1.11,3.67-4.27,8.25-8.06,10.81-12.92,3.63-6.91,9-7.16,15.26-6.29,1.76.24,3.44,1.11,5.2,1.38,2.39.36,5.29,1.37,7.15.45,5-2.51,9.51-1.5,14.18.52,1.23.53,2.65.62,3.89,1.13,10,4.09,20.1,7.92,29.85,12.51,4.38,2.06,8,5.69,8.46,11.4-6,3.16-8.57-2.15-12.16-4.68a29.71,29.71,0,0,0-3.79,1.9c-4.76,3.31-9.15,2.85-13.63-.7-3.18-2.51-6.43-5.19-10.09-6.77-6.15-2.65-12.63-4.54-19-6.59a4.69,4.69,0,0,0-3.27.42,20.94,20.94,0,0,1-11.07,2.19c-5-.22-6.86,2.8-5,7.58,2,5.22,6,8.21,11.09,10.17,10.1,3.87,20.11,8,30.2,11.91a16.18,16.18,0,0,1,9.74,9.59c4,9.72,10.44,13.28,20.91,12a52.31,52.31,0,0,0,9.19-2.2c7.52-2.35,15.08-4.66,22.48-7.38,26.14-9.61,51.8-7.56,77.19,2.78,2.18.89,4.45,1.57,7.27,2.56.43-3,.82-5.16,1-7.36,1.31-13,2.36-26.05,3.91-39,1.75-14.64,2.45-29.14-.47-43.78-2-10.08.37-19.76,5.72-28.58a119.56,119.56,0,0,1,7.73-11.91c3.42-4.36,3.69-8.48,1.9-13.72-33.07-96.8-85.39-181.76-159.5-252.17Q1187.66,291.89,909,306.94a576,576,0,0,0-106.22,15.93c-127,31.14-234.94,94.88-322.09,192.39-100.91,112.9-154.14,245.76-161,397a611.32,611.32,0,0,0,15.76,167.3q37.2,159.24,146.82,280.58a47,47,0,0,0,3.91,3.48c.47-1,.91-1.46.8-1.72-3.78-8.87-3.38-18.52-4.68-27.78-1-7.28-3.21-13.25-7.76-18.92a598.46,598.46,0,0,1-89.47-153.93c-26.66-66.94-40.3-136.52-42.74-208.43-.25-7.5,2.29-12.42,8.61-16.16a109.07,109.07,0,0,0,12.53-9.15c3.59-2.88,7.41-3.61,12-3.16,13.91,1.36,27.86,2.43,41.81,3.4,3.09.22,6.51.22,9.32-.86,12.93-4.94,23.8-12.61,31-24.86a19.61,19.61,0,0,1,5.54-5.5c6.74-4.86,13.94-9.13,20.39-14.35,6.3-5.09,11.62-11.38,17.84-16.58,13.74-11.5,19.77-26.55,21-43.88,1.46-20,2.87-40.07,3.93-60.13a38.17,38.17,0,0,1,12-26.34c6.06-6,11.24-12.88,16.8-19.39.87-1,1.45-2.46,2.53-3.12,1.39-.84,3.49-1.88,4.64-1.37s1.64,2.84,1.73,4.42-.66,3-1.14,4.56c-2,6.11-3.25,12.2-.69,18.51a5.83,5.83,0,0,1,.08,3.91c-4.11,10.59-4.57,21.51-3.5,32.66.18,1.81-.42,4.45-1.67,5.5-4.94,4.15-5.74,9.37-5.25,15.28.19,2.3.75,5-2.6,6.6a32,32,0,0,1-2.49-3.88c-1.24-2.66-2.77-4.74-6.13-4.06s-3.62,3.42-4,6.2c-.83,5.77-1.68,11.55-2.89,17.25-1,4.84-2.71,9.55-3.82,14.38a27.82,27.82,0,0,0-.82,8c.37,5.46,2.56,6.46,8.09,5.54,3.66-.61,7.54-.18,11.28.16a3.7,3.7,0,0,1,2.64,2.36,4.15,4.15,0,0,1-1.6,3.23c-2.52,1.89-5.38,3.32-7.93,5.18-7.33,5.36-8.22,13.11-2,19.69a34.76,34.76,0,0,1,8.85,16.46c1.26,5.5,2.33,11,3.79,16.48,2,7.38.65,13.77-4.69,19.35a8.71,8.71,0,0,0-2.4,8.71c1.9,6.93,3.76,13.88,5.53,20.85,2.28,9,4.31,18,6.75,26.88.74,2.69,2,5.68,4,7.48a8.56,8.56,0,0,1,2.84,7.82c-.2,2.24-.86,4.46-.9,6.7a20.48,20.48,0,0,0,.71,7.27c1.51,4.14,4.55,5,7.85,2A114.48,114.48,0,0,0,581,1007c1.42-1.61,2.66-3.38,4-5.11,6.58,3.1,6.82,10.56,11.6,14.09.71-.44,1.3-.59,1.41-.91,3.73-10.74,11.06-17.21,22.32-19.32,4.27-.81,6.79-3.88,8.93-7.63,9.86-17.3,32.85-18.35,44.58-2.23,2,2.72,4.32,5.17,6.55,7.71,4,4.55,8,9.07,12.07,13.6,2.24,2.53,4.34,5.21,6.8,7.5,2.61,2.43,5.57,4.49,7.86,6.31-1.95,2.75-3.64,5.21-5.41,7.62a11.26,11.26,0,0,1-2.61,2.91c-2.31,1.49-2.42,3.55-2.21,5.91.74,8.34,4.46,12,12.88,12.41a16.7,16.7,0,0,1,2,.43c-5.85,2.31-10.56,1-14.71-4.25-2.65-3.36-4.88-7-7.43-10.49-3.94-5.31-4-5.28.93-9.79a21.75,21.75,0,0,0,2-1.81c1.5-1.76,1.8-3.7.08-5.45-3.1-3.16-6-6.68-10.06-8.22-3.39,1.88-4.13,4.63-4.67,7.6a43.43,43.43,0,0,1-2.08,7.81,3.89,3.89,0,0,1-2.84,2.2c-.85,0-1.87-1.49-2.46-2.53-.4-.71-.19-1.76-.24-2.66-.61-11.93-2.86-13.67-14.6-11.34-.22,0-.45,0-.67.09-4,1-5.38,4.16-3.3,7.66q4.61,7.74,9.31,15.4c1.63,2.64,1.61,5.11-.44,7.45-1,1.18-2.22,2.24-3.35,3.35-4.4,4.31-4.71,4.88-1.08,9.53,3.16,4.05,3.23,7.58.24,11.61-4.43,6-6.11,13-7.28,20.17-.53,3.27-1.53,6.54-.14,10,1.3.26,2.44.81,3.45.64,7.75-1.28,14,2.38,20.3,6,3.14,1.78,6.36,3.41,9.52,5.15,19.25,10.59,27.41,27,24,48.54a9.5,9.5,0,0,1-2.81,5.13,202.54,202.54,0,0,1-16.56,13.89,29.23,29.23,0,0,1-24.45,4.93C659.37,1180.17,656.4,1179.1,652.65,1178Zm923.4-418.11c-3.22,1.83-5.9,3.33-8.56,4.87a6.67,6.67,0,0,0-2.12,1.53c-5.9,8.25-10.47,16.7-7.65,27.6,2.32,9,2.56,18.31,1.74,27.59-1,11.91-2.19,23.8-3.29,35.7-1.91,20.64-4,41.23-8.6,61.52-2,9.05-2,9.47-10.88,7.33a17.81,17.81,0,0,0-2-.53c-8.53-1-17.1-2.08-25.25,1.81-5.69,2.71-11.36,5.49-16.91,8.49-4.52,2.45-9.4,4.67-13.14,8.07a218.74,218.74,0,0,0-20.15,20.7c-8.44,10-13.44,21.92-16,34.67a147.41,147.41,0,0,0-2.94,38.37c.13,2.18,0,4.38,0,7.1-7,2.21-13.55,4.58-20.27,6.29-4.35,1.11-6.14-.58-6.63-5.26-.52-4.93-1.26-9.9-1.15-14.83.3-13.35-4.65-24.53-12.79-34.79-4.64-5.85-11.43-7.79-17.47-11.12-1-.54-2.64,0-4,.19-7.85,1.25-15.28,3.5-22.15,7.8-4.94,3.09-10.44,5.3-15.66,8-2.2,1.13-4.68,2-6.39,3.7a10.16,10.16,0,0,1-9.72,3c-2.68,3-5,5.4-7.13,7.95a86.44,86.44,0,0,0-5.82,7.43,12.41,12.41,0,0,0-1.53,11.59,24.64,24.64,0,0,1,.89,7.93c0,6.52-.94,13.12-.3,19.56,1,9.72-1.44,18.84-3.64,28-1.61,6.7-6.43,10.41-13.87,11.84a62.35,62.35,0,0,1-1.41-7.44c-.48-7.66-.64-15.34-1.16-23a44.65,44.65,0,0,0-1.64-10c-3.33-10.91-11-16-22.4-15.51-5.18.23-10.38.11-15.55.43-6.06.38-12.36.16-18.11,1.78-23,6.45-40.7,19.94-51.9,41.34-4.91,9.39-9.52,18.93-14.33,28.38a35.16,35.16,0,0,1-2.78,3.8c-3.57-5.87-6.79-11.26-10.09-16.6-9.76-15.77-24.72-22-42.91-18.14a73,73,0,0,0-43,26.26c-2.85,3.56-5.7,5.75-10.72,5.55-9.23-.36-13.57,3.32-15.85,12.37a48.63,48.63,0,0,0-1.28,8.67c-.42,6.53-.35,13.1-1,19.6a27.27,27.27,0,0,1-3,10.19c-5.49,9.81-11.7,19.22-17.09,29.08-2.66,4.86-4.17,10.36-6.16,15.58s-3.85,10.21-6.2,16.47c-4-6-6.64-11-10.29-15.21-8.13-9.36-16.81-18.24-25.16-27.42-6.31-6.94-14.22-11.65-22-16.59a76.9,76.9,0,0,1-12.21-9.48,21,21,0,0,0-9.11-5.45c-10.92-3.06-10.91-3.1-20.17,3.66l-1.09.79c-9,6.81-10.9,11.64-7.09,22.26a72.73,72.73,0,0,1,3.91,22.45,102.85,102.85,0,0,1-4.08,31.32c-.9,3.24-1.91,6.47-2.62,9.75-1.86,8.58-3.2,17.28-5.47,25.74a23.46,23.46,0,0,1-14.43,16.5c-1.48-3.85-3-7.31-4.08-10.9a8.83,8.83,0,0,1-.11-5.33c3.46-8.87,2.52-18.25,3.43-27.4.86-8.74,1.7-17.51,2-26.28.35-10.18-4.91-17-14-21.15-2.68-1.24-5.19-1.69-7.76-.37-5.19,2.67-10.54,5.16-15.35,8.42-3.54,2.41-6.38,5.21-10.56,1.42-.57-.52-1.68-.51-2.55-.63-10.84-1.58-21,1.66-31.12,4.67a7.12,7.12,0,0,0-2.87,1.73c-8.12,8.14-17.39,15.47-24,24.72a164.31,164.31,0,0,0-24.23,51.91c-5.39,19.66-2.46,38.1,12.61,53.27a38.27,38.27,0,0,0,18.12,10c21,5.12,39.72-.4,56.24-13.93,4.18-3.43,8-7.25,12-10.91,4.69-4.28,6.84-4.8,12-1.84,12.25,7,24.31,4.87,35.21-2.09,13.08-8.35,23.51-19.5,29.81-34.18,7.45-17.37,11.54-35.57,14.47-54.1,1-6,1.54-12.1,2.58-18.09.8-4.59,3.63-5.39,7.08-2.26a19.21,19.21,0,0,1,1.81,2c7.35,8.86,14.75,17.68,22,26.61a37.72,37.72,0,0,1,4.73,7.39c3,6.26.88,10.31-6.84,12.76-.58-2.36-1.11-4.69-1.73-7-.88-3.25-1.48-6.63-2.83-9.69-1.67-3.81-5.19-5.73-8.84-4.46-5.91,2-12.21,4.08-14.78,10.75-2.5,6.5-5.37,13-6.88,19.72-2.18,9.71,1.37,17.61,9.66,23.45,11.37,8,23.84,6.42,35.82,3.24,10.22-2.71,19.43-8.47,27.65-15.31,8-6.65,11.79-15.34,10.75-25.76-.42-4.22-1.69-8.36-2.65-12.52-.53-2.29-1.21-4.54-2.14-8,7.32,3,12.91,1.47,19.15-3.24-.52,4.8-.86,8.06-1.23,11.32-3.41,29.56-6.64,59.15-10.29,88.68-3.85,31.12-8.34,62.15-12.1,93.27-2.89,24-5.13,48-7.55,72-1.71,17.06-3.44,34.12-4.67,51.21a23.47,23.47,0,0,0,2.62,11.56c1.11,2.22,4.67,4.93,6.76,4.64a104.77,104.77,0,0,0,19.36-5c1.77-.61,3.24-3.17,4.09-5.15a29.1,29.1,0,0,0,1.82-7.83c.89-6.93,1.51-13.89,2.35-20.83,1.4-11.65,3.19-23.25,4.28-34.92,1.49-15.93,1.09-32,5.22-47.68a31.24,31.24,0,0,0,.48-4c3.77-29.08,6.87-58.27,11.48-87.21,5.67-35.66,12.06-71.18,13.9-107.32.37-7.24.63-7.21,7.8-7.83,43.85-3.82,72.46-27.67,88.85-67.61.37-.9,1.25-1.59,2.27-2.84,5.19,8.28,11.88,13.75,20.83,15.88,3.7.88,7.6.9,11.38,1.51,18.92,3,34.44-3.38,47.65-16.73,8.39-8.49,16.92-16.82,23.2-28.23l18.77,8.29c.44-.14,2.31-.87,4.24-1.35,8.69-2.14,17.14-4.31,24.29-10.54,5-4.32,9.89-8.48,13.87-13.74a101.9,101.9,0,0,0,15.69-29.8c4.44-13.44,4-27.49,5.47-41.29.12-1.07-.43-2.2-.56-3.32a5.11,5.11,0,0,1,0-2.64c4.71-9.15,10.12-17.59,22-20.1.62,2.63,1.31,4.92,1.68,7.26,1.41,8.9,2.34,17.91,4.18,26.72,2.26,10.82,9.37,18.45,18.82,23.41,6.24,3.28,13.38,3.73,20.5,2.66,11.19-1.69,20.87-7.1,30.49-12.49,4.36-2.43,8-2.88,12.57-.36a42,42,0,0,0,28.81,4.54,83.18,83.18,0,0,0,32-13.94c1.36-1,2.74-1.85,5-3.36-.56,3.56-1.08,5.9-1.26,8.28-.29,4-.47,8-.48,12a43.26,43.26,0,0,0,.57,9.4,191.89,191.89,0,0,0,5.17,19.62,84.58,84.58,0,0,0,17.82,30.83c8.83,9.65,21.23,9.79,32.69,12.46a2,2,0,0,0,.67-.06c6.36-.92,11.16-6.53,11.61-13.32.11-1.76.26-3.8,1.18-5.18,3.64-5.46,2-10.59-1.23-15.1-2.59-3.59-6.16-6.52-9.53-9.48-4-3.54-8.92-11.94-9-16.68-.18-11-.22-22.06-.31-33.08,0-1.13,0-2.26,0-3.39,0-9-.7-18,0-27,1.43-17.74,3.42-35.44,5.57-53.11,1.25-10.29,3.14-20.5,5-30.71,1.33-7.5,3.37-14.88,4.42-22.4,1.45-10.47,2.2-21,3.35-31.53,1.64-15,3.56-29.87,5-44.84,1.21-12.35,2-24.74,2.87-37.12.48-7,1-14,.94-20.93a31.32,31.32,0,0,0-7.4-19.94c-3.53-4.3-6.72-9.12-13.44-9C1579.21,762.33,1577.63,760.73,1576.05,759.87ZM686.29,1151c-.55-3-.27-7.28-2-10.32-6.17-10.56-16.53-15.65-28-18.13-5.11-1.11-10.71-.41-16,0-26.08,1.87-49.09,10.84-67.66,29.82-3.47,3.55-6.65,7.42-10.37,10.68a117.88,117.88,0,0,0-27.33,35.79c-4.68,9.19-10.58,17.83-13.58,27.84-4.2,14-9,27.87-12.18,42.1-2.64,11.71-3.65,23.82-4.88,35.81s.24,23.86,2.38,35.64c1.37,7.52,3.68,14.89,4.71,22.45,1.87,13.8,8.33,25.63,14.94,37.44.85,1.52,2.45,2.62,3.72,3.9,2.21,2.22,4.78,4.18,6.59,6.69,6.32,8.81,16.16,12.69,24.83,18.22a5.53,5.53,0,0,0,1.93.62c4.37.8,8.78,1.43,13.12,2.39,6.93,1.54,13.79,1.27,20.82.5,11.71-1.28,22-6.45,32.6-10.8,17.89-7.32,34.54-16.6,48.58-30.11a20.26,20.26,0,0,1,3.14-2.57,51.44,51.44,0,0,0,15.56-14.83c.91-1.33,2.48-2.2,4.63-4,1.56,4.28,2.94,7.53,3.94,10.9,3,10.11,5.5,20.37,8.79,30.39,4.4,13.45,9.39,26.71,14.05,40.09,2.38,6.84,4.14,13.83,3.88,21.18a6.76,6.76,0,0,0,.43,3.32c3.33,6,2.69,12.71,3.19,19.16a87.37,87.37,0,0,1-8.28,45.39c-3,6.29-6.71,12.27-10.3,18.26a25.41,25.41,0,0,1-12.7,10.75c-3.35,1.33-6.75,2.56-10.06,4-13,5.58-25.93,5.06-38.83,0a21.82,21.82,0,0,1-7.26-4.64c-7.57-7.56-12.82-16.4-17-26.46-6-14.38-4.09-30.43,7.59-40.94,5.51-5,11.68-9.21,17.25-14.12a81.21,81.21,0,0,0,11.07-11.64,9.3,9.3,0,0,0,1.12-7.52c-1.61-4.51-3.31-9-7.48-12.42-5.66-4.65-13.62-7.07-19.81-3.35-7.31,4.38-14.12,9.62-20.93,14.8-3.57,2.71-6.49,6.26-10,9.08A41.35,41.35,0,0,0,598,1492.07c-2.86,6.62-5.47,13.35-7.9,20.13-4.14,11.55-3.57,23.11.91,34.42,8.31,21,19.58,40,37.65,54.34,11.82,9.36,26,11.85,40.16,14.67a6,6,0,0,0,2-.14c10.45-1.63,20.89-3.33,31.35-4.9,14-2.11,25.31-9.22,34.8-19.35,4.16-4.43,7.82-9.34,11.58-14.13,10-12.76,16.29-27.56,21.39-42.65,5.83-17.29,5.79-35.55,5.28-53.63-.15-5.32-1.87-10.6-2.88-15.91-.42-2.21-1.28-4.43-1.18-6.62.25-5.59-1.44-10.63-3.37-15.73-7-18.56-13.87-37.18-20.87-55.74-6.23-16.54-9.84-33.78-13.06-51.06-2.44-13-3.86-26.3-5.51-39.49-.32-2.61.34-5.35.59-8,.31-3.32,1-6.65.9-10-.13-4-1-8,.93-12a6.12,6.12,0,0,0-.06-4.57c-2.92-6.47-4.9-13.79-13.07-16.07a7.74,7.74,0,0,1-2.84-1.8c-4.9-4.36-10-3.23-15-.46-2,1.08-3.58,3.2-5.62,3.67-8.66,2-8.22,9.91-10,15.79-1.3,4.2-.68,9.42.43,13.85,2.23,9,1.48,17.93.94,26.93-1.28,21-10.06,38.62-25,53.12A205.38,205.38,0,0,1,629,1381.26a104.77,104.77,0,0,1-33.3,14.51c-15,3.51-30.83-2.07-38.13-14.18-5.08-8.44-9.87-17.43-12.62-26.8a138.37,138.37,0,0,1-2.64-69c1.85-8.59,4.64-17,6.16-25.64a107.84,107.84,0,0,1,9.07-27.4,153.44,153.44,0,0,1,21.82-33.58c4.65-5.46,9-11.2,14-16.37,4.33-4.52,9.31-8.42,14-12.6,8-7.17,17.31-12.26,27.9-14.1a48.61,48.61,0,0,1,29.73,4c5.3,2.54,9.45,1.73,13.45-2.25C680.62,1155.74,683.1,1153.8,686.29,1151Zm835.51-5.37c-1.75,4.32-3,7.19-4.08,10.08Q1453.19,1320,1311.9,1425.59q-112.34,83.61-250.23,109.15c-3.68.68-7.3,1.68-11.06,2.56-.66,7.82-1.26,14.88-1.87,22.15,214.94-27.36,418-193.21,489.46-395.3C1533.16,1158.45,1528,1152.59,1521.8,1145.64Zm-136.56-209c-4.68.17-8.45.06-12.15.49a23.91,23.91,0,0,1-16.14-3.59c-5.06-3.2-10.68-4.48-16.7-4.76-10-.45-19.62-2.39-28.62-7.18a29.43,29.43,0,0,0-23.62-2.16c-9.83,3.21-19.71,6.34-29.36,10.05-11.44,4.4-17.07,13.7-20.85,26.19a56.85,56.85,0,0,0,6.25-.66c1.74-.41,3.36-1.38,5.11-1.72,3.82-.74,7.75,2.07,6.61,5.39-2.72,8-2.57,17.82-13.14,21.22-4.21,1.35-4.73,4-2.72,8.12,1,2,2.12,3.85,3.1,5.62-5.85,7.48-6.12,8.44-4.87,17,.95,6.49.57,7-6,8.75-1.92.51-4.6.08-5,3.25,19.23,1.4,38.36-4.37,56.92,2.11,2.1-5.11,3.21-9.92,5.8-13.73a214.92,214.92,0,0,1,17-21.82c2.39-2.68,6.42-4,9.86-5.57s7.22-2.53,10.64-4.18q10.67-5.16,21.08-10.78c8.71-4.69,18.21-6.54,27.79-8.07a18.3,18.3,0,0,1,8.68.54c12,4.26,23.49,9.38,31.15,20.36a55.13,55.13,0,0,0,3.84,4.44c5.09-7.77,8.55-17.4,8.14-22.42-2.15-.31-4.37-.55-6.56-1-12.29-2.32-18.53-8.56-20.82-20.85-.38-2-.13-4.16-.8-6-1.52-4.18-2.75-8.72-5.34-12.2a17.83,17.83,0,0,0-22.68-5C1373.21,926.27,1382.29,928.2,1385.24,936.61ZM787.8,1545.84c26.35,13.33,159.25,28.07,184.26,20.55-.69-6.78-1.39-13.61-2.18-21.25-59.59,1-118.27-5.32-176.52-20.51ZM584.6,1059c-6.25,2.6-6.48,2.75-5.42,7.72a22.91,22.91,0,0,1-1.37,13.84c-4.08,10-2.1,19.44,3.8,28.15,2.68,4,5.4,4.15,8.86.79a11.72,11.72,0,0,0,2.82-4.49c1.8-5.2,4.27-9.86,8.52-13.53,2.41-2.08,2.15-4.37.5-7.19-1.39-2.37-1.84-5.37-2.33-8.16-.34-2,.11-4.06-.09-6.06-.36-3.6-1.8-4.69-5.41-4.13-2.12.32-4.2,1-6.44,1.48C586.84,1064.46,585.83,1062,584.6,1059Zm124.3,460.46a36.77,36.77,0,0,0,3.27-20,5.23,5.23,0,0,0-2.26-3.72c-7.85-3.77-15.82-7.26-23.64-10.78l-15.74,17.52C683.16,1509.32,695.39,1515.21,708.9,1519.45Zm678.81-609c1.17,0,2.3.08,3.41,0,3.93-.36,6-3.47,4.46-7.09a7.81,7.81,0,0,0-2.9-3.59c-8.71-5.06-17.38-10.25-26.42-14.66-2.3-1.12-7.35-.67-8.55,1-1.64,2.23-1.23,6.33-.9,9.54.29,2.76,2.77,3.95,5.51,3.89,3-.06,5.92.12,7.76,2.95C1374.29,908.86,1381,909.68,1387.71,910.43Zm-759.15,97.21c-7.44,4.73-7.9,8.4-2.25,13.49a53.89,53.89,0,0,0,4.78,3.74,12.06,12.06,0,0,1,5,7.68c1,5,3.65,6,8.23,3.67a9.2,9.2,0,0,0,4.29-12c-.8-1.86-1.78-3.64-2.53-5.52-3-7.53-4.91-8.44-12.79-6.12a8,8,0,0,1-1.91.11Zm705.93-96.29c-4.24-.34-6.46,1-7.53,3.82a4.9,4.9,0,0,0,2.5,6.33,54.32,54.32,0,0,0,11.7,4.9c3.61.93,6.9-3.37,5.07-6.33A18.69,18.69,0,0,0,1334.49,911.35ZM598.84,1452.19l-9.11,1.32C594.15,1457.83,594.15,1457.83,598.84,1452.19Z"/>
    <path class="e73c12ab-ee50-4850-8213-093beab73a6a" d="M652.65,1178c3.75,1.12,6.72,2.19,9.77,2.89a29.23,29.23,0,0,0,24.45-4.93,202.54,202.54,0,0,0,16.56-13.89,9.5,9.5,0,0,0,2.81-5.13c3.45-21.54-4.71-38-24-48.54-3.16-1.74-6.38-3.37-9.52-5.15-6.31-3.57-12.55-7.23-20.3-6-1,.17-2.15-.38-3.45-.64-1.39-3.47-.39-6.74.14-10,1.17-7.18,2.85-14.21,7.28-20.17,3-4,2.92-7.56-.24-11.61-3.63-4.65-3.32-5.22,1.08-9.53,1.13-1.11,2.31-2.17,3.35-3.35,2-2.34,2.07-4.81.44-7.45q-4.72-7.65-9.31-15.4c-2.08-3.5-.68-6.69,3.3-7.66.22-.06.45,0,.67-.09,11.74-2.33,14-.59,14.6,11.34,0,.9-.16,2,.24,2.66.59,1,1.61,2.51,2.46,2.53a3.89,3.89,0,0,0,2.84-2.2,43.43,43.43,0,0,0,2.08-7.81c.54-3,1.28-5.72,4.67-7.6,4.09,1.54,7,5.06,10.06,8.22,1.72,1.75,1.42,3.69-.08,5.45a21.75,21.75,0,0,1-2,1.81c-4.92,4.51-4.87,4.48-.93,9.79,2.55,3.44,4.78,7.13,7.43,10.49,4.15,5.25,8.86,6.56,14.71,4.25a16.7,16.7,0,0,0-2-.43c-8.42-.46-12.14-4.07-12.88-12.41-.21-2.36-.1-4.42,2.21-5.91a11.26,11.26,0,0,0,2.61-2.91c1.77-2.41,3.46-4.87,5.41-7.62-2.29-1.82-5.25-3.88-7.86-6.31-2.46-2.29-4.56-5-6.8-7.5-4-4.53-8.07-9.05-12.07-13.6-2.23-2.54-4.58-5-6.55-7.71-11.73-16.12-34.72-15.07-44.58,2.23-2.14,3.75-4.66,6.82-8.93,7.63-11.26,2.11-18.59,8.58-22.32,19.32-.11.32-.7.47-1.41.91-4.78-3.53-5-11-11.6-14.09-1.34,1.73-2.58,3.5-4,5.11a114.48,114.48,0,0,1-9.14,9.9c-3.3,3-6.34,2.15-7.85-2a20.48,20.48,0,0,1-.71-7.27c0-2.24.7-4.46.9-6.7a8.56,8.56,0,0,0-2.84-7.82c-2-1.8-3.22-4.79-4-7.48-2.44-8.91-4.47-17.93-6.75-26.88-1.77-7-3.63-13.92-5.53-20.85a8.71,8.71,0,0,1,2.4-8.71c5.34-5.58,6.68-12,4.69-19.35-1.46-5.44-2.53-11-3.79-16.48a34.76,34.76,0,0,0-8.85-16.46c-6.19-6.58-5.3-14.33,2-19.69,2.55-1.86,5.41-3.29,7.93-5.18a4.15,4.15,0,0,0,1.6-3.23,3.7,3.7,0,0,0-2.64-2.36c-3.74-.34-7.62-.77-11.28-.16-5.53.92-7.72-.08-8.09-5.54a27.82,27.82,0,0,1,.82-8c1.11-4.83,2.79-9.54,3.82-14.38,1.21-5.7,2.06-11.48,2.89-17.25.4-2.78.6-5.51,4-6.2s4.89,1.4,6.13,4.06a32,32,0,0,0,2.49,3.88c3.35-1.58,2.79-4.3,2.6-6.6-.49-5.91.31-11.13,5.25-15.28,1.25-1.05,1.85-3.69,1.67-5.5-1.07-11.15-.61-22.07,3.5-32.66a5.83,5.83,0,0,0-.08-3.91c-2.56-6.31-1.28-12.4.69-18.51.48-1.51,1.23-3.07,1.14-4.56s-.67-4-1.73-4.42-3.25.53-4.64,1.37c-1.08.66-1.66,2.1-2.53,3.12-5.56,6.51-10.74,13.4-16.8,19.39a38.17,38.17,0,0,0-12,26.34c-1.06,20.06-2.47,40.1-3.93,60.13-1.27,17.33-7.3,32.38-21,43.88-6.22,5.2-11.54,11.49-17.84,16.58-6.45,5.22-13.65,9.49-20.39,14.35a19.61,19.61,0,0,0-5.54,5.5c-7.22,12.25-18.09,19.92-31,24.86-2.81,1.08-6.23,1.08-9.32.86-13.95-1-27.9-2-41.81-3.4-4.56-.45-8.38.28-12,3.16A109.07,109.07,0,0,1,351,936.71c-6.32,3.74-8.86,8.66-8.61,16.16,2.44,71.91,16.08,141.49,42.74,208.43a598.46,598.46,0,0,0,89.47,153.93c4.55,5.67,6.73,11.64,7.76,18.92,1.3,9.26.9,18.91,4.68,27.78.11.26-.33.75-.8,1.72a47,47,0,0,1-3.91-3.48q-109.43-121.43-146.82-280.58a611.32,611.32,0,0,1-15.76-167.3c6.82-151.27,60.05-284.13,161-397C567.88,417.75,675.81,354,802.82,322.87A576,576,0,0,1,909,306.94q278.1-15,480.32,176.59c74.11,70.41,126.43,155.37,159.5,252.17,1.79,5.24,1.52,9.36-1.9,13.72a119.56,119.56,0,0,0-7.73,11.91c-5.35,8.82-7.73,18.5-5.72,28.58,2.92,14.64,2.22,29.14.47,43.78-1.55,13-2.6,26-3.91,39-.22,2.2-.61,4.38-1,7.36-2.82-1-5.09-1.67-7.27-2.56-25.39-10.34-51-12.39-77.19-2.78-7.4,2.72-15,5-22.48,7.38a52.31,52.31,0,0,1-9.19,2.2c-10.47,1.28-16.94-2.28-20.91-12a16.18,16.18,0,0,0-9.74-9.59c-10.09-3.9-20.1-8-30.2-11.91-5.11-2-9.12-5-11.09-10.17-1.81-4.78,0-7.8,5-7.58a20.94,20.94,0,0,0,11.07-2.19,4.69,4.69,0,0,1,3.27-.42c6.4,2,12.88,3.94,19,6.59,3.66,1.58,6.91,4.26,10.09,6.77,4.48,3.55,8.87,4,13.63.7a29.71,29.71,0,0,1,3.79-1.9c3.59,2.53,6.16,7.84,12.16,4.68-.45-5.71-4.08-9.34-8.46-11.4-9.75-4.59-19.87-8.42-29.85-12.51-1.24-.51-2.66-.6-3.89-1.13-4.67-2-9.14-3-14.18-.52-1.86.92-4.76-.09-7.15-.45-1.76-.27-3.44-1.14-5.2-1.38-6.26-.87-11.63-.62-15.26,6.29-2.56,4.86-7.14,8.65-10.81,12.92-1.75,2-3.72,1.83-6.12,1.11-13-3.91-14.43-3.17-20,9.26-.55,1.23-1.06,2.49-1.7,3.68-2.79,5.2-5.66,6.73-11,4.66-7.52-2.89-14.34-2.63-21.27,1.78-2.29,1.46-5.58,1.73-8.44,1.86-14.24.65-24.28,7.35-30.26,20.28-5.4,11.67-10.92,23.28-16.35,34.93a58.24,58.24,0,0,0-5.44,22.2c-.3,6.77-.61,13.53-.8,20.3-.13,4.32-1.68,7-6.26,8.31-4,1.15-7.78,3.46-11.52,5.5-5.92,3.23-11.61,6.91-17.65,9.91-4.06,2-6,5-5.31,9.17,2.33,13.91-1.88,26.19-8.18,38.28-2,3.83-2.5,8.55-3.2,12.93-1,6.67-1.63,13.41-2.54,20.1-.17,1.25-.93,2.42-1.67,4.22-2.79-1-5.25-2-7.72-2.89-2.19-.8-3-2.35-3.15-4.65-.52-9.84.17-19.45,5.43-28.12,2.1-3.47,3-6.8,1.64-10.87-2.23-6.88-1-13.89.23-20.79,2.54-14.2.61-27.9-4.72-41.13-3.16-7.85-6.87-15.49-10.33-23.22l-1.44.25c0,1.66-.06,3.31,0,5,.52,13.06.76,26.1,3.71,39,1.83,8,.65,16.17-1.13,24.18-3.72,16.73-7.35,33.48-11,50.21-1.43,6.48-1.45,6.51-8.14,7.57-21.15,3.36-39.43,12.27-54.66,27.52a20.17,20.17,0,0,1-9.12,5.33c-17.83,4.15-26.25,16.27-29.18,33.28-.8,4.65-1.31,9.35-2,14.68-2.57-.89-4.84-1.66-7.1-2.45a23.27,23.27,0,0,0-16.52-.06c-14.42,5.54-27.42,1.85-39.7-6.25-.56-.37-1-.86-1.57-1.29-5.73-4.66-7.5-4.41-11.79,2-3.73-1-7.59-2.25-11.5-3.18-3.5-.84-7.1-2.07-10.59-1.88-5.05.27-8.21-1.45-10.06-6.58.84-3.86,4.06-4.65,8.54-4-3.59-3.9-7.11-3-9.8-1.17-4.54,3.14-8.14,1.79-11.48-1.38-6.24-5.92-14-7.91-22.09-9.26-2.55-.43-4.44-.08-5.55,2.15,4.25,8,8.44,15.8,12.9,24.13-4.6,2.22-9.27,3.65-7.6,9.78,1.33,4.83,1.91,5.61,8.28,6.73l-7,25.19a22.33,22.33,0,0,1-3.59-.95c-8-3.49-15.82-2.69-23.56.86-5.11,2.34-10.24,4.63-15.79,7.14l-2.4-7.31c-3.78.24-7.36.34-10.9.75a5.82,5.82,0,0,0-3.55,1.66c-4.64,5.66-11.48,7.08-17.86,8.69-7.45,1.88-14.18,4.73-19.58,10.06-3.39,3.36-6.77,3.87-10.94,2.25-6.92-2.7-14-5-20.79-8-9.4-4.18-9.78-5.51-6.07-15.43-7.18-1.16-14.24-.69-21.27-.28-2.55.15-4.09,1.94-4,4.61s.59,5.37.77,8.07c.22,3.59.94,7.3.32,10.76-1.28,7.21,0,13.41,6,19.1-6.84,0-13-.84-18.89.23-6,1.11-11.77,4.08-17.94,6.34-6.44-4.72-6.39-4.69-11,2.49a20.45,20.45,0,0,1-3.86,4.67,6.74,6.74,0,0,1-9.73-.39c-3.51-3.61-6.57-7.8-6.64-13-.16-11.73.12-23.47.32-35.2C651.38,1181.2,652.06,1179.94,652.65,1178ZM342.8,932.77l1.45,1c4.4-3,9.33-5.51,13.09-9.19,5.53-5.4,11.7-7.11,19.1-6.37,12.8,1.29,25.6,2.44,38.43,3.37,3.52.26,7.45.37,10.61-.9,11.27-4.57,21.17-11.15,26.91-22.43a13.73,13.73,0,0,1,7.06-6.92c8-3.37,14.76-8.64,21-14.58,5.89-5.6,11.6-11.42,17.76-16.7,10.92-9.37,16.37-21.36,17.59-35.41,1.1-12.81,1.82-25.66,2.73-38.48.68-9.68,1.47-19.35,2.09-29,.66-10.26,5.31-18.34,12.57-25.43,5.47-5.34,11-10.88,15.13-17.24,5.36-8.31,11.42-12.45,21.32-8.82,2.61,1,5.17,1.09,7.19-1.75s5-3,7.51-.48c3,3.06,6.28,2.56,9.22.56a65.29,65.29,0,0,0,9.77-8.18c8.23-8.33,8.6-8.46,18.57-2,4.31,2.78,5.89,2.2,8.44-3.07-4.57-6-4.68-6.42-1.55-13.27,6-13.21,14-25.27,22.82-36.72a37,37,0,0,1,8.46-7.71c6.92-4.71,11.66-3.74,17,2.7,1.93,2.33,4.11,4.45,6,6.46,6.8-3.67,12.41-6.83,16-13.14,3-5.28,8.59-5.95,14.39-4.39,3.44.92,7,2,10.49,2.07,9.27.3,11.91,1.66,15,10.47,3.47,9.77,6.55,19.68,9.57,29.59,1.28,4.18,2.59,8.28,6.22,11,4.75,3.52,6.45,8.52,7.26,14,1.51,10.26,2.8,20.56,4.46,30.8q4.07,25.05,8.55,50c.61,3.38.72,7.35,5.44,9.22,5.66-3.6,11.33-7.7,17.44-11,7.54-4,12.26-10,16-17.6a297.93,297.93,0,0,1,17.65-31.18,430.2,430.2,0,0,0,43.64-86.88,145.36,145.36,0,0,1,11-23.15c9.15-15.82,18.84-31.33,28.39-46.91,3.89-6.35,7.54-12.93,12.13-18.73,5.29-6.67,6.66-13.83,6.45-22.08-.26-10.57.34-21.18,1-31.74a23,23,0,0,1,3-9.57c5.75-10,14.62-11,22.56-2.72,4,4.2,8,8.49,12,12.85,7-4.44,12.58-1.77,17.73,1.71,6.94,4.68,2,11.51,2.27,17.79,4.21,0,6.56,2.18,8.37,5.77,4.89,9.64,9.86,19.27,15.4,28.54,8.16,13.68,14.61,28,17.84,43.63,1.13,5.51,2.83,10.91,4.38,16.33a27.74,27.74,0,0,0,2,5c1.45,2.8,3.37,3.54,6.66,2.31a29.89,29.89,0,0,1,11.14-2.17c15.82.51,31.59,1.58,45.87,9.62.29.17.82-.1,2.17-.3,3.29-8,6.86-16.5,10.22-25,2.22-5.65,5.24-10.46,11.05-13,3.74-1.64,5.89-4.61,7.27-8.44,2.58-7.16,7.23-8.6,13.64-4.75a47,47,0,0,0,8.47,4c5.73,2,11.63,3.52,17.35,5.56,4.24,1.5,8.23,1.27,11.42-1.71,10.66-9.92,23.85-7.9,36.56-8,1.87,0,3.92,1.09,5.59,2.15,7.11,4.55,14,4.06,20.94-.36a57.54,57.54,0,0,1,10.25-5.16c7.47-2.86,12.14-1.4,17.3,4.84,2,2.34,4,4.63,6.46,7.55,1.82-2.32,2.83-4.07,4.27-5.33a47,47,0,0,1,6.92-5c4.21-2.51,8.68-4.6,12.83-7.2,2.85-1.78,5.26-4.25,8-6.2s6.16-2.9,9.62-1.58c5.48,2.1,10.34,5.3,11.7,11.29,2.59,11.41,11.92,16.28,19.61,22.51,4.75-3.51,9.22-6.22,12.92-9.73s6.76-7.84,10-11.88c4.28-5.29,10-8.4,16.22-10.58,6.9-2.41,9.36-.88,10.6,6.54.34,2,.4,4,.63,6.06a100.79,100.79,0,0,0,1.34,10.73c.81,3.67,2.91,7.08,6.86,7.51,5.23.55,10.56.13,16.29.13-.64-2.2-1.06-3.93-1.63-5.6-1.27-3.78-1.64-7.75.19-11.23,2.36-4.51.53-7.56-2.16-10.92-16.82-21-34.63-41.1-54.16-59.59-109.46-103.69-239.36-160.65-390-169.42a583.27,583.27,0,0,0-158.11,12.27Q633.47,383.12,501.35,527C427.3,607.77,379,702.18,355.82,809.38c-7.18,33.16-11.11,66.74-13,100.58C342.45,917.54,342.8,925.16,342.8,932.77Zm469-163.54A25.84,25.84,0,0,0,814,772c4.25,3.53,5.44,7.43,2.26,12.44a9.18,9.18,0,0,0-1.2,5.8c1,6.64-1.62,11.21-6.8,15.07s-5,4.38-1,9.77c7.57,10.14,17.54,17.33,28.26,23.82,7.28,4.41,13.64,6.54,20-1.2,2-2.38,5-3,8.09-1.8,7,2.65,9.3,9,5.85,15.7a6.46,6.46,0,0,0-.36,1.84c7.59,5.31,24.56,10.44,32.52,9.53-6.56-2.48-12.4-4.83-18.34-6.89a5.53,5.53,0,0,1-4.19-5.39c-.41-5.37.93-9.62,5.86-12.66,9.43-5.81,16-13.83,17.78-25.12.5-3.21,2.28-4.8,5.37-5,5.76-.4,9.52-3.52,12.11-8.49,2.4-4.6,5-9.09,7.48-13.63l6.5-1.12c-.64-8.95.79-17.71-1.54-26.37-1.21-4.51-.12-7.16,2.7-7.92s4.68,1,5.76,5.91c1.15,5.21,2.1,10.46,3.09,15.42,3.67.9,5.09-.67,5.08-3.32a49.71,49.71,0,0,0-.84-10.06c-1.53-7.27-3.43-14.47-5.21-21.7-2.19-8.93.25-16.93,4.86-24.52a5.21,5.21,0,0,1,6.36-2.52c2.63.74,3.29,2.88,3.26,5.29,0,1.58-.24,3.15-.35,4.73-.8,11.55,3.5,22.17,6.26,33,.3,1.21,2.56,1.93,3.92,2.87.67-1.27,1.73-2.49,1.93-3.84,1-6.45,1.89-12.92,2.49-19.41.57-6.24.67-12.52,1.1-18.78a69.49,69.49,0,0,1,1.18-10c1.59-7.27,3.82-14.41,5.14-21.71,1.26-6.94,3.82-14.13-1.27-20.83-.71-.93-.61-2.61-.57-3.94a141.65,141.65,0,0,1,.65-14.87,73.4,73.4,0,0,0-2.88-33.38c-4-11.89-3.16-22.94,6.16-32.65,4.37-4.56,5.52-10.55,3.25-17.55l-7.11,2.69c-2.36.91-5.29,2.05-6.83-.31a10.12,10.12,0,0,1-1.3-7.48,10.59,10.59,0,0,1,5.11-5.73c6.07-3,9-8.43,13.82-14.57-3.59-.21-5.67-.64-7.67-.39-5.56.7-7.11-.75-5.92-6.15.48-2.19,1.33-4.31,1.82-6.51a63.15,63.15,0,0,0,.76-21.89c-6.75,2.06-10.92-1.16-14.68-5.85a90.71,90.71,0,0,0-8.48-8.73c-3.8-3.63-6.2-3.69-9.72.05a13.6,13.6,0,0,0-3.35,5.72,53.44,53.44,0,0,0-1.59,11.33c-.24,9.47-.17,19-.14,28.43a30.89,30.89,0,0,1-5.92,18.3c-5.91,8.51-11.36,17.35-16.79,26.18-7.8,12.68-15.2,25.61-23.15,38.19A147.72,147.72,0,0,0,880,639.77a430.58,430.58,0,0,1-43.82,86.77C827.23,740.27,819.82,755,811.76,769.23Zm-110,166.44a12.29,12.29,0,0,0,3.11-10.39A25.64,25.64,0,0,1,708.21,909c2.11-3.67,3.27-7.36,1.83-11.6-.87-2.57.05-4.75,2.85-5,4.57-.4,7.26-2.21,8.74-6.86,1.15-3.6,5-3.65,7.45-.59.84,1,1.32,2.36,2.11,3.45a8.67,8.67,0,0,0,11.92,2.48,38.82,38.82,0,0,0,4.68-3.86c3.91-3.36,8.09-3.65,12.49-1.1a25.57,25.57,0,0,1,3.89,2.68,13.2,13.2,0,0,0,13.19,2.89c4.42-1.28,9-1.3,13.14,1.14a29.14,29.14,0,0,0,12,4c5.51.61,7.94,3.84,8.5,9.63.15,1.59.48,3.16.73,4.74l1.45.13c.95-2.89,2.12-5.73,2.8-8.67a11.84,11.84,0,0,1,7.55-8.81c5.61-2.36,11-5.35,16.66-7.47a41.31,41.31,0,0,1,13-3c10.25-.24,12.92,4.3,8.86,13.65-.88,2-2.93,4-1.47,6.43.67.08,1,.21,1.09.12,1.44-1.4,2.89-2.8,4.28-4.25,7.25-7.52,7.25-7.52,3.27-16,5.22-6.45,11.67-8.63,19.7-5.71a49.78,49.78,0,0,0,21.92,2.86,50.47,50.47,0,0,1,23.22,3c6.8,2.62,13.95,3.35,21.88.37a17.5,17.5,0,0,0-12-3.16c-7,.59-12.82-1.74-18.09-6.06-1.92-1.57-4-3-5.86-4.59-3.45-3.06-7.1-4.19-11.8-3a21,21,0,0,1-9.33.13c-10.32-2.2-20.7-4.22-30.25-9.25-3.27-1.72-7.3-1.95-11-3-2.3-.66-5.36-.87-6.64-2.44-3-3.73-7.05-5.52-11.05-7.52-9.32-4.66-18.32-9.83-25.83-17.14a105.57,105.57,0,0,1-10.79-12.08c-3.79-5-3.14-8.24,1.6-12.2,1.21-1,2.86-1.72,3.65-3,1.38-2.21,3.58-5.07,3.07-7.06-1.37-5.43.63-9.66,3.56-14.45l-7-7.16c-2.66,1.59-4.8,2.81-6.87,4.13-6.09,3.87-12.14,7.82-18.23,11.68-3.19,2-6.88,3.46-9.59,6a27.75,27.75,0,0,1-13.51,7.15c-16.18,3.5-32.28,2.67-48.32-.71-6.39-1.35-12.5-1.18-18.49,1.6-7.67,3.56-15.71,4-23.81,2.13-13.18-3-26.25-6.51-39.46-9.37a150.1,150.1,0,0,0-22-3.18c-8.06-.53-10,1.21-9.33,9.3,1.14,14.59,3,29.13,4.78,43.67a9.06,9.06,0,0,0,2.32,4.7c3,3.28,6.35,6.29,10.18,10,7.35-2.07,12.95,1.46,17.56,8.05,1.33,1.91,4.44,2.79,6.92,3.62s5.36.8,7.93,1.58c6,1.84,11.57.81,17-1.79,1.83-.87,3.67-1.75,5.57-2.46,6.88-2.54,10.28-1.46,14.12,4.91,1.65,2.74,3.39,4.81,6.82,4.48,4.21-.4,5.9,1.89,7.1,5.6,2.72,8.46,4.84,16.84,2.74,25.86a60.4,60.4,0,0,0-1.28,12.1C700.34,925.63,699.4,930.57,701.73,935.67Zm94.79,118.69c3.7-4.81,2.16-8.69,1.48-12.58-1.06-6-2.48-11.92-2.72-17.93-.4-9.57-2.85-18.28-8.79-25.79-8.43-10.64-7.32-21.72-1.79-33,2.32-4.74,6.43-5,9.25-.58,1.26,2,1.7,4.57,2.1,6.95s0,5,.51,7.4c1.1,5.69,4.31,8.74,10.21,9.64.74-5.77,1.64-11.51,2.18-17.29.62-6.72-.7-13-4.91-18.51a40.18,40.18,0,0,1-7.67-20c-1.17-9.84-2.38-19.67-3.57-29.51-.78-6.48-3.53-9.06-10-9.09a23.7,23.7,0,0,0-5.31.85,17.21,17.21,0,0,1-14.69-3.08c-8-5.75-8.09-5.66-15.47.31-.18.15-.34.3-.52.44-6.37,4.94-14.13,3.75-18.8-2.86-.71-1-1.6-1.87-3.31-3.85-.57,7.62-5.49,9.25-10.22,9.93-.58,4.29-.14,8.31-1.72,11.25-3.66,6.82-4.93,13.76-4.83,21.43.07,6.2-2.73,11.58-9.24,15.62-.61-4.4-1.59-7.92-1.48-11.41.29-9.22.84-18.45,1.69-27.63.8-8.59-1.07-16.48-4.88-24.53-6.33.85-10.3-2.13-12.84-7.7-1.29-2.83-3.88-3.67-6.85-2.55-2.74,1-5.48,2.1-8.13,3.33-5.72,2.64-11.53,3.55-17.75,1.85a92.73,92.73,0,0,0-9.64-1.61c-1.8,8-3,15.07-.49,22.21a28.59,28.59,0,0,1,.88,16.6c-1.78,7.31.43,13.83,5.66,19.27,2.66,2.76,5.37,5.48,8,8.26,3.57,3.75,5.75,8.1,5.14,13.44-.64,5.71,1.75,9.56,6.89,11.86,3.71,1.67,6.48,4,6.79,8.48a14,14,0,0,0,.84,2.93c1.11-.08,1.78-.11,2.44-.19,8.64-1,11,1,11,9.72,0,1.35-.32,2.71-.24,4a30,30,0,0,0,.94,4.19c6.56-7.54,5.32-16.9,8.63-24.43,6.86-1.39,6.77-1.34,9.71,4.08.77,1.42,2.28,2.44,3.45,3.65,1.29-1.35,3.08-2.49,3.76-4.09.85-2,.78-4.39,1.12-6.61,1.6-10.46,3.13-20.92,4.86-31.35.34-2.07,1.46-4,2.18-5.9,9.48,2.3,12.74,5.65,12.08,14.22-1,12.1,2,23.28,6.18,34.32,3.88,10.36,7.47,20.72,8.83,31.83.78,6.35,5.18,10.09,11.36,11.58.44-.71.85-1.07.87-1.45.67-14-1.19-27.5-9.8-39.21a53.31,53.31,0,0,1-8.64-19c-2.72-10.87-2.42-21.92-2.18-33a7.27,7.27,0,0,1,1.38-4.39c1.06-1.17,3-2.39,4.4-2.17s2.87,2,3.56,3.42.31,3.09.32,4.67c0,6.77,0,13.54,0,20.31.07,7.24.71,7.77,7.29,10.24a20.57,20.57,0,0,1,7.23,4.62,28.71,28.71,0,0,1,8.38,16.66,126.94,126.94,0,0,1,.63,20.17c-.2,4.95.54,9,5.23,11.42,6.55,3.32,10,8.93,11.83,15.7,1.61,5.87,3,11.81,4.57,17.68A67.3,67.3,0,0,0,796.52,1054.36Zm408-477.21c-10.15-.12-13.44,2.22-16.48,11.39-.28.85-.8,1.62-1.09,2.47-2.12,6.16-4.29,12.31-6.28,18.52-2.2,6.86-4,13.86-6.4,20.64-1.43,4-2.1,7.69-.5,11.78,2.27,5.83,1.26,11.56-1.25,17.08-1.12,2.46-2.54,4.78-3.69,7.23-.81,1.74-1.39,3.59-2.35,6.11,7.53.4,11.2,4.26,12,11.71,3-3.13,5.17-5.72,7.71-7.85,3-2.54,6.61-4.19,10.63-2.6,3.72,1.47,4.16,4.92,4.4,8.44.17,2.57,0,5.41,3,7.08a7.32,7.32,0,0,0,1-2c1.25-9.58,5.44-18.07,9.67-26.56a104.26,104.26,0,0,0,9.79-29.43,28.62,28.62,0,0,0-2-16.55c-.55-1.25-1.73-2.24-2.86-3.64-1.15,1.35-1.85,2.2-2.58,3-3.32,3.69-6.37,3.21-7.86-1.43a40.89,40.89,0,0,1-1.83-8.58c-.33-3.51-1.46-7.87.09-10.45,3.49-5.8,1.86-10.05-1.75-14.52C1205.47,578.53,1205.1,578,1204.51,577.15Zm21.12,174.38c.27-.67.53-1.34.79-2-6.28-2.32-13.23-3.62-18.64-7.24-5.66-3.77-13.38-5.42-17.23-13,6.57-2,12.38-3.6,18-5.61,6.06-2.17,8.67-8,12.42-13.18,3.18,2.89,6,5.44,8.79,8a4.4,4.4,0,0,0-.18-3.75c-2.6-5.18-2.59-5.14,1.31-9.29,1.3-1.39,2.41-3,3.89-4.79-8.16-5.48-16.39-4.06-25-4.3.17,2.52.31,4,.36,5.55a40.08,40.08,0,0,1,.06,6.75c-1.27,9-7.82,13.05-16.47,10.46-4.53-1.35-9.19-2.34-13.62-4a74.28,74.28,0,0,1-12.84-5.9c-4.32-2.61-5.13-6.61-2.86-11.16a78.17,78.17,0,0,1,4.33-6.86c1.11-1.75,2.49-3.84.48-5.41-1.13-.88-3.48-1-5-.48a32.38,32.38,0,0,0-7.06,3.81c-2.06,1.37-2.55,3.44-2.24,6,.58,4.68,1.07,9.39,1.21,14.1.1,3.11,1,5.08,4.19,6,3.57,1,5.4,3.85,6.63,7.16.86,2.33,1.76,4.64,2.63,7,2.37,6.27,6,10.87,13.31,11.91,4.41.63,5.11,2.69,3.92,6.78-.86,3-1.19,6.13-2.19,9.07-.5,1.47-1.8,3.55-3,3.74-3.67.56-5,3-5.6,6-1.42,7-2.57,14.13-3.65,21.23-.21,1.39.4,2.9.6,4.19,4.34.85,5.12-2,5.93-4.54,1-3.15,2.19-5.92,6.71-6,1.29,4.29,2.31,8.67,3.92,12.82,4.06,10.51,3.74,21.23,2,32-.88,5.29-3.91,6.66-8.76,4.08-2.58-1.38-5.08-2.95-7.51-4.58-3.2-2.16-5.87-1.69-8.3,1.21-1.16,1.38-2.5,2.61-3.68,4s-2.59,3.15-.72,4.66a6.47,6.47,0,0,0,4.81,1.2,10.86,10.86,0,0,0,5.16-3.06c2.73-2.91,5.65-2.61,8.55-.93a90.44,90.44,0,0,1,8.3,5.77c1.73,1.29,3.35,2.73,5.71,4.66.16-2.46.24-4,.37-5.45.49-5.82.28-11.82,1.76-17.37,1-3.6,1.62-6.88,1.14-10.5a49.3,49.3,0,0,1-.47-6.75c0-4.66.81-5.87,5.41-7.32,3.55-1.11,7.26-1.75,11.33-2.71a33.32,33.32,0,0,0-1.61-3c-.62-.93-1.53-1.69-2.08-2.65-2-3.61-.61-6.38,3.6-6.24,2.33.07,4.65,1.24,6.9,2.1a38.65,38.65,0,0,1,4.67,2.77,14,14,0,0,0-8.37-7.59c-5.64-2.29-11.34-4.42-16.94-6.81-4.63-2-9-4.4-10.5-10.47,1.35-.91,3-2.9,4.14-2.62,2.86.72,5.47,2.45,8.53,4,3.39-.34,4.7-2.35,4.66-6.29-.07-6.5,1.92-8,8.29-7C1219.25,749.94,1222.43,750.82,1225.63,751.53ZM1132.47,589c1.85,4.39,3.85,8.9,5.65,13.5a7.91,7.91,0,0,1-1.45,8.25c-1.67,2-4,3.69-6.44,2.36a8.55,8.55,0,0,1-3.52-5.17c-.59-2.57,0-5.38-.15-8.08a34.86,34.86,0,0,0-.92-4.79l-1.65-.25-3.62,8.31c-1.8,4.11-3,8.62-5.54,12.22-3.63,5.19-3.59,9.67-.45,15,4.32,7.32,7.94,15.06,11.81,22.62,4.14,8.08,10.76,14.89,16.33,22.23a4.69,4.69,0,0,0,6,1.63c2.47-1.05,3-3,2.75-5.55-.57-4.78-1.69-9.09-5.61-12.58-4.22-3.76-4.14-6.49-.88-11.25.64-.92,1.4-1.76,2.1-2.65a112.42,112.42,0,0,0,23-53.41c.85-5.8.08-7.3-5.55-8.82-7.76-2.09-15.77-3.3-22-8.34ZM923.59,1044.5c.66-2.17,1.12-3.77,1.63-5.35,1.42-4.34,3.21-5.89,6.6-5.21,3.95.79,6.56,2.79,6.77,7a201,201,0,0,0,2.84,22.06c.84,5.11,2.37,10.11,3.21,15.22.57,3.47,1.29,7.13-1.21,11.08-2.64,0-5.53.09-8.42,0-5.69-.2-9.83,2.29-12.94,6.81,4.08,4.94,7,10.85,14.7,11.67,2.2-3.49,5.08-6.84,6.49-10.72a10.36,10.36,0,0,1,6.08-6.62c2.62-1.12,5.69-1.74,6.55-4.83-1.54-2.74-3.62-5.1-4.23-7.78a161,161,0,0,1-2.7-18,12.92,12.92,0,0,1,.93-6.59c2.91-6,2.62-12.68,3.1-19s1.91-11.89,5.46-17.05a46.86,46.86,0,0,0,4.55-7.5c2.68-6.06-1-16.14-6.31-18.09-4.38-1.61-8.76-3.24-13.4-5C926.84,996.22,915.72,1027.42,923.59,1044.5Zm518.94-376c-1.89-.73-3.34-1.23-4.74-1.86-3.36-1.5-3.69-3.6-.85-6,1.2-1,2.81-1.5,4-2.51,4.58-3.94,9.81-7.42,13.4-12.14,5.29-7,9.33-14.85,14-22.27,1.46-2.32.86-4.2-.5-6.2-9.92-14.49-19.8-29-29.77-43.47-.75-1.07-2.15-1.69-3.56-2.76-1.31,8.89.83,13.15,7.33,16.89,1.48.85,2.42,2.86,3.32,4.5.72,1.32.65,3.17,1.55,4.27,3.42,4.12,3.31,8.64,2.09,13.42q-2.41,9.48-4.76,19c-2.43,9.8-7.58,17.93-16,23.49-7.29,4.83-15.11,8.85-22.67,13.28-1.22.71-2.3,1.65-4.35,3.15,11.37,6.47,22.46,5.1,33.52,3.87C1437.56,672.79,1441.06,673.36,1442.53,668.46ZM712.94,693c7.44-4.86,10.93-11.17,11-19,.08-4.42-1-8.93-2.08-13.26C720.22,654,719.62,647.41,723,641a11.32,11.32,0,0,0,1-3.21c.57-3-.6-4.67-3.78-5.06a41.39,41.39,0,0,1-7.22-1.52c-5.76-1.77-7.1-1.35-10.72,3.73-2.08,2.94-4.1,5.93-6.4,8.69-3.57,4.31-3.68,6.73-1.17,11.57,3.52,6.77,6.73,13.71,9.9,20.65,1.59,3.48,2.66,7.2,4.25,10.68A60.33,60.33,0,0,0,712.94,693Zm577.64-54.37c1.06-3.07,2.13-5,2.3-7,.28-3.12-.08-6.29-.1-9.44,0-7.22,1-9.05,7.81-11.63,10.22-3.84,16.31-11.12,18.13-21.67,1.63-9.44,2.53-19,3.72-28.34-2.85-2-4.74-.45-6.47.87-3,2.32-5.8,5-8.89,7.25-2.89,2.09-3.54,4.56-3.48,8.08a183.62,183.62,0,0,1-1,20.15c-.14,1.47-1.61,3.78-2.74,4-1.63.26-4.35-.56-5.14-1.83-1.85-3-2.89-6.49-4.15-9.82-.76-2-1.33-4-2-6.23a23.85,23.85,0,0,0-3.3.91,28.54,28.54,0,0,0-2.79,1.66C1281.47,598.93,1286.08,632.58,1290.58,638.6ZM620.09,703c-1.2-1.76-2.09-3.33-3.22-4.68-2.51-3-3.79-3.14-6.63-.46-3.1,2.94-5.73,6.44-9.11,9s-7.67,4.38-12,6.75a123.94,123.94,0,0,0,12.5,45.08c1.82-5.52,2.83-9.9,4.7-13.87,2-4.25,5.22-7.93,7.11-12.2a26.84,26.84,0,0,0,2.14-10.4C615.65,715.34,615.59,708.65,620.09,703ZM957.27,852.32c6.12-.78,11.1-1,15.85-2.12,11.8-2.83,18.2-15,13.77-25.94a12.19,12.19,0,0,1,1.22-12.12c1.23-1.88,2.71-3.77,3.2-5.87a5.46,5.46,0,0,0-1.74-4.4c-.8-.69-2.94-.43-4.15.13a11.23,11.23,0,0,0-3.46,3.15c-5.84,6.91-11.81,13.64-19.72,16.65C960.55,832.19,959,841.65,957.27,852.32ZM808.56,1104.43c-1.94-4.84-3.55-9.22-5.44-13.48-3.44-7.74-9.54-13.14-16.85-16.81a15.42,15.42,0,0,0-10.41-.83,44.72,44.72,0,0,1-17.23,2.06c-6.21-.53-8.79,2.51-8.73,8.78,0,2.93.12,5.86,0,8.79-.26,7.37.75,14.91-3.18,21.79a5.26,5.26,0,0,0-.39,3.94c2.2,5.86.47,11-2.33,16.11a7.66,7.66,0,0,0-.3,2.54c7.62-1.72,9.38-4.42,9-11.07a193.72,193.72,0,0,1,0-22.86c.16-2.59,1.8-6.13,3.88-7.38,9.14-5.48,18.07-12.71,29.59-7.56,1.2-.86,1.9-1.42,2.66-1.89,4.46-2.81,6.36-2.26,8.1,2.49.62,1.68.93,3.47,1.39,5.22l2.9,11ZM634.77,697.27c5.16-.18,5.68-3.48,6.55-6,1.69-4.86,4.08-8.87,8.82-11.42a7.82,7.82,0,0,0,3.73-4.53c1.37-7.07,6.15-10.64,12.16-13.3,2.93-1.3,4.32-3.64,4.5-6.92.28-4.86.89-9.69,1.39-15-4-4.49-5.14-4.71-10-.89a23.17,23.17,0,0,0-5.3,5.15c-7.09,10.94-14,22-20.85,33.08-1,1.56-1.27,3.54-1.94,5.49l7.71,1.71ZM1397.91,560.8a31.3,31.3,0,0,0-17,11.31c-3.34,4.24-7.14,8.11-10.52,12.32-1.32,1.65-2.68,3.74-2.87,5.74-.65,7.16-.86,14.36-1.1,21.56,0,1.17.61,2.36,1.21,4.5,1.28-1.86,2.29-2.8,2.63-3.93.65-2.15.84-4.42,1.33-6.61,1.27-5.65,4.63-7.55,10-5.45,1.85.73,3.46,2.08,5.22,3.07,1.28.73,2.62,1.34,4.45,2.26,1.69-4.83.75-9-.16-13.06-1.76-8-1.22-15.32,5.44-21.06C1399.82,568.57,1399.36,565.23,1397.91,560.8Zm-777,335.3,2,0c.76-4.58,2-9.14,2.17-13.74.21-5.26.7-10.23,4.29-14.15-5.14-7.35-5.85-7.55-16.31-4.33C612.3,875.4,612,886.84,620.93,896.1Zm479.21-266.47c-11.92-10.52-26.52-10.12-40.66-11.52-3.06-.3-6.1-.6-8.91,1.78.71.77,1,1.43,1.57,1.66,6.56,2.94,13.07,6,19.79,8.58A11.19,11.19,0,0,0,1079,630a26.42,26.42,0,0,1,16.55-.69A22.22,22.22,0,0,0,1100.14,629.63Zm-51.49,254.25c3.78,1.23,6.88,2.39,10.07,3.26,4.85,1.31,5.93.83,7.07-4.18,1.08-4.81,1.52-9.78,2.21-14.68.4-2.83.29-5.5-3-6.69a5.82,5.82,0,0,0-7.17,2.27C1053.61,869.73,1051,876.31,1048.65,883.88ZM985.55,660c6.19,1.26,10.59.3,14-3.57s1.22-8-.52-11.94a6.58,6.58,0,0,0-1-1.77c-1.14-1.26-2.78-3.64-3.5-3.4a7.19,7.19,0,0,0-4.17,3.75C988.55,648.27,987.28,653.71,985.55,660ZM606.21,924.26c2.17,7.3,4.08,13.45,5.81,19.65,1.46,5.21,2.33,5.84,7.37,5,.4-4.94.66-9.77,1.24-14.56.29-2.35-.33-4-2.38-5C614.45,927.65,610.57,926.1,606.21,924.26Zm586.46-60.74c.13-3,.25-5.66.37-8.37-3.75-.11-5.91,1-6,4C1186.94,861.67,1188.49,863.28,1192.67,863.52Z"/>
    <path class="e73c12ab-ee50-4850-8213-093beab73a6a" d="M1576.05,759.87c1.58.86,3.16,2.46,4.71,2.42,6.72-.15,9.91,4.67,13.44,9a31.32,31.32,0,0,1,7.4,19.94c.05,7-.46,14-.94,20.93-.86,12.38-1.66,24.77-2.87,37.12-1.47,15-3.39,29.89-5,44.84-1.15,10.51-1.9,21.06-3.35,31.53-1.05,7.52-3.09,14.9-4.42,22.4-1.82,10.21-3.71,20.42-5,30.71-2.15,17.67-4.14,35.37-5.57,53.11-.72,8.93,0,18,0,27,0,1.13,0,2.26,0,3.39.09,11,.13,22,.31,33.08.08,4.74,5,13.14,9,16.68,3.37,3,6.94,5.89,9.53,9.48,3.25,4.51,4.87,9.64,1.23,15.1-.92,1.38-1.07,3.42-1.18,5.18-.45,6.79-5.25,12.4-11.61,13.32a2,2,0,0,1-.67.06c-11.46-2.67-23.86-2.81-32.69-12.46a84.58,84.58,0,0,1-17.82-30.83,191.89,191.89,0,0,1-5.17-19.62,43.26,43.26,0,0,1-.57-9.4c0-4,.19-8,.48-12,.18-2.38.7-4.72,1.26-8.28-2.25,1.51-3.63,2.41-5,3.36a83.18,83.18,0,0,1-32,13.94,42,42,0,0,1-28.81-4.54c-4.6-2.52-8.21-2.07-12.57.36-9.62,5.39-19.3,10.8-30.49,12.49-7.12,1.07-14.26.62-20.5-2.66-9.45-5-16.56-12.59-18.82-23.41-1.84-8.81-2.77-17.82-4.18-26.72-.37-2.34-1.06-4.63-1.68-7.26-11.9,2.51-17.31,11-22,20.1a5.11,5.11,0,0,0,0,2.64c.13,1.12.68,2.25.56,3.32-1.49,13.8-1,27.85-5.47,41.29a101.9,101.9,0,0,1-15.69,29.8c-4,5.26-8.91,9.42-13.87,13.74-7.15,6.23-15.6,8.4-24.29,10.54-1.93.48-3.8,1.21-4.24,1.35l-18.77-8.29c-6.28,11.41-14.81,19.74-23.2,28.23-13.21,13.35-28.73,19.76-47.65,16.73-3.78-.61-7.68-.63-11.38-1.51-9-2.13-15.64-7.6-20.83-15.88-1,1.25-1.9,1.94-2.27,2.84-16.39,39.94-45,63.79-88.85,67.61-7.17.62-7.43.59-7.8,7.83-1.84,36.14-8.23,71.66-13.9,107.32-4.61,28.94-7.71,58.13-11.48,87.21a31.24,31.24,0,0,1-.48,4c-4.13,15.64-3.73,31.75-5.22,47.68-1.09,11.67-2.88,23.27-4.28,34.92-.84,6.94-1.46,13.9-2.35,20.83a29.1,29.1,0,0,1-1.82,7.83c-.85,2-2.32,4.54-4.09,5.15a104.77,104.77,0,0,1-19.36,5c-2.09.29-5.65-2.42-6.76-4.64a23.47,23.47,0,0,1-2.62-11.56c1.23-17.09,3-34.15,4.67-51.21,2.42-24,4.66-48.06,7.55-72,3.76-31.12,8.25-62.15,12.1-93.27,3.65-29.53,6.88-59.12,10.29-88.68.37-3.26.71-6.52,1.23-11.32-6.24,4.71-11.83,6.22-19.15,3.24.93,3.47,1.61,5.72,2.14,8,1,4.16,2.23,8.3,2.65,12.52,1,10.42-2.75,19.11-10.75,25.76-8.22,6.84-17.43,12.6-27.65,15.31-12,3.18-24.45,4.78-35.82-3.24-8.29-5.84-11.84-13.74-9.66-23.45,1.51-6.75,4.38-13.22,6.88-19.72,2.57-6.67,8.87-8.7,14.78-10.75,3.65-1.27,7.17.65,8.84,4.46,1.35,3.06,1.95,6.44,2.83,9.69.62,2.3,1.15,4.63,1.73,7,7.72-2.45,9.81-6.5,6.84-12.76a37.72,37.72,0,0,0-4.73-7.39c-7.26-8.93-14.66-17.75-22-26.61a19.21,19.21,0,0,0-1.81-2c-3.45-3.13-6.28-2.33-7.08,2.26-1,6-1.62,12.07-2.58,18.09-2.93,18.53-7,36.73-14.47,54.1-6.3,14.68-16.73,25.83-29.81,34.18-10.9,7-23,9.08-35.21,2.09-5.21-3-7.36-2.44-12,1.84-4,3.66-7.85,7.48-12,10.91-16.52,13.53-35.27,19-56.24,13.93a38.27,38.27,0,0,1-18.12-10c-15.07-15.17-18-33.61-12.61-53.27a164.31,164.31,0,0,1,24.23-51.91c6.58-9.25,15.85-16.58,24-24.72a7.12,7.12,0,0,1,2.87-1.73c10.15-3,20.28-6.25,31.12-4.67.87.12,2,.11,2.55.63,4.18,3.79,7,1,10.56-1.42,4.81-3.26,10.16-5.75,15.35-8.42,2.57-1.32,5.08-.87,7.76.37,9.08,4.2,14.34,11,14,21.15-.31,8.77-1.15,17.54-2,26.28-.91,9.15,0,18.53-3.43,27.4a8.83,8.83,0,0,0,.11,5.33c1.09,3.59,2.6,7,4.08,10.9a23.46,23.46,0,0,0,14.43-16.5c2.27-8.46,3.61-17.16,5.47-25.74.71-3.28,1.72-6.51,2.62-9.75a102.85,102.85,0,0,0,4.08-31.32,72.73,72.73,0,0,0-3.91-22.45c-3.81-10.62-1.9-15.45,7.09-22.26l1.09-.79c9.26-6.76,9.25-6.72,20.17-3.66a21,21,0,0,1,9.11,5.45,76.9,76.9,0,0,0,12.21,9.48c7.81,4.94,15.72,9.65,22,16.59,8.35,9.18,17,18.06,25.16,27.42,3.65,4.2,6.32,9.25,10.29,15.21,2.35-6.26,4.26-11.37,6.2-16.47s3.5-10.72,6.16-15.58c5.39-9.86,11.6-19.27,17.09-29.08a27.27,27.27,0,0,0,3-10.19c.68-6.5.61-13.07,1-19.6a48.63,48.63,0,0,1,1.28-8.67c2.28-9.05,6.62-12.73,15.85-12.37,5,.2,7.87-2,10.72-5.55a73,73,0,0,1,43-26.26c18.19-3.87,33.15,2.37,42.91,18.14,3.3,5.34,6.52,10.73,10.09,16.6a35.16,35.16,0,0,0,2.78-3.8c4.81-9.45,9.42-19,14.33-28.38,11.2-21.4,28.92-34.89,51.9-41.34,5.75-1.62,12-1.4,18.11-1.78,5.17-.32,10.37-.2,15.55-.43,11.43-.51,19.07,4.6,22.4,15.51a44.65,44.65,0,0,1,1.64,10c.52,7.65.68,15.33,1.16,23a62.35,62.35,0,0,0,1.41,7.44c7.44-1.43,12.26-5.14,13.87-11.84,2.2-9.16,4.61-18.28,3.64-28-.64-6.44.28-13,.3-19.56a24.64,24.64,0,0,0-.89-7.93,12.41,12.41,0,0,1,1.53-11.59,86.44,86.44,0,0,1,5.82-7.43c2.16-2.55,4.45-5,7.13-7.95a10.16,10.16,0,0,0,9.72-3c1.71-1.66,4.19-2.57,6.39-3.7,5.22-2.66,10.72-4.87,15.66-8,6.87-4.3,14.3-6.55,22.15-7.8,1.32-.21,3-.73,4-.19,6,3.33,12.83,5.27,17.47,11.12,8.14,10.26,13.09,21.44,12.79,34.79-.11,4.93.63,9.9,1.15,14.83.49,4.68,2.28,6.37,6.63,5.26,6.72-1.71,13.27-4.08,20.27-6.29,0-2.72.11-4.92,0-7.1a147.41,147.41,0,0,1,2.94-38.37c2.59-12.75,7.59-24.67,16-34.67a218.74,218.74,0,0,1,20.15-20.7c3.74-3.4,8.62-5.62,13.14-8.07,5.55-3,11.22-5.78,16.91-8.49,8.15-3.89,16.72-2.81,25.25-1.81a17.81,17.81,0,0,1,2,.53c8.89,2.14,8.83,1.72,10.88-7.33,4.58-20.29,6.69-40.88,8.6-61.52,1.1-11.9,2.24-23.79,3.29-35.7.82-9.28.58-18.6-1.74-27.59-2.82-10.9,1.75-19.35,7.65-27.6a6.67,6.67,0,0,1,2.12-1.53C1570.15,763.2,1572.83,761.7,1576.05,759.87Zm-506.34,443.91a22.49,22.49,0,0,0,3.89.54,46.35,46.35,0,0,0,7.37-.87c20.17-4.65,34.31-16.79,44.2-34.78,7.78-14.13,6-27.18-2.4-40.09-2.12-3.23-5.41-6-8.89-5-5.07,1.44-10.7,3.53-14.26,7.15-7.19,7.31-13.48,15.6-17.13,25.49-1.09,3-2.07,6.17-4,8.55-6.61,8.18-8.1,17.75-8.5,27.75-.08,2.25-.53,4.48-.64,6.73A38.25,38.25,0,0,0,1069.71,1203.78Zm-234.47,51.94c.69-8.43.55-8.66-7.17-12.25a9,9,0,0,1-2.94-1.62c-3-3.29-6.61-3-9.9-1.31a35.31,35.31,0,0,0-9.78,6.88c-12.68,13.74-20.26,30.23-24.82,48.19a22.69,22.69,0,0,0-.79,9.37c2.19,11.94,8,16.84,19.24,11,9-4.68,17.09-10.75,22.52-19.92,3.67-6.21,7-12.22,9-19.35C832.69,1269.72,834.7,1262.93,835.24,1255.72Zm643.49-228.6c0,2.7-.1,5.41,0,8.11.3,7.23,2.9,9.19,9.36,6.39,4.5-1.95,9.24-4.12,12.75-7.4,7.85-7.32,15-15.41,19.31-25.5,1.87-4.35,4-8.61,5.59-13,3.1-8.46,6.14-16.94,8.82-25.53,1.32-4.24.1-5.9-4.08-6.81-4.93-1.08-9.85-1.17-14.47,1.39-12.88,7.13-23.31,17-30.43,29.8C1480.06,1004.51,1478.15,1015.65,1478.73,1027.12Zm-238.67,56.22c-5.75.11-10.46,2.72-14.47,6.53-15.55,14.79-24.18,33.44-29.27,53.9-1.43,5.75,1.65,9,7.67,9.06a15.59,15.59,0,0,0,5.9-1.12c6.79-2.82,12.8-6.92,16.79-13.18,9.4-14.71,17.58-30,19.68-47.74C1247,1085,1245.79,1083.26,1240.06,1083.34Z"/>
    <path class="e73c12ab-ee50-4850-8213-093beab73a6a" d="M686.29,1151c-3.19,2.79-5.67,4.73-7.89,6.94-4,4-8.15,4.79-13.45,2.25a48.61,48.61,0,0,0-29.73-4c-10.59,1.84-19.85,6.93-27.9,14.1-4.69,4.18-9.67,8.08-14,12.6-5,5.17-9.3,10.91-14,16.37a153.44,153.44,0,0,0-21.82,33.58,107.84,107.84,0,0,0-9.07,27.4c-1.52,8.64-4.31,17-6.16,25.64a138.37,138.37,0,0,0,2.64,69c2.75,9.37,7.54,18.36,12.62,26.8,7.3,12.11,23.15,17.69,38.13,14.18a104.77,104.77,0,0,0,33.3-14.51,205.38,205.38,0,0,0,31.48-24.46c15-14.5,23.74-32.09,25-53.12.54-9,1.29-17.93-.94-26.93-1.11-4.43-1.73-9.65-.43-13.85,1.81-5.88,1.37-13.82,10-15.79,2-.47,3.66-2.59,5.62-3.67,5.05-2.77,10.13-3.9,15,.46a7.74,7.74,0,0,0,2.84,1.8c8.17,2.28,10.15,9.6,13.07,16.07a6.12,6.12,0,0,1,.06,4.57c-1.89,4-1.06,7.91-.93,12,.11,3.3-.59,6.63-.9,10-.25,2.68-.91,5.42-.59,8,1.65,13.19,3.07,26.44,5.51,39.49,3.22,17.28,6.83,34.52,13.06,51.06,7,18.56,13.84,37.18,20.87,55.74,1.93,5.1,3.62,10.14,3.37,15.73-.1,2.19.76,4.41,1.18,6.62,1,5.31,2.73,10.59,2.88,15.91.51,18.08.55,36.34-5.28,53.63-5.1,15.09-11.38,29.89-21.39,42.65-3.76,4.79-7.42,9.7-11.58,14.13-9.49,10.13-20.77,17.24-34.8,19.35-10.46,1.57-20.9,3.27-31.35,4.9a6,6,0,0,1-2,.14c-14.14-2.82-28.34-5.31-40.16-14.67-18.07-14.33-29.34-33.32-37.65-54.34-4.48-11.31-5-22.87-.91-34.42,2.43-6.78,5-13.51,7.9-20.13a41.35,41.35,0,0,1,12.46-15.78c3.5-2.82,6.42-6.37,10-9.08,6.81-5.18,13.62-10.42,20.93-14.8,6.19-3.72,14.15-1.3,19.81,3.35,4.17,3.42,5.87,7.91,7.48,12.42a9.3,9.3,0,0,1-1.12,7.52,81.21,81.21,0,0,1-11.07,11.64c-5.57,4.91-11.74,9.16-17.25,14.12-11.68,10.51-13.56,26.56-7.59,40.94,4.17,10.06,9.42,18.9,17,26.46a21.82,21.82,0,0,0,7.26,4.64c12.9,5.07,25.88,5.59,38.83,0,3.31-1.43,6.71-2.66,10.06-4a25.41,25.41,0,0,0,12.7-10.75c3.59-6,7.27-12,10.3-18.26a87.37,87.37,0,0,0,8.28-45.39c-.5-6.45.14-13.13-3.19-19.16a6.76,6.76,0,0,1-.43-3.32c.26-7.35-1.5-14.34-3.88-21.18-4.66-13.38-9.65-26.64-14.05-40.09-3.29-10-5.81-20.28-8.79-30.39-1-3.37-2.38-6.62-3.94-10.9-2.15,1.83-3.72,2.7-4.63,4a51.44,51.44,0,0,1-15.56,14.83,20.26,20.26,0,0,0-3.14,2.57c-14,13.51-30.69,22.79-48.58,30.11-10.61,4.35-20.89,9.52-32.6,10.8-7,.77-13.89,1-20.82-.5-4.34-1-8.75-1.59-13.12-2.39a5.53,5.53,0,0,1-1.93-.62c-8.67-5.53-18.51-9.41-24.83-18.22-1.81-2.51-4.38-4.47-6.59-6.69-1.27-1.28-2.87-2.38-3.72-3.9-6.61-11.81-13.07-23.64-14.94-37.44-1-7.56-3.34-14.93-4.71-22.45-2.14-11.78-3.61-23.68-2.38-35.64s2.24-24.1,4.88-35.81c3.21-14.23,8-28.11,12.18-42.1,3-10,8.9-18.65,13.58-27.84A117.88,117.88,0,0,1,562.21,1163c3.72-3.26,6.9-7.13,10.37-10.68,18.57-19,41.58-27.95,67.66-29.82,5.34-.38,10.94-1.08,16,0,11.42,2.48,21.78,7.57,28,18.13C686,1143.73,685.74,1148,686.29,1151Z"/>
    <path class="e73c12ab-ee50-4850-8213-093beab73a6a" d="M1521.8,1145.64c6.16,6.95,11.36,12.81,16.4,18.51-71.42,202.09-274.52,367.94-489.46,395.3.61-7.27,1.21-14.33,1.87-22.15,3.76-.88,7.38-1.88,11.06-2.56q137.68-25.76,250.23-109.15,141.49-105.33,205.82-269.87C1518.85,1152.83,1520.05,1150,1521.8,1145.64Z"/>
    <path class="e73c12ab-ee50-4850-8213-093beab73a6a" d="M1385.24,936.61c-3-8.41-12-10.34-13.44-18.09a17.83,17.83,0,0,1,22.68,5c2.59,3.48,3.82,8,5.34,12.2.67,1.86.42,4,.8,6,2.29,12.29,8.53,18.53,20.82,20.85,2.19.41,4.41.65,6.56,1,.41,5-3,14.65-8.14,22.42a55.13,55.13,0,0,1-3.84-4.44c-7.66-11-19.18-16.1-31.15-20.36a18.3,18.3,0,0,0-8.68-.54c-9.58,1.53-19.08,3.38-27.79,8.07q-10.41,5.63-21.08,10.78c-3.42,1.65-7.19,2.58-10.64,4.18s-7.47,2.89-9.86,5.57a214.92,214.92,0,0,0-17,21.82c-2.59,3.81-3.7,8.62-5.8,13.73-18.56-6.48-37.69-.71-56.92-2.11.41-3.17,3.09-2.74,5-3.25,6.61-1.77,7-2.26,6-8.75-1.25-8.58-1-9.54,4.87-17-1-1.77-2.14-3.65-3.1-5.62-2-4.11-1.49-6.77,2.72-8.12,10.57-3.4,10.42-13.27,13.14-21.22,1.14-3.32-2.79-6.13-6.61-5.39-1.75.34-3.37,1.31-5.11,1.72a56.85,56.85,0,0,1-6.25.66c3.78-12.49,9.41-21.79,20.85-26.19,9.65-3.71,19.53-6.84,29.36-10.05a29.43,29.43,0,0,1,23.62,2.16c9,4.79,18.64,6.73,28.62,7.18,6,.28,11.64,1.56,16.7,4.76a23.91,23.91,0,0,0,16.14,3.59C1376.79,936.67,1380.56,936.78,1385.24,936.61Z"/>
    <path class="e73c12ab-ee50-4850-8213-093beab73a6a" d="M787.8,1545.84l5.56-21.21c58.25,15.19,116.93,21.49,176.52,20.51.79,7.64,1.49,14.47,2.18,21.25C947.05,1573.91,814.15,1559.17,787.8,1545.84Z"/>
    <path class="e73c12ab-ee50-4850-8213-093beab73a6a" d="M584.6,1059c1.23,3,2.24,5.47,3.44,8.42,2.24-.52,4.32-1.16,6.44-1.48,3.61-.56,5,.53,5.41,4.13.2,2-.25,4.1.09,6.06.49,2.79.94,5.79,2.33,8.16,1.65,2.82,1.91,5.11-.5,7.19-4.25,3.67-6.72,8.33-8.52,13.53a11.72,11.72,0,0,1-2.82,4.49c-3.46,3.36-6.18,3.16-8.86-.79-5.9-8.71-7.88-18.11-3.8-28.15a22.91,22.91,0,0,0,1.37-13.84C578.12,1061.74,578.35,1061.59,584.6,1059Z"/>
    <path class="e73c12ab-ee50-4850-8213-093beab73a6a" d="M708.9,1519.45c-13.51-4.24-25.74-10.13-38.37-16.93L686.27,1485c7.82,3.52,15.79,7,23.64,10.78a5.23,5.23,0,0,1,2.26,3.72A36.77,36.77,0,0,1,708.9,1519.45Z"/>
    <path class="e73c12ab-ee50-4850-8213-093beab73a6a" d="M1387.71,910.43c-6.72-.75-13.42-1.57-17.63-8-1.84-2.83-4.74-3-7.76-2.95-2.74.06-5.22-1.13-5.51-3.89-.33-3.21-.74-7.31.9-9.54,1.2-1.64,6.25-2.09,8.55-1,9,4.41,17.71,9.6,26.42,14.66a7.81,7.81,0,0,1,2.9,3.59c1.52,3.62-.53,6.73-4.46,7.09C1390,910.51,1388.88,910.43,1387.71,910.43Z"/>
    <path class="e73c12ab-ee50-4850-8213-093beab73a6a" d="M628.56,1007.64l2.84,5.07a8,8,0,0,0,1.91-.11c7.88-2.32,9.76-1.41,12.79,6.12.75,1.88,1.73,3.66,2.53,5.52a9.2,9.2,0,0,1-4.29,12c-4.58,2.38-7.18,1.38-8.23-3.67a12.06,12.06,0,0,0-5-7.68,53.89,53.89,0,0,1-4.78-3.74C620.66,1016,621.12,1012.37,628.56,1007.64Z"/>
    <path class="e73c12ab-ee50-4850-8213-093beab73a6a" d="M1334.49,911.35a18.69,18.69,0,0,1,11.74,8.72c1.83,3-1.46,7.26-5.07,6.33a54.32,54.32,0,0,1-11.7-4.9,4.9,4.9,0,0,1-2.5-6.33C1328,912.37,1330.25,911,1334.49,911.35Z"/>
    <path class="e73c12ab-ee50-4850-8213-093beab73a6a" d="M598.84,1452.19c-4.69,5.64-4.69,5.64-9.11,1.32Z"/>
    <path d="M342.8,932.77c0-7.61-.35-15.23.06-22.81,1.85-33.84,5.78-67.42,13-100.58C379,702.18,427.3,607.77,501.35,527Q633.16,383.1,824.17,341.72a583.27,583.27,0,0,1,158.11-12.27c150.59,8.77,280.49,65.73,390,169.42,19.53,18.49,37.34,38.6,54.16,59.59,2.69,3.36,4.52,6.41,2.16,10.92-1.83,3.48-1.46,7.45-.19,11.23.57,1.67,1,3.4,1.63,5.6-5.73,0-11.06.42-16.29-.13-4-.43-6-3.84-6.86-7.51a100.79,100.79,0,0,1-1.34-10.73c-.23-2-.29-4.06-.63-6.06-1.24-7.42-3.7-8.95-10.6-6.54-6.26,2.18-11.94,5.29-16.22,10.58-3.26,4-6.28,8.34-10,11.88s-8.17,6.22-12.92,9.73c-7.69-6.23-17-11.1-19.61-22.51-1.36-6-6.22-9.19-11.7-11.29-3.46-1.32-6.73-.45-9.62,1.58s-5.17,4.42-8,6.2c-4.15,2.6-8.62,4.69-12.83,7.2a47,47,0,0,0-6.92,5c-1.44,1.26-2.45,3-4.27,5.33-2.5-2.92-4.51-5.21-6.46-7.55-5.16-6.24-9.83-7.7-17.3-4.84a57.54,57.54,0,0,0-10.25,5.16c-7,4.42-13.83,4.91-20.94.36-1.67-1.06-3.72-2.17-5.59-2.15-12.71.12-25.9-1.9-36.56,8-3.19,3-7.18,3.21-11.42,1.71-5.72-2-11.62-3.55-17.35-5.56a47,47,0,0,1-8.47-4c-6.41-3.85-11.06-2.41-13.64,4.75-1.38,3.83-3.53,6.8-7.27,8.44-5.81,2.57-8.83,7.38-11.05,13-3.36,8.54-6.93,17-10.22,25-1.35.2-1.88.47-2.17.3-14.28-8-30-9.11-45.87-9.62a29.89,29.89,0,0,0-11.14,2.17c-3.29,1.23-5.21.49-6.66-2.31a27.74,27.74,0,0,1-2-5c-1.55-5.42-3.25-10.82-4.38-16.33-3.23-15.68-9.68-29.95-17.84-43.63-5.54-9.27-10.51-18.9-15.4-28.54-1.81-3.59-4.16-5.74-8.37-5.77-.26-6.28,4.67-13.11-2.27-17.79-5.15-3.48-10.74-6.15-17.73-1.71-4.08-4.36-8-8.65-12-12.85C951.79,472,942.92,473,937.17,483a23,23,0,0,0-3,9.57c-.68,10.56-1.28,21.17-1,31.74.21,8.25-1.16,15.41-6.45,22.08-4.59,5.8-8.24,12.38-12.13,18.73C905,580.69,895.32,596.2,886.17,612a145.36,145.36,0,0,0-11,23.15,430.2,430.2,0,0,1-43.64,86.88,297.93,297.93,0,0,0-17.65,31.18c-3.72,7.65-8.44,13.56-16,17.6-6.11,3.27-11.78,7.37-17.44,11-4.72-1.87-4.83-5.84-5.44-9.22q-4.47-25-8.55-50c-1.66-10.24-3-20.54-4.46-30.8-.81-5.49-2.51-10.49-7.26-14-3.63-2.69-4.94-6.79-6.22-11-3-9.91-6.1-19.82-9.57-29.59-3.13-8.81-5.77-10.17-15-10.47-3.52-.11-7.05-1.15-10.49-2.07-5.8-1.56-11.38-.89-14.39,4.39-3.6,6.31-9.21,9.47-16,13.14-1.87-2-4-4.13-6-6.46-5.34-6.44-10.08-7.41-17-2.7a37,37,0,0,0-8.46,7.71c-8.84,11.45-16.79,23.51-22.82,36.72-3.13,6.85-3,7.31,1.55,13.27-2.55,5.27-4.13,5.85-8.44,3.07-10-6.43-10.34-6.3-18.57,2a65.29,65.29,0,0,1-9.77,8.18c-2.94,2-6.21,2.5-9.22-.56-2.51-2.55-5.38-2.5-7.51.48s-4.58,2.7-7.19,1.75c-9.9-3.63-16,.51-21.32,8.82-4.11,6.36-9.66,11.9-15.13,17.24-7.26,7.09-11.91,15.17-12.57,25.43-.62,9.68-1.41,19.35-2.09,29-.91,12.82-1.63,25.67-2.73,38.48-1.22,14.05-6.67,26-17.59,35.41-6.16,5.28-11.87,11.1-17.76,16.7-6.25,5.94-13,11.21-21,14.58a13.73,13.73,0,0,0-7.06,6.92c-5.74,11.28-15.64,17.86-26.91,22.43-3.16,1.27-7.09,1.16-10.61.9-12.83-.93-25.63-2.08-38.43-3.37-7.4-.74-13.57,1-19.1,6.37-3.76,3.68-8.69,6.17-13.09,9.19Z"/>
    <path d="M811.76,769.23c8.06-14.2,15.47-29,24.44-42.69A430.58,430.58,0,0,0,880,639.77a147.72,147.72,0,0,1,13.57-27.9c7.95-12.58,15.35-25.51,23.15-38.19,5.43-8.83,10.88-17.67,16.79-26.18a30.89,30.89,0,0,0,5.92-18.3c0-9.48-.1-19,.14-28.43a53.44,53.44,0,0,1,1.59-11.33,13.6,13.6,0,0,1,3.35-5.72c3.52-3.74,5.92-3.68,9.72-.05a90.71,90.71,0,0,1,8.48,8.73c3.76,4.69,7.93,7.91,14.68,5.85a63.15,63.15,0,0,1-.76,21.89c-.49,2.2-1.34,4.32-1.82,6.51-1.19,5.4.36,6.85,5.92,6.15,2-.25,4.08.18,7.67.39-4.86,6.14-7.75,11.61-13.82,14.57a10.59,10.59,0,0,0-5.11,5.73,10.12,10.12,0,0,0,1.3,7.48c1.54,2.36,4.47,1.22,6.83.31l7.11-2.69c2.27,7,1.12,13-3.25,17.55-9.32,9.71-10.15,20.76-6.16,32.65a73.4,73.4,0,0,1,2.88,33.38,141.65,141.65,0,0,0-.65,14.87c0,1.33-.14,3,.57,3.94,5.09,6.7,2.53,13.89,1.27,20.83-1.32,7.3-3.55,14.44-5.14,21.71a69.49,69.49,0,0,0-1.18,10c-.43,6.26-.53,12.54-1.1,18.78-.6,6.49-1.51,13-2.49,19.41-.2,1.35-1.26,2.57-1.93,3.84-1.36-.94-3.62-1.66-3.92-2.87-2.76-10.88-7.06-21.5-6.26-33,.11-1.58.33-3.15.35-4.73,0-2.41-.63-4.55-3.26-5.29a5.21,5.21,0,0,0-6.36,2.52c-4.61,7.59-7.05,15.59-4.86,24.52,1.78,7.23,3.68,14.43,5.21,21.7a49.71,49.71,0,0,1,.84,10.06c0,2.65-1.41,4.22-5.08,3.32-1-5-1.94-10.21-3.09-15.42-1.08-4.88-2.94-6.67-5.76-5.91s-3.91,3.41-2.7,7.92c2.33,8.66.9,17.42,1.54,26.37l-6.5,1.12c-2.5,4.54-5.08,9-7.48,13.63-2.59,5-6.35,8.09-12.11,8.49-3.09.22-4.87,1.81-5.37,5-1.76,11.29-8.35,19.31-17.78,25.12-4.93,3-6.27,7.29-5.86,12.66a5.53,5.53,0,0,0,4.19,5.39c5.94,2.06,11.78,4.41,18.34,6.89-8,.91-24.93-4.22-32.52-9.53a6.46,6.46,0,0,1,.36-1.84c3.45-6.7,1.11-13-5.85-15.7-3.08-1.17-6.13-.58-8.09,1.8-6.38,7.74-12.74,5.61-20,1.2-10.72-6.49-20.69-13.68-28.26-23.82-4-5.39-4.12-6,1-9.77s7.82-8.43,6.8-15.07a9.18,9.18,0,0,1,1.2-5.8c3.18-5,2-8.91-2.26-12.44A25.84,25.84,0,0,1,811.76,769.23ZM941.92,595.64c-4.14.24-6.09,2.77-7.7,5.47a89,89,0,0,0-4.92,9.63c-2.52,5.77-5.8,10.69-12.13,12.86-3.14,1.07-4.09,3.46-3.16,6.46,1,3.17,3.77,3,6.2,2.5,8.66-1.74,15.39-6.46,19.45-14.32C943.33,611.13,945.31,603.66,941.92,595.64Zm-14.31-6.54c-3.68,0-6.79-.1-9.9,0a7.29,7.29,0,0,0-6.55,4.07c-2,3.84-.58,6.59,3.71,7.27C921.23,601.48,926,597.65,927.61,589.1Z"/>
    <path d="M701.73,935.67c-2.33-5.1-1.39-10-1.26-14.83a60.4,60.4,0,0,1,1.28-12.1c2.1-9,0-17.4-2.74-25.86-1.2-3.71-2.89-6-7.1-5.6-3.43.33-5.17-1.74-6.82-4.48-3.84-6.37-7.24-7.45-14.12-4.91-1.9.71-3.74,1.59-5.57,2.46-5.47,2.6-11,3.63-17,1.79-2.57-.78-5.4-.73-7.93-1.58s-5.59-1.71-6.92-3.62c-4.61-6.59-10.21-10.12-17.56-8.05-3.83-3.73-7.15-6.74-10.18-10a9.06,9.06,0,0,1-2.32-4.7c-1.75-14.54-3.64-29.08-4.78-43.67-.63-8.09,1.27-9.83,9.33-9.3a150.1,150.1,0,0,1,22,3.18c13.21,2.86,26.28,6.36,39.46,9.37,8.1,1.85,16.14,1.43,23.81-2.13,6-2.78,12.1-3,18.49-1.6,16,3.38,32.14,4.21,48.32.71a27.75,27.75,0,0,0,13.51-7.15c2.71-2.52,6.4-4,9.59-6,6.09-3.86,12.14-7.81,18.23-11.68,2.07-1.32,4.21-2.54,6.87-4.13l7,7.16c-2.93,4.79-4.93,9-3.56,14.45.51,2-1.69,4.85-3.07,7.06-.79,1.26-2.44,2-3.65,3-4.74,4-5.39,7.16-1.6,12.2a105.57,105.57,0,0,0,10.79,12.08c7.51,7.31,16.51,12.48,25.83,17.14,4,2,8,3.79,11.05,7.52,1.28,1.57,4.34,1.78,6.64,2.44,3.66,1,7.69,1.26,11,3,9.55,5,19.93,7.05,30.25,9.25a21,21,0,0,0,9.33-.13c4.7-1.22,8.35-.09,11.8,3,1.86,1.64,3.94,3,5.86,4.59,5.27,4.32,11.12,6.65,18.09,6.06a17.5,17.5,0,0,1,12,3.16c-7.93,3-15.08,2.25-21.88-.37a50.47,50.47,0,0,0-23.22-3A49.78,49.78,0,0,1,889,877.45c-8-2.92-14.48-.74-19.7,5.71,4,8.5,4,8.5-3.27,16-1.39,1.45-2.84,2.85-4.28,4.25-.1.09-.42,0-1.09-.12-1.46-2.45.59-4.4,1.47-6.43,4.06-9.35,1.39-13.89-8.86-13.65a41.31,41.31,0,0,0-13,3c-5.69,2.12-11.05,5.11-16.66,7.47a11.84,11.84,0,0,0-7.55,8.81c-.68,2.94-1.85,5.78-2.8,8.67l-1.45-.13c-.25-1.58-.58-3.15-.73-4.74-.56-5.79-3-9-8.5-9.63a29.14,29.14,0,0,1-12-4c-4.13-2.44-8.72-2.42-13.14-1.14a13.2,13.2,0,0,1-13.19-2.89,25.57,25.57,0,0,0-3.89-2.68c-4.4-2.55-8.58-2.26-12.49,1.1a38.82,38.82,0,0,1-4.68,3.86,8.67,8.67,0,0,1-11.92-2.48c-.79-1.09-1.27-2.42-2.11-3.45-2.5-3.06-6.3-3-7.45.59-1.48,4.65-4.17,6.46-8.74,6.86-2.8.24-3.72,2.42-2.85,5,1.44,4.24.28,7.93-1.83,11.6a25.64,25.64,0,0,0-3.37,16.25A12.29,12.29,0,0,1,701.73,935.67Z"/>
    <path d="M796.52,1054.36a67.3,67.3,0,0,1-2.62-6.61c-1.61-5.87-3-11.81-4.57-17.68-1.85-6.77-5.28-12.38-11.83-15.7-4.69-2.37-5.43-6.47-5.23-11.42a126.94,126.94,0,0,0-.63-20.17,28.71,28.71,0,0,0-8.38-16.66A20.57,20.57,0,0,0,756,961.5c-6.58-2.47-7.22-3-7.29-10.24-.06-6.77,0-13.54,0-20.31,0-1.58.31-3.37-.32-4.67s-2.19-3.2-3.56-3.42-3.34,1-4.4,2.17a7.27,7.27,0,0,0-1.38,4.39c-.24,11.05-.54,22.1,2.18,33a53.31,53.31,0,0,0,8.64,19c8.61,11.71,10.47,25.16,9.8,39.21,0,.38-.43.74-.87,1.45-6.18-1.49-10.58-5.23-11.36-11.58-1.36-11.11-5-21.47-8.83-31.83-4.14-11-7.13-22.22-6.18-34.32.66-8.57-2.6-11.92-12.08-14.22-.72,1.9-1.84,3.83-2.18,5.9-1.73,10.43-3.26,20.89-4.86,31.35-.34,2.22-.27,4.6-1.12,6.61-.68,1.6-2.47,2.74-3.76,4.09-1.17-1.21-2.68-2.23-3.45-3.65-2.94-5.42-2.85-5.47-9.71-4.08-3.31,7.53-2.07,16.89-8.63,24.43a30,30,0,0,1-.94-4.19c-.08-1.34.25-2.7.24-4,0-8.71-2.36-10.77-11-9.72-.66.08-1.33.11-2.44.19a14,14,0,0,1-.84-2.93c-.31-4.44-3.08-6.81-6.79-8.48-5.14-2.3-7.53-6.15-6.89-11.86.61-5.34-1.57-9.69-5.14-13.44-2.65-2.78-5.36-5.5-8-8.26-5.23-5.44-7.44-12-5.66-19.27a28.59,28.59,0,0,0-.88-16.6c-2.47-7.14-1.31-14.18.49-22.21a92.73,92.73,0,0,1,9.64,1.61c6.22,1.7,12,.79,17.75-1.85,2.65-1.23,5.39-2.3,8.13-3.33,3-1.12,5.56-.28,6.85,2.55,2.54,5.57,6.51,8.55,12.84,7.7,3.81,8.05,5.68,15.94,4.88,24.53-.85,9.18-1.4,18.41-1.69,27.63-.11,3.49.87,7,1.48,11.41,6.51-4,9.31-9.42,9.24-15.62-.1-7.67,1.17-14.61,4.83-21.43,1.58-2.94,1.14-7,1.72-11.25,4.73-.68,9.65-2.31,10.22-9.93,1.71,2,2.6,2.85,3.31,3.85,4.67,6.61,12.43,7.8,18.8,2.86.18-.14.34-.29.52-.44,7.38-6,7.45-6.06,15.47-.31a17.21,17.21,0,0,0,14.69,3.08,23.7,23.7,0,0,1,5.31-.85c6.5,0,9.25,2.61,10,9.09,1.19,9.84,2.4,19.67,3.57,29.51a40.18,40.18,0,0,0,7.67,20c4.21,5.54,5.53,11.79,4.91,18.51-.54,5.78-1.44,11.52-2.18,17.29-5.9-.9-9.11-4-10.21-9.64-.47-2.4-.1-5-.51-7.4s-.84-5-2.1-6.95c-2.82-4.44-6.93-4.16-9.25.58-5.53,11.28-6.64,22.36,1.79,33,5.94,7.51,8.39,16.22,8.79,25.79.24,6,1.66,12,2.72,17.93C798.68,1045.67,800.22,1049.55,796.52,1054.36Z"/>
    <path d="M1204.51,577.15c.59.81,1,1.38,1.38,1.9,3.61,4.47,5.24,8.72,1.75,14.52-1.55,2.58-.42,6.94-.09,10.45a40.89,40.89,0,0,0,1.83,8.58c1.49,4.64,4.54,5.12,7.86,1.43.73-.82,1.43-1.67,2.58-3,1.13,1.4,2.31,2.39,2.86,3.64a28.62,28.62,0,0,1,2,16.55,104.26,104.26,0,0,1-9.79,29.43c-4.23,8.49-8.42,17-9.67,26.56a7.32,7.32,0,0,1-1,2c-3-1.67-2.83-4.51-3-7.08-.24-3.52-.68-7-4.4-8.44-4-1.59-7.61.06-10.63,2.6-2.54,2.13-4.68,4.72-7.71,7.85-.82-7.45-4.49-11.31-12-11.71,1-2.52,1.54-4.37,2.35-6.11,1.15-2.45,2.57-4.77,3.69-7.23,2.51-5.52,3.52-11.25,1.25-17.08-1.6-4.09-.93-7.78.5-11.78,2.4-6.78,4.2-13.78,6.4-20.64,2-6.21,4.16-12.36,6.28-18.52.29-.85.81-1.62,1.09-2.47C1191.07,579.37,1194.36,577,1204.51,577.15Z"/>
    <path d="M1225.63,751.53c-3.2-.71-6.38-1.59-9.62-2.1-6.37-1-8.36.51-8.29,7,0,3.94-1.27,5.95-4.66,6.29-3.06-1.5-5.67-3.23-8.53-4-1.11-.28-2.79,1.71-4.14,2.62,1.55,6.07,5.87,8.5,10.5,10.47,5.6,2.39,11.3,4.52,16.94,6.81a14,14,0,0,1,8.37,7.59,38.65,38.65,0,0,0-4.67-2.77c-2.25-.86-4.57-2-6.9-2.1-4.21-.14-5.65,2.63-3.6,6.24.55,1,1.46,1.72,2.08,2.65a33.32,33.32,0,0,1,1.61,3c-4.07,1-7.78,1.6-11.33,2.71-4.6,1.45-5.39,2.66-5.41,7.32a49.3,49.3,0,0,0,.47,6.75c.48,3.62-.18,6.9-1.14,10.5-1.48,5.55-1.27,11.55-1.76,17.37-.13,1.49-.21,3-.37,5.45-2.36-1.93-4-3.37-5.71-4.66a90.44,90.44,0,0,0-8.3-5.77c-2.9-1.68-5.82-2-8.55.93a10.86,10.86,0,0,1-5.16,3.06,6.47,6.47,0,0,1-4.81-1.2c-1.87-1.51-.49-3.27.72-4.66s2.52-2.59,3.68-4c2.43-2.9,5.1-3.37,8.3-1.21,2.43,1.63,4.93,3.2,7.51,4.58,4.85,2.58,7.88,1.21,8.76-4.08,1.78-10.8,2.1-21.52-2-32-1.61-4.15-2.63-8.53-3.92-12.82-4.52.08-5.71,2.85-6.71,6-.81,2.56-1.59,5.39-5.93,4.54-.2-1.29-.81-2.8-.6-4.19,1.08-7.1,2.23-14.2,3.65-21.23.58-2.91,1.93-5.39,5.6-6,1.19-.19,2.49-2.27,3-3.74,1-2.94,1.33-6.08,2.19-9.07,1.19-4.09.49-6.15-3.92-6.78-7.32-1-10.94-5.64-13.31-11.91-.87-2.32-1.77-4.63-2.63-7-1.23-3.31-3.06-6.18-6.63-7.16-3.22-.88-4.09-2.85-4.19-6-.14-4.71-.63-9.42-1.21-14.1-.31-2.51.18-4.58,2.24-6a32.38,32.38,0,0,1,7.06-3.81c1.47-.5,3.82-.4,5,.48,2,1.57.63,3.66-.48,5.41a78.17,78.17,0,0,0-4.33,6.86c-2.27,4.55-1.46,8.55,2.86,11.16a74.28,74.28,0,0,0,12.84,5.9c4.43,1.63,9.09,2.62,13.62,4,8.65,2.59,15.2-1.48,16.47-10.46a40.08,40.08,0,0,0-.06-6.75c0-1.52-.19-3-.36-5.55,8.58.24,16.81-1.18,25,4.3-1.48,1.84-2.59,3.4-3.89,4.79-3.9,4.15-3.91,4.11-1.31,9.29a4.4,4.4,0,0,1,.18,3.75c-2.8-2.56-5.61-5.11-8.79-8-3.75,5.14-6.36,11-12.42,13.18-5.66,2-11.47,3.59-18,5.61,3.85,7.59,11.57,9.24,17.23,13,5.41,3.62,12.36,4.92,18.64,7.24C1226.16,750.19,1225.9,750.86,1225.63,751.53Z"/>
    <path d="M1132.47,589l9.86-14.79c6.23,5,14.24,6.25,22,8.34,5.63,1.52,6.4,3,5.55,8.82a112.42,112.42,0,0,1-23,53.41c-.7.89-1.46,1.73-2.1,2.65-3.26,4.76-3.34,7.49.88,11.25,3.92,3.49,5,7.8,5.61,12.58.3,2.51-.28,4.5-2.75,5.55a4.69,4.69,0,0,1-6-1.63c-5.57-7.34-12.19-14.15-16.33-22.23-3.87-7.56-7.49-15.3-11.81-22.62-3.14-5.31-3.18-9.79.45-15,2.52-3.6,3.74-8.11,5.54-12.22l3.62-8.31,1.65.25a34.86,34.86,0,0,1,.92,4.79c.14,2.7-.44,5.51.15,8.08a8.55,8.55,0,0,0,3.52,5.17c2.42,1.33,4.77-.31,6.44-2.36a7.91,7.91,0,0,0,1.45-8.25C1136.32,597.91,1134.32,593.4,1132.47,589Zm26.6,16.71c-1.26-2.27-1.82-4.8-3.34-5.68-2.52-1.46-4.68.25-5.94,2.72-2,3.79-4.2,7.48-5.61,11.47a11.15,11.15,0,0,0,.21,7.1c1.45,3.8,6,4.22,7.82.64C1154.86,616.87,1156.74,611.36,1159.07,605.72Z"/>
    <path d="M923.59,1044.5c-7.87-17.08,3.25-48.28,19.7-57.87,4.64,1.72,9,3.35,13.4,5,5.33,1.95,9,12,6.31,18.09a46.86,46.86,0,0,1-4.55,7.5c-3.55,5.16-5,10.69-5.46,17.05s-.19,12.91-3.1,19a12.92,12.92,0,0,0-.93,6.59,161,161,0,0,0,2.7,18c.61,2.68,2.69,5,4.23,7.78-.86,3.09-3.93,3.71-6.55,4.83a10.36,10.36,0,0,0-6.08,6.62c-1.41,3.88-4.29,7.23-6.49,10.72-7.7-.82-10.62-6.73-14.7-11.67,3.11-4.52,7.25-7,12.94-6.81,2.89.11,5.78,0,8.42,0,2.5-4,1.78-7.61,1.21-11.08-.84-5.11-2.37-10.11-3.21-15.22a201,201,0,0,1-2.84-22.06c-.21-4.23-2.82-6.23-6.77-7-3.39-.68-5.18.87-6.6,5.21C924.71,1040.73,924.25,1042.33,923.59,1044.5Z"/>
    <path d="M1442.53,668.46c-1.47,4.9-5,4.33-7.94,4.66-11.06,1.23-22.15,2.6-33.52-3.87,2-1.5,3.13-2.44,4.35-3.15,7.56-4.43,15.38-8.45,22.67-13.28,8.38-5.56,13.53-13.69,16-23.49q2.35-9.5,4.76-19c1.22-4.78,1.33-9.3-2.09-13.42-.9-1.1-.83-3-1.55-4.27-.9-1.64-1.84-3.65-3.32-4.5-6.5-3.74-8.64-8-7.33-16.89,1.41,1.07,2.81,1.69,3.56,2.76,10,14.46,19.85,29,29.77,43.47,1.36,2,2,3.88.5,6.2-4.69,7.42-8.73,15.32-14,22.27-3.59,4.72-8.82,8.2-13.4,12.14-1.18,1-2.79,1.52-4,2.51-2.84,2.37-2.51,4.47.85,6C1439.19,667.23,1440.64,667.73,1442.53,668.46Z"/>
    <path d="M712.94,693a60.33,60.33,0,0,1-4-6.46c-1.59-3.48-2.66-7.2-4.25-10.68-3.17-6.94-6.38-13.88-9.9-20.65-2.51-4.84-2.4-7.26,1.17-11.57,2.3-2.76,4.32-5.75,6.4-8.69,3.62-5.08,5-5.5,10.72-3.73a41.39,41.39,0,0,0,7.22,1.52c3.18.39,4.35,2,3.78,5.06a11.32,11.32,0,0,1-1,3.21c-3.42,6.43-2.82,13-1.13,19.75,1.09,4.33,2.16,8.84,2.08,13.26C723.87,681.8,720.38,688.11,712.94,693Z"/>
    <path d="M1290.58,638.6c-4.5-6-9.11-39.67-8.16-53a28.54,28.54,0,0,1,2.79-1.66,23.85,23.85,0,0,1,3.3-.91c.7,2.2,1.27,4.25,2,6.23,1.26,3.33,2.3,6.84,4.15,9.82.79,1.27,3.51,2.09,5.14,1.83,1.13-.19,2.6-2.5,2.74-4a183.62,183.62,0,0,0,1-20.15c-.06-3.52.59-6,3.48-8.08,3.09-2.24,5.85-4.93,8.89-7.25,1.73-1.32,3.62-2.86,6.47-.87-1.19,9.32-2.09,18.9-3.72,28.34-1.82,10.55-7.91,17.83-18.13,21.67-6.84,2.58-7.85,4.41-7.81,11.63,0,3.15.38,6.32.1,9.44C1292.71,633.63,1291.64,635.53,1290.58,638.6Z"/>
    <path d="M620.09,703c-4.5,5.69-4.44,12.38-4.49,19.19a26.84,26.84,0,0,1-2.14,10.4c-1.89,4.27-5.11,8-7.11,12.2-1.87,4-2.88,8.35-4.7,13.87a123.94,123.94,0,0,1-12.5-45.08c4.31-2.37,8.47-4.12,12-6.75s6-6,9.11-9c2.84-2.68,4.12-2.55,6.63.46C618,699.63,618.89,701.2,620.09,703Z"/>
    <path d="M957.27,852.32c1.74-10.67,3.28-20.13,5-30.52,7.91-3,13.88-9.74,19.72-16.65a11.23,11.23,0,0,1,3.46-3.15c1.21-.56,3.35-.82,4.15-.13a5.46,5.46,0,0,1,1.74,4.4c-.49,2.1-2,4-3.2,5.87a12.19,12.19,0,0,0-1.22,12.12c4.43,11-2,23.11-13.77,25.94C968.37,851.34,963.39,851.54,957.27,852.32Z"/>
    <path d="M808.56,1104.43l-7.31.89-2.9-11c-.46-1.75-.77-3.54-1.39-5.22-1.74-4.75-3.64-5.3-8.1-2.49-.76.47-1.46,1-2.66,1.89-11.52-5.15-20.45,2.08-29.59,7.56-2.08,1.25-3.72,4.79-3.88,7.38a193.72,193.72,0,0,0,0,22.86c.36,6.65-1.4,9.35-9,11.07a7.66,7.66,0,0,1,.3-2.54c2.8-5.09,4.53-10.25,2.33-16.11a5.26,5.26,0,0,1,.39-3.94c3.93-6.88,2.92-14.42,3.18-21.79.1-2.93,0-5.86,0-8.79-.06-6.27,2.52-9.31,8.73-8.78a44.72,44.72,0,0,0,17.23-2.06,15.42,15.42,0,0,1,10.41.83c7.31,3.67,13.41,9.07,16.85,16.81C805,1095.21,806.62,1099.59,808.56,1104.43Z"/>
    <path d="M634.77,697.27l6.74-12.56L633.8,683c.67-2,1-3.93,1.94-5.49,6.85-11.09,13.76-22.14,20.85-33.08a23.17,23.17,0,0,1,5.3-5.15c4.89-3.82,6.07-3.6,10,.89-.5,5.27-1.11,10.1-1.39,15-.18,3.28-1.57,5.62-4.5,6.92-6,2.66-10.79,6.23-12.16,13.3a7.82,7.82,0,0,1-3.73,4.53c-4.74,2.55-7.13,6.56-8.82,11.42C640.45,693.79,639.93,697.09,634.77,697.27Z"/>
    <path d="M1397.91,560.8c1.45,4.43,1.91,7.77-1.43,10.65-6.66,5.74-7.2,13.11-5.44,21.06.91,4.11,1.85,8.23.16,13.06-1.83-.92-3.17-1.53-4.45-2.26-1.76-1-3.37-2.34-5.22-3.07-5.35-2.1-8.71-.2-10,5.45-.49,2.19-.68,4.46-1.33,6.61-.34,1.13-1.35,2.07-2.63,3.93-.6-2.14-1.25-3.33-1.21-4.5.24-7.2.45-14.4,1.1-21.56.19-2,1.55-4.09,2.87-5.74,3.38-4.21,7.18-8.08,10.52-12.32A31.3,31.3,0,0,1,1397.91,560.8Z"/>
    <path d="M620.93,896.1c-8.95-9.26-8.63-20.7-7.9-32.19,10.46-3.22,11.17-3,16.31,4.33-3.59,3.92-4.08,8.89-4.29,14.15-.18,4.6-1.41,9.16-2.17,13.74Z"/>
    <path d="M1100.14,629.63a22.22,22.22,0,0,1-4.57-.36A26.42,26.42,0,0,0,1079,630a11.19,11.19,0,0,1-7.09.17c-6.72-2.54-13.23-5.64-19.79-8.58-.52-.23-.86-.89-1.57-1.66,2.81-2.38,5.85-2.08,8.91-1.78C1073.62,619.51,1088.22,619.11,1100.14,629.63Z"/>
    <path d="M1048.65,883.88c2.3-7.57,5-14.15,9.19-20a5.82,5.82,0,0,1,7.17-2.27c3.28,1.19,3.39,3.86,3,6.69-.69,4.9-1.13,9.87-2.21,14.68-1.14,5-2.22,5.49-7.07,4.18C1055.53,886.27,1052.43,885.11,1048.65,883.88Z"/>
    <path d="M985.55,660c1.73-6.24,3-11.68,4.84-16.93a7.19,7.19,0,0,1,4.17-3.75c.72-.24,2.36,2.14,3.5,3.4a6.58,6.58,0,0,1,1,1.77c1.74,3.92,4,7.94.52,11.94S991.74,661.21,985.55,660Z"/>
    <path d="M606.21,924.26c4.36,1.84,8.24,3.39,12,5.13,2,.94,2.67,2.63,2.38,5-.58,4.79-.84,9.62-1.24,14.56-5,.82-5.91.19-7.37-5C610.29,937.71,608.38,931.56,606.21,924.26Z"/>
    <path d="M1192.67,863.52c-4.18-.24-5.73-1.85-5.64-4.37.1-3,2.26-4.11,6-4C1192.92,857.86,1192.8,860.49,1192.67,863.52Z"/>
    <path d="M1069.71,1203.78a38.25,38.25,0,0,1-.35-4.56c.11-2.25.56-4.48.64-6.73.4-10,1.89-19.57,8.5-27.75,1.92-2.38,2.9-5.6,4-8.55,3.65-9.89,9.94-18.18,17.13-25.49,3.56-3.62,9.19-5.71,14.26-7.15,3.48-1,6.77,1.8,8.89,5,8.42,12.91,10.18,26,2.4,40.09-9.89,18-24,30.13-44.2,34.78a46.35,46.35,0,0,1-7.37.87A22.49,22.49,0,0,1,1069.71,1203.78Z"/>
    <path d="M835.25,1255.72c-.55,7.21-2.56,14-4.6,21-2.08,7.13-5.38,13.14-9,19.35-5.43,9.17-13.53,15.24-22.52,19.92-11.28,5.87-17.05,1-19.24-11a22.69,22.69,0,0,1,.79-9.37c4.56-18,12.14-34.45,24.82-48.19a35.31,35.31,0,0,1,9.78-6.88c3.29-1.7,6.92-2,9.9,1.31a9,9,0,0,0,2.94,1.62C835.79,1247.06,835.93,1247.29,835.25,1255.72Z"/>
    <path d="M1478.73,1027.12c-.58-11.47,1.33-22.61,6.87-32.59,7.12-12.82,17.55-22.67,30.43-29.8,4.62-2.56,9.54-2.47,14.47-1.39,4.18.91,5.4,2.57,4.08,6.81-2.68,8.59-5.72,17.07-8.82,25.53-1.63,4.43-3.72,8.69-5.59,13-4.33,10.09-11.46,18.18-19.31,25.5-3.51,3.28-8.25,5.45-12.75,7.4-6.46,2.8-9.06.84-9.36-6.39C1478.63,1032.53,1478.73,1029.82,1478.73,1027.12Z"/>
    <path d="M1240.06,1083.34c5.73-.08,7,1.65,6.3,7.45-2.1,17.77-10.28,33-19.68,47.74-4,6.26-10,10.36-16.79,13.18a15.59,15.59,0,0,1-5.9,1.12c-6,0-9.1-3.31-7.67-9.06,5.09-20.46,13.72-39.11,29.27-53.9C1229.6,1086.06,1234.31,1083.45,1240.06,1083.34Z"/>
    <path class="e73c12ab-ee50-4850-8213-093beab73a6a" d="M941.92,595.64c3.39,8,1.41,15.49-2.26,22.6-4.06,7.86-10.79,12.58-19.45,14.32-2.43.49-5.22.67-6.2-2.5-.93-3,0-5.39,3.16-6.46,6.33-2.17,9.61-7.09,12.13-12.86a89,89,0,0,1,4.92-9.63C935.83,598.41,937.78,595.88,941.92,595.64Zm-2.59,5.15c-4.44,4.13-5.87,8.66-7.75,12.85-2.48,5.53-5.8,10.14-11.65,12.54-.83.34-1.4,1.33-2.44,2.37C930,629.51,940.17,616.9,939.33,600.79Z"/>
    <path class="e73c12ab-ee50-4850-8213-093beab73a6a" d="M927.61,589.1c-1.58,8.55-6.38,12.38-12.74,11.37-4.29-.68-5.69-3.43-3.71-7.27a7.29,7.29,0,0,1,6.55-4.07C920.82,589,923.93,589.1,927.61,589.1Zm-13.44,7.54c3.67.8,6.16.57,7.94-2.95C918.58,592.55,915.74,591.55,914.17,596.64Z"/>
    <path class="e73c12ab-ee50-4850-8213-093beab73a6a" d="M1159.07,605.72c-2.33,5.64-4.21,11.15-6.86,16.25-1.86,3.58-6.37,3.16-7.82-.64a11.15,11.15,0,0,1-.21-7.1c1.41-4,3.66-7.68,5.61-11.47,1.26-2.47,3.42-4.18,5.94-2.72C1157.25,600.92,1157.81,603.45,1159.07,605.72Z"/>
    <path d="M939.33,600.79c.84,16.11-9.29,28.72-21.84,27.76,1-1,1.61-2,2.44-2.37,5.85-2.4,9.17-7,11.65-12.54C933.46,609.45,934.89,604.92,939.33,600.79Z"/>
    <path d="M914.17,596.64c1.57-5.09,4.41-4.09,7.94-2.95C920.33,597.21,917.84,597.44,914.17,596.64Z"/>
  </g>
</svg>
