<svg id="a632a0e5-1d18-455a-a02c-f4da0dc14a27" data-name="Layer 1" xmlns="http://www.w3.org/2000/svg" width="176.22mm" height="171.82mm" viewBox="0 0 499.53 487.04">
  <defs>
    <style>
      .f8750c1e-a89f-411d-b7b0-d39be6f4d596 {
        fill: #00005b;
      }

      .ecd1c704-115f-4469-8a59-4af7b5e4cbf1 {
        fill: #99f;
      }
    </style>
  </defs>
  <g id="a6c32e88-951b-4073-964a-2df970501a01" data-name="Layer 2">
    <g id="f33a0e28-f0d4-436d-8d01-51fc1cc4bd4b" data-name="Surfaces">
      <g id="e9f7af75-d4c8-4310-816c-80327d437191" data-name="Video Audio Surface">
        <g id="b8b4d1ff-8f13-4269-9089-e6639c53d28d" data-name="Outline no shadow">
          <path id="a0750606-0dc6-4681-82e7-e49a0488d2fc" data-name="path4" class="f8750c1e-a89f-411d-b7b0-d39be6f4d596" d="M88.46,0H411.07a88.39,88.39,0,0,1,88.46,88.46V398.58A88.39,88.39,0,0,1,411.07,487H88.46A88.39,88.39,0,0,1,0,398.58V88.46A88.39,88.39,0,0,1,88.46,0Z"/>
        </g>
      </g>
    </g>
    <g id="b4ed333d-6f75-4947-939a-784419a34773" data-name="Outlined Mnemonics Logos">
      <g id="f1cf0bf8-2b95-496b-bb5b-9fc79f2625a6" data-name="Pr">
        <path id="a8e9ab43-57d1-4e38-b569-d64868e88cac" data-name="path9" class="ecd1c704-115f-4469-8a59-4af7b5e4cbf1" d="M118.64,341.55V127.38c0-1.46.62-2.29,2.08-2.29,3.54,0,6.87,0,11.65-.21,5-.21,10.2-.21,15.82-.41s11.66-.21,18.11-.42,12.7-.21,18.94-.21c17.07,0,31.22,2.08,42.88,6.45A74.43,74.43,0,0,1,256,147.36a66.27,66.27,0,0,1,15.19,23.73A79.71,79.71,0,0,1,276,198.15q0,26.83-12.49,44.33A71.32,71.32,0,0,1,230,267.87c-14.15,5.2-29.76,7.08-46.83,7.08-5,0-8.33,0-10.41-.21s-5-.21-8.95-.21v66.81a2.59,2.59,0,0,1-2.29,2.92H121.13C119.47,344.26,118.64,343.42,118.64,341.55ZM164,165.26v69.93c2.91.21,5.62.42,8.12.42h11a77.63,77.63,0,0,0,23.93-3.75,35.69,35.69,0,0,0,17.07-11c4.37-5.2,6.45-12.28,6.45-21.44a34.23,34.23,0,0,0-4.78-18.52A30.22,30.22,0,0,0,211.26,169a61.09,61.09,0,0,0-24.56-4.17c-5.41,0-10.2,0-14.16.21a47.22,47.22,0,0,0-8.53.21Z"/>
        <path id="bbc0401c-ca1e-42d1-a0ed-d86d477cb514" data-name="path11" class="ecd1c704-115f-4469-8a59-4af7b5e4cbf1" d="M305.13,177.33h36.42a4.69,4.69,0,0,1,4.37,3.33,21,21,0,0,1,1.25,5.21c.42,2.08.83,4.37,1,6.45.21,2.29.42,4.78.42,7.49a77.42,77.42,0,0,1,22.27-17.9,64.49,64.49,0,0,1,31.63-8.12,2.61,2.61,0,0,1,2.92,2.29V217.5c0,1.67-1,2.29-3.33,2.29a90.65,90.65,0,0,0-22.48,2.08,85.48,85.48,0,0,0-17.48,5.62,32.37,32.37,0,0,0-10.62,7.7V341.34c0,2.08-.83,2.92-2.7,2.92h-41a2.89,2.89,0,0,1-3.33-2.5V225.62c0-5,0-10.2-.21-15.61s-.2-10.82-.41-16.24c0-4.78-.42-9.36-.83-14.15a1.91,1.91,0,0,1,1.45-2.29c0-.21.42-.21.63,0Z"/>
      </g>
    </g>
  </g>
</svg>
